v 0.5 -0.5 0.5
v -0.5 -0.5 0.5
v -0.5 -0.5 0.375
v 0.5 -0.5 0.375
v 0.5 0.5 0.5
v -0.5 0.5 0.5
v -0.5 0.5 0.375
v 0.5 0.5 0.375
v 0.438 -0.5 0.5
v 0.438 -0.5 0.375
v 0.438 0.5 0.5
v 0.438 0.5 0.375
v -0.437 -0.5 0.5
v -0.437 -0.5 0.375
v -0.437 0.5 0.5
v -0.437 0.5 0.375
v -0.437 0.5 0.406
v -0.437 -0.5 0.406
v 0.438 0.5 0.406
v 0.438 -0.5 0.406
v -0.437 0.5 0.469
v -0.437 -0.5 0.469
v 0.438 0.5 0.469
v 0.438 -0.5 0.469
v -0.437 0.438 0.406
v 0.438 0.438 0.406
v -0.437 0.438 0.469
v 0.438 0.438 0.469
v -0.437 -0.437 0.406
v 0.438 -0.437 0.406
v -0.437 -0.437 0.469
v 0.438 -0.437 0.469
v -0.437 0.438 0.438
v 0.438 0.438 0.438
v -0.437 -0.437 0.438
v 0.438 -0.437 0.438
vt 0 1
vt 0 0.875
vt 0.063 0.875
vt 0.063 1
vt 1 0.875
vt 1 1
vt 0.938 1
vt 0.938 0.875
vt 0.063 0.969
vt 0.063 0.906
vt 0.938 0.906
vt 0.938 0.969
vt 1 0.125
vt 0.938 0.125
vt 0.938 0
vt 1 0
vt 0 0
vt 0.063 0
vt 0.063 0.125
vt 0 0.125
vt 0.063 0.094
vt 0.063 0.031
vt 0.938 0.031
vt 0.938 0.094
vt 0.875 1
vt 0.875 0
vt 0.125 1
vt 0.125 0
vt 0.063 0.938
vt 0.938 0.938
vt 0.063 0.063
vt 0.938 0.063
vn 0 1 0
vn 0 -1 0
vn -1 0 0
vn 1 0 0
vn 0 0 1
vn 0 0 -1
g 1
s off
f 5/1/1 8/2/1 12/3/1 11/4/1
f 7/5/1 6/6/1 15/7/1 16/8/1
f 23/9/1 19/10/1 17/11/1 21/12/1
f 30/10/1 29/11/1 31/12/1 32/9/1
g 2
f 3/13/2 14/14/2 13/15/2 2/16/2
f 1/17/2 9/18/2 10/19/2 4/20/2
f 26/21/2 28/22/2 27/23/2 25/24/2
f 24/22/2 22/23/2 18/24/2 20/21/2
g 3
f 6/6/3 7/25/3 3/26/3 2/16/3
f 12/25/3 10/26/3 9/16/3 11/6/3
g 4
f 8/27/4 5/1/4 1/17/4 4/28/4
f 13/17/4 14/28/4 16/27/4 15/1/4
g 5
f 1/17/5 5/1/5 11/4/5 9/18/5
f 6/6/5 2/16/5 13/15/5 15/7/5
f 28/29/5 23/4/5 21/7/5 27/30/5
f 32/31/5 31/32/5 22/15/5 24/18/5
g 6
f 8/1/6 4/17/6 10/18/6 12/4/6
f 3/16/6 7/6/6 16/7/6 14/15/6
f 25/30/6 17/7/6 19/4/6 26/29/6
f 18/15/6 29/32/6 30/31/6 20/18/6
f 33/30/5 35/32/5 36/31/5 34/29/5
