v -0.5 -0.5 0.5
v -0.5 -0.5 0.375
v 0.5 -0.5 0.375
v 0.5 -0.5 0.5
v -0.5 0.5 0.5
v -0.5 0.5 0.375
v 0.5 0.5 0.375
v 0.5 0.5 0.5
v 0.375 -0.5 0.375
v 0.375 -0.5 0.5
v 0.375 0.5 0.375
v 0.375 0.5 0.5
v -0.375 -0.5 0.5
v -0.375 -0.5 0.375
v -0.375 0.5 0.5
v -0.375 0.5 0.375
v 0.375 -0.5 0.438
v 0.375 0.5 0.438
v -0.375 -0.5 0.438
v -0.375 0.5 0.438
vt 1 1
vt 0.875 1
vt 0.875 0
vt 1 0
vt 1 0.875
vt 0.875 0.875
vt 0.125 1
vt 0 1
vt 0 0
vt 0.125 0
vt 1 0.125
vt 0.875 0.125
vt 0 0.125
vt 0.125 0.125
vt 0 0.875
vt 0.125 0.875
vn -1 0 0
vn 0 1 0
vn 1 0 0
vn 0 0 1
vn 0 -1 0
vn 0 0 -1
g 1
s off
f 5/1/1 6/2/1 2/3/1 1/4/1
f 8/5/2 7/1/2 11/2/2 12/6/2
f 7/7/3 8/8/3 4/9/3 3/10/3
f 4/9/4 8/8/4 12/7/4 10/10/4
f 3/4/5 4/11/5 10/12/5 9/3/5
f 11/2/1 9/3/1 10/4/1 12/1/1
f 7/1/6 3/4/6 9/3/6 11/2/6
f 15/8/3 13/9/3 14/10/3 16/7/3
f 1/13/5 2/9/5 14/10/5 13/14/5
f 2/9/6 6/8/6 16/7/6 14/10/6
f 6/8/2 5/15/2 15/16/2 16/7/2
f 5/1/4 1/4/4 13/3/4 15/2/4
f 17/10/6 19/3/6 20/2/6 18/7/6
