v -0.187 -0.5 0.148
v -0.187 -0.5 -0.187
v 0.188 -0.5 -0.187
v 0.188 -0.5 0.148
v -0.074 -0.32 0.123
v -0.074 -0.32 -0.015
v 0.074 -0.32 -0.015
v 0.074 -0.32 0.123
v -0.184 -0.436 0.148
v -0.184 -0.436 -0.181
v 0.184 -0.436 -0.181
v 0.184 -0.436 0.148
v -0.062 -0.32 0.109
v -0.051 -0.25 0.098
v -0.062 -0.32 0.012
v -0.051 -0.25 0.023
v -0.051 -0.281 0.023
v -0.062 -0.25 0.012
v -0.051 -0.281 0.098
v -0.062 -0.25 0.109
v -0.051 -0.25 0.109
v -0.051 -0.25 0.012
v -0.062 -0.281 0.098
v -0.062 -0.281 0.023
v -0.062 -0.25 0.023
v -0.051 -0.32 0.012
v -0.051 -0.32 0.109
v -0.062 -0.25 0.098
v -0.187 -0.278 0.094
v -0.187 -0.278 0.027
v 0.188 -0.278 0.027
v 0.188 -0.278 0.094
v -0.187 -0.253 0.078
v -0.187 -0.253 0.043
v 0.188 -0.253 0.043
v 0.188 -0.253 0.078
v 0.188 -0.335 -0.002
v 0.232 -0.335 0.016
v 0.25 -0.335 0.061
v 0.25 -0.305 0.061
v 0.232 -0.335 0.105
v 0.188 -0.335 0.123
v 0.188 -0.305 0.123
v 0.143 -0.335 0.105
v 0.143 -0.305 0.105
v 0.125 -0.335 0.061
v 0.125 -0.305 0.061
v 0.143 -0.335 0.016
v 0.143 -0.305 0.016
v 0.164 -0.248 0.061
v 0.143 -0.261 0.061
v 0.13 -0.281 0.061
v 0.229 -0.343 0.019
v 0.246 -0.343 0.061
v 0.171 -0.248 0.044
v 0.156 -0.261 0.029
v 0.147 -0.281 0.02
v 0.188 -0.343 0.061
v 0.188 -0.248 0.037
v 0.188 -0.261 0.016
v 0.188 -0.281 0.003
v 0.188 -0.305 -0.002
v 0.188 -0.243 0.061
v 0.204 -0.248 0.044
v 0.219 -0.261 0.029
v 0.228 -0.281 0.02
v 0.232 -0.305 0.016
v 0.211 -0.248 0.061
v 0.232 -0.261 0.061
v 0.245 -0.281 0.061
v 0.204 -0.248 0.077
v 0.219 -0.261 0.092
v 0.228 -0.281 0.101
v 0.232 -0.305 0.105
v 0.188 -0.248 0.085
v 0.188 -0.261 0.105
v 0.188 -0.281 0.118
v 0.171 -0.248 0.077
v 0.156 -0.261 0.092
v 0.147 -0.281 0.101
v 0.188 -0.343 0.002
v 0.229 -0.343 0.102
v 0.188 -0.343 0.119
v 0.146 -0.343 0.102
v 0.129 -0.343 0.061
v 0.146 -0.343 0.019
v -0.187 -0.335 -0.002
v -0.187 -0.305 -0.002
v -0.143 -0.335 0.016
v -0.125 -0.335 0.061
v -0.125 -0.305 0.061
v -0.143 -0.335 0.105
v -0.187 -0.335 0.123
v -0.187 -0.305 0.123
v -0.232 -0.335 0.105
v -0.232 -0.305 0.105
v -0.25 -0.335 0.061
v -0.25 -0.305 0.061
v -0.232 -0.335 0.016
v -0.232 -0.305 0.016
v -0.211 -0.248 0.061
v -0.232 -0.261 0.061
v -0.245 -0.281 0.061
v -0.146 -0.343 0.019
v -0.129 -0.343 0.061
v -0.204 -0.248 0.044
v -0.219 -0.261 0.029
v -0.228 -0.281 0.02
v -0.187 -0.343 0.061
v -0.187 -0.248 0.037
v -0.187 -0.261 0.016
v -0.187 -0.281 0.003
v -0.187 -0.243 0.061
v -0.171 -0.248 0.044
v -0.156 -0.261 0.029
v -0.147 -0.281 0.02
v -0.143 -0.305 0.016
v -0.164 -0.248 0.061
v -0.143 -0.261 0.061
v -0.13 -0.281 0.061
v -0.171 -0.248 0.077
v -0.156 -0.261 0.092
v -0.147 -0.281 0.101
v -0.143 -0.305 0.105
v -0.187 -0.248 0.085
v -0.187 -0.261 0.105
v -0.187 -0.281 0.118
v -0.204 -0.248 0.077
v -0.219 -0.261 0.092
v -0.228 -0.281 0.101
v -0.187 -0.343 0.002
v -0.146 -0.343 0.102
v -0.187 -0.343 0.119
v -0.229 -0.343 0.102
v -0.246 -0.343 0.061
v -0.229 -0.343 0.019
v -0.187 -0.267 0.094
v -0.187 -0.252 0.061
v -0.187 -0.267 0.027
v 0.188 -0.267 0.027
v 0.188 -0.252 0.061
v 0.188 -0.267 0.094
v -0.187 -0.281 0.061
v 0.051 -0.25 0.098
v 0.188 -0.281 0.061
v 0.063 -0.32 0.109
v 0.063 -0.32 0.012
v -0.187 -0.281 0.089
v 0.188 -0.281 0.032
v -0.187 -0.281 0.032
v 0.188 -0.281 0.089
v 0.051 -0.25 0.023
v 0.051 -0.281 0.023
v 0.051 -0.281 0.098
v 0.063 -0.25 0.012
v 0.063 -0.25 0.109
v 0.051 -0.25 0.109
v 0.063 -0.281 0.098
v 0.051 -0.25 0.012
v 0.063 -0.281 0.023
v 0.063 -0.25 0.023
v 0.051 -0.32 0.012
v 0.063 -0.25 0.098
v 0.051 -0.32 0.109
v -0.143 -0.379 0.142
v -0.143 -0.379 -0.134
v 0.143 -0.379 -0.134
v 0.143 -0.379 0.142
v -0.342 -0.419 0.051
v -0.331 -0.416 0.047
v -0.242 -0.32 0.047
v -0.185 -0.482 0.047
v -0.242 -0.309 0.051
v -0.186 -0.493 0.051
v -0.242 -0.304 0.063
v -0.186 -0.497 0.063
v -0.242 -0.309 0.074
v -0.186 -0.493 0.074
v -0.242 -0.32 0.078
v -0.185 -0.482 0.078
v -0.242 -0.331 0.074
v -0.185 -0.471 0.074
v -0.242 -0.335 0.063
v -0.185 -0.466 0.063
v -0.242 -0.331 0.051
v -0.185 -0.471 0.051
v -0.347 -0.42 0.063
v -0.342 -0.419 0.074
v -0.331 -0.416 0.078
v -0.322 -0.413 0.074
v -0.318 -0.412 0.063
v -0.322 -0.413 0.051
v -0.266 -0.462 0.051
v -0.263 -0.459 0.063
v -0.273 -0.47 0.047
v -0.334 -0.34 0.051
v -0.266 -0.462 0.074
v -0.337 -0.337 0.063
v -0.273 -0.47 0.078
v -0.334 -0.34 0.074
v -0.282 -0.478 0.074
v -0.325 -0.346 0.078
v -0.285 -0.481 0.063
v -0.318 -0.352 0.074
v -0.282 -0.478 0.051
v -0.315 -0.355 0.063
v -0.325 -0.346 0.047
v -0.318 -0.352 0.051
v -0.302 -0.437 0.051
v -0.298 -0.435 0.063
v -0.231 -0.479 0.047
v -0.292 -0.314 0.051
v -0.302 -0.437 0.074
v -0.293 -0.31 0.063
v -0.312 -0.442 0.078
v -0.292 -0.314 0.074
v -0.323 -0.447 0.074
v -0.287 -0.323 0.078
v -0.328 -0.449 0.063
v -0.283 -0.333 0.074
v -0.323 -0.447 0.051
v -0.282 -0.337 0.063
v -0.34 -0.378 0.047
v -0.283 -0.333 0.051
v -0.228 -0.469 0.051
v -0.227 -0.465 0.063
v -0.312 -0.442 0.047
v -0.351 -0.378 0.051
v -0.228 -0.469 0.074
v -0.356 -0.378 0.063
v -0.231 -0.479 0.078
v -0.351 -0.378 0.074
v -0.235 -0.489 0.074
v -0.34 -0.378 0.078
v -0.237 -0.493 0.063
v -0.33 -0.379 0.074
v -0.235 -0.489 0.051
v -0.326 -0.379 0.063
v -0.287 -0.323 0.047
v -0.33 -0.379 0.051
vt 0.889 0.509
vt 0.701 0.811
vt 0.298 0.811
vt 0.111 0.509
vt 1 0.307
vt 0 0.307
vt 0.166 0.945
vt 0.166 0.018
vt 0.347 0
vt 0.347 0.945
vt 0.821 0.991
vt 0.821 0.009
vt 0.994 0
vt 0.994 1
vt 0.681 0.927
vt 0.681 0
vt 0.862 0
vt 0.862 0.945
vt 0.316 0.988
vt 0.316 0.009
vt 0.487 0
vt 0.487 0.997
vt 0.911 1
vt 0 1
vt 0 0
vt 0.911 0
vt 0.732 0.612
vt 0.339 0.612
vt 0.339 0.194
vt 0.732 0.194
vt 0.161 0.88
vt 0.161 0.118
vt 0.515 0.793
vt 0.515 0.017
vt 0 0.928
vt 0 0.152
vt 0.681 0.275
vt 0.714 0.275
vt 0.714 0.472
vt 0.681 0.472
vt 0.747 0.275
vt 0.747 0.472
vt 0.714 0.472
vt 0.948 0.308
vt 0.914 0.308
vt 0.914 0.275
vt 0.948 0.275
vt 0.547 0.275
vt 0.581 0.275
vt 0.581 0.484
vt 0.547 0.484
vt 0.848 0.275
vt 0.881 0.275
vt 0.881 0.362
vt 0.848 0.362
vt 0.647 0.363
vt 0.614 0.363
vt 0.614 0.275
vt 0.647 0.275
vt 0.914 0.362
vt 0.781 0.275
vt 0.814 0.275
vt 0.814 0.472
vt 0.781 0.472
vt 0.948 0.374
vt 0.914 0.374
vt 0.914 0.341
vt 0.948 0.341
vt 0.614 0.472
vt 0.581 0.472
vt 0.781 0.484
vt 0.747 0.484
vt 0.848 0.363
vt 0.814 0.363
vt 0.747 0
vt 0.636 0.242
vt 0.836 0.242
vt 0.836 0.033
vt 0.547 0
vt 0.436 0.242
vt 0.436 0.516
vt 0.436 0.308
vt 0.547 0.549
vt 0.914 0.395
vt 0.881 0.395
vt 0.931 0.24
vt 0.435 0.24
vt 0.008 0
vt 1 0
vt 0.435 0.757
vt 0.931 0.757
vt 1 0.997
vt 0.008 0.997
vt 0 0.696
vt 0 0.301
vt 0.636 0.033
vt 0.547 0.033
vt 0.547 0.242
vt 0.948 0
vt 0.747 0.242
vt 0.747 0.033
vt 0.436 0.033
vt 0.347 0.033
vt 0.347 0.275
vt 0.347 0.242
vt 0.347 0.549
vt 0.347 0.516
vt 0.347 0.308
vt 0.562 0.246
vt 0.623 0.108
vt 0.623 0.417
vt 0.71 1
vt 0.71 0.358
vt 0.733 0.358
vt 0.733 1
vt 0.687 1
vt 0.687 0.358
vt 0.934 1
vt 0.899 1
vt 0.899 0.358
vt 0.934 0.358
vt 0.453 0.266
vt 0.276 0.266
vt 0.285 0.034
vt 0.462 0.034
vt 0.462 0.498
vt 0.285 0.498
vt 0.277 0.266
vt 0.454 0.266
vt 0.285 0.034
vt 0.462 0.034
vt 0.462 0.498
vt 0.502 0.266
vt 0.51 0.483
vt 0.135 0.266
vt 0.019 0.266
vt 0.025 0.102
vt 0.143 0.052
vt 0.768 0.325
vt 0.799 0.251
vt 0.873 0.251
vt 0.904 0.325
vt 0.143 0.48
vt 0.025 0.43
vt 0.135 0.266
vt 0.925 0.199
vt 1 0.23
vt 0.143 0.052
vt 0.025 0.102
vt 0.925 0.126
vt 1 0.095
vt 0.143 0.48
vt 0.025 0.43
vt 0.873 0.075
vt 0.904 0
vt 0.799 0.075
vt 0.768 0
vt 0.747 0.126
vt 0.672 0.095
vt 0.747 0.199
vt 0.672 0.23
vt 0.219 0.563
vt 0.373 0.627
vt 0.219 0.781
vt 0.836 0.163
vt 0.438 0.781
vt 0.373 0.936
vt 0.219 1
vt 0.064 0.936
vt 0 0.781
vt 0.064 0.627
vt 0.51 0.049
vt 0.503 0.266
vt 0.51 0.483
vt 0.51 0.049
vt 0.285 0.498
vt 0.219 0.563
vt 0.219 0.781
vt 0.438 0.781
vt 0.219 1
vt 0 0.781
vt 0.968 1
vt 0.968 0.358
vt 1 0.358
vt 1 1
vt 0.734 1
vt 0.734 0.358
vt 0.744 0.358
vt 0.744 1
vt 0.562 0.279
vt 0.867 1
vt 0.867 0.358
vt 0.801 0.358
vt 0.857 0.358
vt 0.857 1
vt 0.801 1
vt 1 0.125
vt 1 0.25
vt 0.875 0.25
vt 0.875 0.125
vt 0.5 0.375
vt 0.5 0.5
vt 0.375 0.5
vt 0.375 0.375
vt 0.75 0.875
vt 0.75 1
vt 0.625 1
vt 0.625 0.875
vt 0.75 0.125
vt 0.75 0.25
vt 0.625 0.25
vt 0.625 0.125
vt 0.25 0.5
vt 0.25 0.375
vt 0.5 1
vt 0.5 0.875
vt 0.875 0.625
vt 0.875 0.75
vt 0.75 0.75
vt 0.75 0.625
vt 0.125 0.5
vt 0.125 0.375
vt 0.375 1
vt 0.375 0.875
vt 1 0.625
vt 1 0.75
vt 0 0.5
vt 0 0.375
vt 0.25 1
vt 0.25 0.875
vt 0.5 0.25
vt 0.5 0.125
vt 0.875 0.375
vt 0.875 0.5
vt 0.75 0.5
vt 0.75 0.375
vt 0.125 1
vt 0.125 0.875
vt 0.625 0.5
vt 0.625 0.375
vt 1 0.375
vt 1 0.5
vt 0 0.875
vt 0.875 0.875
vt 0.875 1
vt 1 0.875
vt 0.125 0.625
vt 0.125 0.75
vt 0 0.75
vt 0 0.625
vt 0.25 0.625
vt 0.25 0.75
vt 0.375 0.625
vt 0.375 0.75
vt 0.125 0.125
vt 0.125 0.25
vt 0 0.25
vt 0 0.125
vt 0.5 0.625
vt 0.5 0.75
vt 0.25 0.125
vt 0.25 0.25
vt 0.625 0.625
vt 0.625 0.75
vt 0.375 0.125
vt 0.375 0.25
vt 0.5 0
vt 0.375 0
vt 0.25 0
vt 0.125 0
vt 0.875 0
vt 0.75 0
vt 0.625 0
vn -0.433 0.802 -0.411
vn -0.287 0.944 -0.161
vn 0.287 0.944 -0.161
vn 0.433 0.802 -0.411
vn -0.652 0.397 -0.646
vn 0.652 0.397 -0.646
vn -0.707 0.266 0.655
vn -0.589 -0.537 -0.604
vn -0.594 -0.563 0.575
vn 0.589 -0.537 -0.604
vn 0.707 0.266 0.655
vn 0.594 -0.563 0.575
vn 0.257 0.82 0.511
vn -0.257 0.82 0.511
vn 0.509 0.559 0.654
vn -0.509 0.559 0.654
vn 0.577 0.577 0.577
vn -0.577 0.577 0.577
vn -0.707 0 0.707
vn 0.707 0 0.707
vn 0.707 0 -0.707
vn -0.707 0 -0.707
vn -0.577 0.577 -0.577
vn 0.577 0.577 -0.577
vn 0.905 0.302 0.302
vn -0.904 0.302 0.302
vn -0.904 0.302 -0.301
vn 0.905 0.302 -0.301
vn -0.64 0.714 0.283
vn -0.229 0.974 0
vn -0.105 0.414 0.904
vn -0.105 0.414 -0.904
vn 0.105 0.414 -0.904
vn 0 -0.502 -0.865
vn 0.64 0.714 -0.283
vn 0.229 0.974 0
vn 0.105 0.414 0.904
vn 0 -0.502 0.865
vn -0.64 0.714 -0.283
vn 0 -0.218 0.976
vn 0 0.096 0.995
vn -0.704 0.096 0.704
vn -0.69 -0.218 0.69
vn -0.995 0.096 0
vn -0.976 -0.218 0
vn -0.704 0.096 -0.704
vn -0.69 -0.218 -0.69
vn 0 -0.218 -0.976
vn 0 -0.794 -0.608
vn -0.43 -0.794 -0.43
vn -0.93 0.367 0
vn -0.73 0.684 0
vn -0.516 0.684 -0.516
vn -0.658 0.367 -0.658
vn -0.423 0.906 0
vn -0.299 0.906 -0.299
vn 0 0.684 -0.73
vn 0 0.367 -0.93
vn 0 0.906 -0.423
vn 0 0.096 -0.995
vn 0.658 0.367 -0.658
vn 0.704 0.096 -0.704
vn 0.516 0.684 -0.516
vn 0.299 0.906 -0.299
vn 0.73 0.684 0
vn 0.93 0.367 0
vn 0.423 0.906 0
vn 0.516 0.684 0.516
vn 0.658 0.367 0.658
vn 0.299 0.906 0.299
vn 0 0.684 0.73
vn 0 0.367 0.93
vn 0 0.906 0.423
vn -0.516 0.684 0.516
vn -0.658 0.367 0.658
vn -0.299 0.906 0.299
vn 0.43 -0.794 -0.43
vn 0 -1 0
vn 0 1 0
vn 0.608 -0.794 0
vn 0.43 -0.794 0.43
vn 0 -0.794 0.608
vn -0.43 -0.794 0.43
vn -0.608 -0.794 0
vn 0.69 -0.218 0.69
vn 0.976 -0.218 0
vn 0.69 -0.218 -0.69
vn 0.64 0.714 0.283
vn 0 -0.966 -0.257
vn 0 -0.966 0.257
vn 0.995 0.096 0
vn 0.704 0.096 0.704
vn 0.271 -0.963 0
vn 0.737 -0.675 0
vn 0.511 -0.465 -0.723
vn 0.195 -0.665 -0.721
vn -0.996 0.093 0
vn -0.925 -0.38 0
vn -0.661 -0.279 0.696
vn -0.727 0.08 0.682
vn -0.004 -0.018 -1
vn -0.004 0 -1
vn -0.057 -0.718 -0.694
vn -0.116 -0.725 -0.679
vn -0.016 0.054 -0.998
vn -0.051 0.051 -0.997
vn -0.558 0.494 -0.667
vn -0.24 0.705 -0.668
vn -0.032 -0.017 0.999
vn -0.062 0.013 0.998
vn -0.083 -0.996 0
vn -0.166 -0.986 0
vn 0.478 0.522 -0.707
vn 0.264 0.647 -0.716
vn -0.007 -0.054 -0.998
vn -0.017 -0.029 -0.999
vn 0.63 0.307 0.713
vn 0.689 -0.068 0.721
vn -0.057 -0.718 0.694
vn -0.116 -0.725 0.679
vn 0.661 0.751 0
vn 0.36 0.933 0
vn 0.891 0.454 0
vn 0.995 -0.104 0
vn -0.004 0 1
vn -0.004 -0.018 1
vn -0.757 0.654 0
vn -0.331 0.944 0
vn 0.689 -0.068 -0.721
vn 0.63 0.307 -0.713
vn -0.032 -0.017 -0.999
vn -0.062 0.013 -0.998
vn 0.03 0.718 0.696
vn 0.079 0.712 0.698
vn -0.661 -0.279 -0.696
vn -0.727 0.08 -0.682
vn 0.037 0.999 0
vn 0.102 0.995 0
vn 0.079 0.712 -0.698
vn 0.03 0.718 -0.695
vn 0.478 0.522 0.707
vn 0.264 0.647 0.716
vn -0.017 -0.029 0.999
vn -0.007 -0.054 0.999
vn -0.524 -0.502 0.688
vn -0.31 -0.672 0.672
vn 0.195 -0.665 0.721
vn 0.511 -0.465 0.723
vn -0.738 -0.675 0
vn -0.441 -0.897 0
vn -0.016 0.054 0.998
vn -0.051 0.051 0.997
vn -0.524 -0.502 -0.688
vn -0.31 -0.672 -0.672
vn -0.24 0.705 0.668
vn -0.558 0.494 0.667
vn -0.11 0.994 0
vn -0.078 0.734 0.675
vn -0.008 0.028 1
vn 0.04 -0.709 0.704
vn 0.05 -0.999 0
vn 0.04 -0.709 -0.704
vn -0.008 0.028 -1
vn -0.078 0.734 -0.675
g 1
s 1
f 166/1/1 6/2/2 7/3/3 167/4/4
f 10/5/5 166/1/1 167/4/4 11/6/6
g 2
f 9/7/7 10/8/5 2/9/8 1/10/9
f 10/11/5 11/12/6 3/13/10 2/14/8
f 11/15/6 12/16/11 4/17/12 3/18/10
f 12/19/11 9/20/7 1/21/9 4/22/12
f 1/23/9 2/24/8 3/25/10 4/26/12
f 8/27/13 7/28/3 6/29/2 5/30/14
f 168/31/15 165/32/16 9/20/7 12/19/11
f 167/33/4 168/34/15 12/16/11 11/15/6
f 165/35/16 166/36/1 10/8/5 9/7/7
f 21/37/17 20/38/18 13/39/19 27/40/20
f 26/38/21 15/41/22 18/42/23 22/43/24
f 14/44/24 28/45/23 20/46/18 21/47/17
f 17/48/25 24/49/26 23/50/27 19/51/28
f 161/52/17 152/53/18 153/54/26 160/55/25
f 19/56/28 23/57/27 28/58/23 14/59/24
f 16/53/17 25/46/18 24/60/26 17/54/25
f 156/61/17 157/62/18 164/63/19 146/64/20
f 163/65/24 144/66/23 157/67/18 156/68/17
f 147/69/21 162/70/22 159/49/23 155/58/24
f 160/71/25 153/72/26 154/41/27 158/61/28
f 158/73/28 154/74/27 144/62/23 163/52/24
f 146/75/20 147/41/21 160/76/25
f 154/77/27 153/78/26 164/47/19
f 155/68/24 159/67/23 152/45/18 161/44/17
f 27/79/20 26/48/21 17/80/25
f 23/81/27 24/82/26 13/83/19
f 22/54/24 18/60/23 25/84/18 16/85/17
f 5/86/14 6/87/2 166/88/1 165/89/16
f 7/90/3 8/91/13 168/92/15 167/93/4
f 8/94/13 5/95/14 165/32/16 168/31/15
f 158/96/28 163/97/24 156/79/17
f 155/48/24 161/98/17 160/76/25
f 158/96/28 156/79/17 146/75/20
f 147/41/21 155/48/24 160/76/25
f 160/76/25 158/96/28 146/75/20
f 153/78/26 159/75/23 162/99/22
f 154/77/27 157/41/18 144/100/23
f 153/78/26 152/101/18 159/75/23
f 164/47/19 157/41/18 154/77/27
f 153/78/26 162/99/22 164/47/19
f 19/102/28 14/103/24 21/9/17
f 22/104/24 16/105/17 17/80/25
f 19/102/28 21/9/17 27/79/20
f 26/48/21 22/104/24 17/80/25
f 17/80/25 19/102/28 27/79/20
f 24/82/26 18/104/23 15/48/22
f 23/81/27 20/106/18 28/107/23
f 24/82/26 25/108/18 18/104/23
f 13/83/19 20/106/18 23/81/27
f 24/82/26 15/48/22 13/83/19
g 3
f 33/109/29 138/110/30 137/111/31
f 139/112/32 140/113/33 31/114/34 30/115/34
f 35/109/35 141/110/36 140/111/33
f 142/116/37 137/117/31 29/113/38 32/112/38
f 141/118/36 35/119/35 34/120/39 138/121/30
f 42/122/40 43/123/41 45/124/42 44/125/43
f 44/126/43 45/127/42 47/128/44 46/129/45
f 46/129/45 47/128/44 49/130/46 48/131/47
f 48/132/47 37/122/48 81/133/49 86/134/50
f 52/135/51 51/136/52 56/137/53 57/138/54
f 51/139/52 50/140/55 55/141/56 56/142/53
f 57/143/54 56/144/53 60/136/57 61/145/58
f 56/142/53 55/141/56 59/146/59 60/147/57
f 62/123/60 61/145/58 66/148/61 67/124/62
f 61/145/58 60/136/57 65/149/63 66/148/61
f 60/147/57 59/146/59 64/150/64 65/151/63
f 66/152/61 65/153/63 69/136/65 70/135/66
f 65/151/63 64/150/64 68/154/67 69/155/65
f 70/135/66 69/136/65 72/137/68 73/138/69
f 69/155/65 68/154/67 71/156/70 72/157/68
f 73/143/69 72/144/68 76/136/71 77/145/72
f 72/157/68 71/156/70 75/158/73 76/159/71
f 77/145/72 76/136/71 79/149/74 80/148/75
f 76/159/71 75/158/73 78/160/76 79/161/74
f 81/162/49 53/163/77 58/164/78
f 50/140/55 63/165/79 55/141/56
f 55/141/56 63/165/79 59/146/59
f 59/146/59 63/165/79 64/150/64
f 64/150/64 63/165/79 68/154/67
f 68/154/67 63/165/79 71/156/70
f 71/156/70 63/165/79 75/158/73
f 75/158/73 63/165/79 78/160/76
f 80/152/75 79/153/74 51/136/52 52/135/51
f 79/161/74 78/160/76 50/140/55 51/139/52
f 78/160/76 63/165/79 50/140/55
f 53/163/77 54/166/80 58/164/78
f 54/166/80 82/167/81 58/164/78
f 82/167/81 83/168/82 58/164/78
f 83/168/82 84/169/83 58/164/78
f 84/169/83 85/170/84 58/164/78
f 85/170/84 86/171/50 58/164/78
f 86/171/50 81/162/49 58/164/78
f 46/129/45 48/131/47 86/172/50 85/173/84
f 44/126/43 46/129/45 85/173/84 84/174/83
f 42/122/40 44/125/43 84/175/83 83/133/82
f 41/132/85 42/122/40 83/133/82 82/134/81
f 39/129/86 41/131/85 82/172/81 54/173/80
f 38/126/87 39/129/86 54/173/80 53/174/77
f 37/122/48 38/125/87 53/175/77 81/133/49
f 93/122/40 94/123/41 96/124/42 95/125/43
f 95/126/43 96/127/42 98/128/44 97/129/45
f 99/132/47 100/176/46 88/123/60 87/122/48
f 97/129/45 98/128/44 100/130/46 99/131/47
f 99/132/47 87/122/48 131/133/49 136/134/50
f 103/135/51 102/136/52 107/137/53 108/138/54
f 102/139/52 101/140/55 106/141/56 107/142/53
f 108/143/54 107/144/53 111/136/57 112/145/58
f 107/142/53 106/141/56 110/146/59 111/147/57
f 112/145/58 111/136/57 115/149/63 116/148/61
f 111/147/57 110/146/59 114/150/64 115/151/63
f 116/152/61 115/153/63 119/136/65 120/135/66
f 115/151/63 114/150/64 118/154/67 119/155/65
f 120/135/66 119/136/65 122/137/68 123/138/69
f 119/155/65 118/154/67 121/156/70 122/157/68
f 123/143/69 122/144/68 126/136/71 127/145/72
f 122/157/68 121/156/70 125/158/73 126/159/71
f 127/145/72 126/136/71 129/149/74 130/148/75
f 126/159/71 125/158/73 128/160/76 129/161/74
f 131/177/49 104/163/77 109/178/78
f 101/140/55 113/165/79 106/141/56
f 106/141/56 113/165/79 110/146/59
f 110/146/59 113/165/79 114/150/64
f 114/150/64 113/165/79 118/154/67
f 118/154/67 113/165/79 121/156/70
f 121/156/70 113/165/79 125/158/73
f 125/158/73 113/165/79 128/160/76
f 130/152/75 129/153/74 102/136/52 103/135/51
f 129/161/74 128/160/76 101/140/55 102/139/52
f 128/160/76 113/165/79 101/140/55
f 104/163/77 105/179/80 109/178/78
f 105/179/80 132/167/81 109/178/78
f 132/167/81 133/180/82 109/178/78
f 133/180/82 134/169/83 109/178/78
f 134/169/83 135/181/84 109/178/78
f 135/181/84 136/171/50 109/178/78
f 136/171/50 131/177/49 109/178/78
f 97/129/45 99/131/47 136/172/50 135/173/84
f 95/126/43 97/129/45 135/173/84 134/174/83
f 93/122/40 95/125/43 134/175/83 133/133/82
f 92/132/85 93/122/40 133/133/82 132/134/81
f 90/129/86 92/131/85 132/172/81 105/173/80
f 89/126/87 90/129/86 105/173/80 104/174/77
f 87/122/48 89/125/87 104/175/77 131/133/49
f 36/182/88 141/118/36 138/121/30 33/183/29
f 36/182/88 33/183/29 137/184/31 142/185/37
f 30/186/34 31/187/34 149/188/89 150/189/89
f 141/111/36 36/190/88 142/110/37
f 34/120/39 35/119/35 140/191/33 139/192/32
f 145/193/78 151/194/90 148/195/90 143/196/78
f 138/111/30 34/190/39 139/110/32
f 150/189/89 149/188/89 145/193/78 143/196/78
f 151/194/90 32/192/38 29/191/38 148/195/90
f 37/122/48 62/123/60 67/124/62 38/125/87
f 38/126/87 67/127/62 40/128/91 39/129/86
f 39/129/86 40/128/91 74/130/92 41/131/85
f 41/132/85 74/176/92 43/123/41 42/122/40
f 48/132/47 49/176/46 62/123/60 37/122/48
f 47/128/44 52/135/51 57/138/54 49/130/46
f 49/176/46 57/143/54 61/145/58 62/123/60
f 67/127/62 66/152/61 70/135/66 40/128/91
f 40/128/91 70/135/66 73/138/69 74/130/92
f 74/176/92 73/143/69 77/145/72 43/123/41
f 43/123/41 77/145/72 80/148/75 45/124/42
f 45/127/42 80/152/75 52/135/51 47/128/44
f 87/122/48 88/123/60 117/124/62 89/125/87
f 89/126/87 117/127/62 91/128/91 90/129/86
f 90/129/86 91/128/91 124/130/92 92/131/85
f 92/132/85 124/176/92 94/123/41 93/122/40
f 98/128/44 103/135/51 108/138/54 100/130/46
f 100/176/46 108/143/54 112/145/58 88/123/60
f 88/123/60 112/145/58 116/148/61 117/124/62
f 117/127/62 116/152/61 120/135/66 91/128/91
f 91/128/91 120/135/66 123/138/69 124/130/92
f 124/176/92 123/143/69 127/145/72 94/123/41
f 94/123/41 127/145/72 130/148/75 96/124/42
f 96/127/42 130/152/75 103/135/51 98/128/44
g 4
f 222/197/93 206/198/94 208/199/95 224/200/96
f 230/201/97 187/202/98 188/203/99 232/204/100
f 211/205/101 172/206/102 174/207/103 237/208/104
f 239/209/105 207/210/106 196/211/107 212/212/108
f 232/204/100 188/203/99 189/213/109 234/214/110
f 237/208/104 174/207/103 176/215/111 235/216/112
f 209/217/113 193/218/114 195/219/115 227/220/116
f 234/214/110 189/213/109 190/221/117 236/222/118
f 235/216/112 176/215/111 178/223/119 233/224/120
f 210/225/121 194/226/122 193/218/114 209/217/113
f 236/222/118 190/221/117 191/227/123 238/228/124
f 233/224/120 178/223/119 180/229/125 231/230/126
f 212/212/108 196/211/107 198/231/127 214/232/128
f 240/233/129 192/234/130 170/235/131 223/236/132
f 231/230/126 180/229/125 182/237/133 229/238/134
f 223/236/132 170/235/131 169/239/135 228/240/136
f 238/241/124 191/242/123 192/234/130 240/233/129
f 229/238/134 182/237/133 184/24/137 226/243/138
f 225/244/139 186/245/140 172/206/102 211/205/101
f 226/246/138 184/185/137 186/245/140 225/244/139
f 213/247/141 197/248/142 194/249/122 210/250/121
f 228/240/136 169/239/135 187/202/98 230/201/97
f 215/251/143 199/252/144 197/248/142 213/247/141
f 224/200/96 208/199/95 207/210/106 239/209/105
f 217/253/145 201/254/146 199/252/144 215/251/143
f 220/255/147 204/256/148 206/257/94 222/258/93
f 219/259/149 203/260/150 201/254/146 217/253/145
f 218/261/151 202/262/152 204/256/148 220/255/147
f 221/263/153 205/264/154 203/260/150 219/259/149
f 216/265/155 200/266/156 202/262/152 218/261/151
f 227/220/116 195/219/115 205/264/154 221/263/153
f 214/232/128 198/231/127 200/266/156 216/265/155
f 175/267/157 214/232/128 216/265/155 177/268/158
f 170/235/131 227/220/116 221/263/153 169/239/135
f 177/268/158 216/265/155 218/261/151 179/269/159
f 169/239/135 221/263/153 219/259/149 187/202/98
f 179/269/159 218/261/151 220/255/147 181/270/160
f 187/202/98 219/259/149 217/253/145 188/203/99
f 181/270/160 220/255/147 222/258/93 183/25/161
f 188/203/99 217/253/145 215/251/143 189/213/109
f 185/271/162 224/200/96 239/209/105 171/272/163
f 189/213/109 215/251/143 213/247/141 190/221/117
f 196/211/107 228/240/136 230/201/97 198/231/127
f 190/221/117 213/247/141 210/250/121 191/227/123
f 194/226/122 226/246/138 225/244/139 193/218/114
f 193/218/114 225/244/139 211/205/101 195/219/115
f 197/248/142 229/238/134 226/243/138 194/249/122
f 206/198/94 238/241/124 240/233/129 208/199/95
f 207/210/106 223/236/132 228/240/136 196/211/107
f 199/252/144 231/230/126 229/238/134 197/248/142
f 208/199/95 240/233/129 223/236/132 207/210/106
f 173/273/164 212/212/108 214/232/128 175/267/157
f 201/254/146 233/224/120 231/230/126 199/252/144
f 204/256/148 236/222/118 238/228/124 206/257/94
f 191/242/123 210/225/121 209/217/113 192/234/130
f 203/260/150 235/216/112 233/224/120 201/254/146
f 202/262/152 234/214/110 236/222/118 204/256/148
f 192/234/130 209/217/113 227/220/116 170/235/131
f 205/264/154 237/208/104 235/216/112 203/260/150
f 200/266/156 232/204/100 234/214/110 202/262/152
f 171/272/163 239/209/105 212/212/108 173/273/164
f 195/219/115 211/205/101 237/208/104 205/264/154
f 198/231/127 230/201/97 232/204/100 200/266/156
f 183/89/161 222/197/93 224/200/96 185/271/162
