v 0.125 -0.5 0.063
v 0.188 -0.5 0.438
v -0.187 -0.5 0.438
v -0.125 -0.5 0.063
v 0.125 -0.125 0.063
v 0.188 -0.125 0.438
v -0.187 -0.125 0.438
v -0.125 -0.125 0.063
v 0.188 -0.5 0.125
v -0.187 -0.5 0.125
v 0.188 -0.125 0.125
v -0.187 -0.125 0.125
v 0 -0.5 0.096
v 0 -0.125 0.096
vt 0.563 0.625
vt 0.563 0.313
vt 0.938 0.313
vt 0.938 0.625
vt 0.938 0.688
vt 0.563 0.688
vt 0.688 0.125
vt 0.688 0.5
vt 0.625 0.5
vt 0.625 0.125
vt 0.375 0.5
vt 0.375 0.125
vt 0.312 0.5
vt 0.312 0.125
vt 0.625 0.562
vt 0.5 0.529
vt 0.625 0.063
vt 0.5 0.096
vt 0.375 0.562
vt 0.375 0.063
vn 0 -1 0
vn 0 1 0
vn 1 0 0
vn 0 0 1
vn -1 0 0
vn -0.707 0 -0.707
vn 0 0 -1
vn 0.707 0 -0.707
g 1
s off
f 9/1/1 2/2/1 3/3/1 10/4/1
f 11/4/2 12/1/2 7/2/2 6/3/2
f 9/4/3 11/1/3 6/2/3 2/3/3
f 2/2/4 6/3/4 7/5/4 3/6/4
f 3/2/5 7/3/5 12/4/5 10/1/5
g 2
f 10/7/6 12/8/6 8/9/6 4/10/6
f 5/11/7 1/12/7 4/10/7 8/9/7
f 1/12/8 5/11/8 11/13/8 9/14/8
f 11/8/2 5/15/2 14/16/2
f 12/13/2 11/8/2 14/16/2
f 1/17/1 9/7/1 13/18/1
f 8/19/2 12/13/2 14/16/2
f 10/14/1 4/20/1 13/18/1
f 9/7/1 10/14/1 13/18/1
f 4/20/1 1/17/1 13/18/1
f 5/15/2 8/19/2 14/16/2
