# Blender v2.83.5 OBJ File: 'homedecor table with legs.blend'
# www.blender.org
o Cube_Cube.001
v -0.500000 -0.500000 0.500000
v 0.500000 -0.500000 -0.500000
v 0.500000 0.500000 0.500000
v 0.500000 0.500000 -0.500000
v -0.500000 0.437500 -0.500000
v -0.353553 -0.500000 0.353554
v -0.353553 0.437515 0.353554
v 0.353553 -0.500000 -0.353553
v 0.353553 0.437515 -0.353553
v 0.500000 -0.500000 0.500000
v 0.500000 -0.437500 -0.500000
v 0.500000 -0.437500 0.500000
v -0.500000 -0.437500 -0.500000
v -0.500000 -0.500000 -0.500000
v -0.500000 -0.437500 0.500000
v 0.500000 0.437500 -0.500000
v 0.500000 0.437500 0.500000
v -0.500000 0.500000 -0.500000
v -0.500000 0.437500 0.500000
v -0.500000 0.500000 0.500000
v 0.353553 -0.500000 0.353554
v 0.353553 0.437515 0.353554
v -0.353553 -0.500000 -0.353553
v -0.353553 0.437515 -0.353553
vt -0.000000 -0.000000
vt 1.000000 -0.000000
vt 1.000000 0.500000
vt -0.000000 0.500000
vt 1.000000 1.000000
vt -0.000000 1.000000
vt -0.000000 0.500000
vt 1.000000 0.500000
vt -0.000000 1.000000
vt -0.000000 0.937500
vt 1.000000 0.937500
vt -0.000000 0.937500
vt 1.000000 0.937500
vt 1.000000 1.000000
vt 1.000000 1.000000
vt -0.000000 1.000000
vt -0.000000 0.937500
vt 1.000000 0.937500
vt 1.000000 1.000000
vt -0.000000 1.000000
vt -0.000000 0.937500
vt 1.000000 0.937500
vt -0.000000 0.500000
vt 1.000000 0.500000
vt 1.000000 1.000000
vt -0.000000 1.000000
vt 1.000000 -0.000000
vt 1.000000 0.500000
vt 0.000000 0.500000
vt 0.000000 -0.000000
vt -0.000000 1.000000
vt -0.000000 0.937500
vt 1.000000 0.937500
vt 1.000000 1.000000
vt -0.000000 1.000000
vt -0.000000 0.937500
vt 1.000000 0.937500
vt 1.000000 0.937500
vt 1.000000 1.000000
vt -0.000000 0.937500
vt -0.000000 1.000000
vt -0.000000 0.937500
vt 1.000000 0.937500
vt 1.000000 1.000000
vt -0.000000 0.000000
vt 1.000000 -0.000000
vt 1.000000 1.000000
vt 0.000000 1.000000
vt -0.000000 0.000000
vt 1.000000 -0.000000
vt 1.000000 1.000000
vt 0.000000 1.000000
vn 0.0000 -1.0000 0.0000
vn 0.0000 1.0000 0.0000
vn 1.0000 0.0000 0.0000
vn -1.0000 0.0000 0.0000
vn 0.0000 0.0000 1.0000
vn 0.0000 0.0000 -1.0000
vn 0.7071 0.0000 -0.7071
vn 0.7071 0.0000 0.7071
g Cube_Cube.001_top-bottom
s off
f 14/1/1 2/2/1 10/3/1 1/4/1
f 11/5/2 13/6/2 15/7/2 12/8/2
g Cube_Cube.001_edges
f 11/5/3 12/9/3 10/10/3 2/11/3
f 13/6/4 14/12/4 1/13/4 15/14/4
f 12/15/5 15/16/5 1/17/5 10/18/5
f 13/19/6 11/20/6 2/21/6 14/22/6
g Cube_Cube.001_top-bot_with_legs
f 20/23/2 3/24/2 4/25/2 18/26/2
f 16/27/1 17/28/1 19/29/1 5/30/1
g Cube_Cube.001_edges_with_legs
f 20/31/5 19/32/5 17/33/5 3/34/5
f 4/25/3 3/35/3 17/36/3 16/37/3
f 19/38/4 20/39/4 18/26/4 5/40/4
f 4/41/6 16/42/6 5/43/6 18/44/6
g Cube_Cube.001_legs
f 21/45/7 23/46/7 24/47/7 22/48/7
f 6/49/8 8/50/8 9/51/8 7/52/8
