# Blender v2.83.5 OBJ File: 'homedecor small square table with legs.blend'
# www.blender.org
o Cube_Cube.001
v -0.500000 -0.500000 0.500000
v 0.500000 -0.500000 -0.500000
v -0.500000 0.437500 -0.500000
v -0.353553 -0.500000 0.353554
v -0.353553 0.437515 0.353554
v 0.353553 -0.500000 -0.353553
v 0.353553 0.437515 -0.353553
v 0.500000 -0.500000 0.500000
v -0.500000 -0.500000 -0.500000
v 0.500000 0.437500 -0.500000
v 0.500000 0.437500 0.500000
v -0.500000 0.437500 0.500000
v 0.353553 -0.500000 0.353554
v 0.353553 0.437515 0.353554
v -0.353553 -0.500000 -0.353553
v -0.353553 0.437515 -0.353553
v 0.468750 0.500000 0.468750
v 0.500000 0.468750 0.500000
v 0.500000 0.468750 -0.500000
v 0.468750 0.500000 -0.468750
v 0.500000 -0.468750 -0.500000
v 0.468750 -0.437500 -0.468750
v 0.500000 -0.468750 0.500000
v 0.468750 -0.437500 0.468750
v -0.500000 -0.468750 -0.500000
v -0.468750 -0.437500 -0.468750
v -0.468750 -0.437500 0.468750
v -0.500000 -0.468750 0.500000
v -0.468750 0.500000 -0.468750
v -0.500000 0.468750 -0.500000
v -0.468750 0.500000 0.468750
v -0.500000 0.468750 0.500000
vt -0.000000 -0.000000
vt 1.000000 -0.000000
vt 1.000000 0.500000
vt -0.000000 0.500000
vt 0.968750 0.984375
vt 0.031250 0.984375
vt 0.031250 0.515625
vt 0.968750 0.515625
vt 0.000000 0.500000
vt 1.000000 0.500000
vt 1.000000 1.000000
vt 0.000000 1.000000
vt 1.000000 0.968750
vt 0.000000 0.968750
vt 0.000000 0.937500
vt 1.000000 0.937500
vt 1.000000 0.968750
vt 0.000000 0.968750
vt 0.000000 0.937500
vt 1.000000 0.937500
vt 0.000000 0.968750
vt 0.000000 0.937500
vt 1.000000 0.937500
vt 1.000000 0.968750
vt 1.000000 0.968750
vt 0.000000 0.968750
vt 0.000000 0.937500
vt 1.000000 0.937500
vt 1.000000 -0.000000
vt 1.000000 0.500000
vt 0.000000 0.500000
vt 0.000000 -0.000000
vt 0.031250 0.515625
vt 0.968750 0.515625
vt 0.968750 0.984375
vt 0.031250 0.984375
vt 0.000000 1.000000
vt 0.000000 0.500000
vt 1.000000 0.500000
vt 1.000000 1.000000
vt 0.000000 0.968750
vt 0.000000 0.937500
vt 1.000000 0.937500
vt 1.000000 0.968750
vt 0.000000 0.968750
vt 0.000000 0.937500
vt 1.000000 0.937500
vt 1.000000 0.968750
vt 1.000000 0.937500
vt 1.000000 0.968750
vt 0.000000 0.968750
vt 0.000000 0.937500
vt 1.000000 0.968750
vt 0.000000 0.968750
vt 0.000000 0.937500
vt 1.000000 0.937500
vt -0.000000 0.000000
vt 1.000000 -0.000000
vt 1.000000 1.000000
vt 0.000000 1.000000
vt -0.000000 0.000000
vt 1.000000 -0.000000
vt 1.000000 1.000000
vt 0.000000 1.000000
vn 0.0000 -1.0000 0.0000
vn 0.0000 1.0000 0.0000
vn 0.0000 0.7071 0.7071
vn 0.7071 0.7071 0.0000
vn 0.0000 0.7071 -0.7071
vn -0.7071 0.7071 0.0000
vn 0.0000 0.0000 1.0000
vn 0.0000 0.0000 -1.0000
vn -1.0000 0.0000 0.0000
vn 1.0000 0.0000 0.0000
vn 0.7071 0.0000 -0.7071
vn 0.7071 0.0000 0.7071
g Cube_Cube.001_top-bottom
s off
f 9/1/1 2/2/1 8/3/1 1/4/1
f 22/5/2 26/6/2 27/7/2 24/8/2
f 24/8/3 27/7/3 28/9/3 23/10/3
f 22/5/4 24/8/4 23/10/4 21/11/4
f 26/6/5 22/5/5 21/11/5 25/12/5
f 27/7/6 26/6/6 25/12/6 28/9/6
g Cube_Cube.001_edges
f 23/13/7 28/14/7 1/15/7 8/16/7
f 25/17/8 21/18/8 2/19/8 9/20/8
f 25/21/9 9/22/9 1/23/9 28/24/9
f 21/25/10 23/26/10 8/27/10 2/28/10
g Cube_Cube.001_top-bot_with_legs
f 10/29/1 11/30/1 12/31/1 3/32/1
f 31/33/2 17/34/2 20/35/2 29/36/2
f 31/33/6 29/36/6 30/37/6 32/38/6
f 20/35/4 17/34/4 18/39/4 19/40/4
f 17/34/3 31/33/3 32/38/3 18/39/3
f 29/36/5 20/35/5 19/40/5 30/37/5
g Cube_Cube.001_edges_with_legs
f 32/41/7 12/42/7 11/43/7 18/44/7
f 19/45/8 10/46/8 3/47/8 30/48/8
f 12/49/9 32/50/9 30/51/9 3/52/9
f 19/53/10 18/54/10 11/55/10 10/56/10
g Cube_Cube.001_legs
f 13/57/11 15/58/11 16/59/11 14/60/11
f 4/61/12 6/62/12 7/63/12 5/64/12
