v 0.499 1.5 -0.375
v -0.5 1.5 -0.375
v 0.499 -0.499 -0.375
v -0.5 -0.499 -0.375
v -0.5 1.5 -0.5
v 0.499 1.5 -0.5
v -0.5 -0.499 -0.5
v 0.499 -0.499 -0.5
v -0.5 -0.375 -0.375
v 0.499 1.312 -0.375
v 0.499 -0.375 -0.5
v -0.5 1.312 -0.5
v 0.187 0.438 -0.375
v -0.188 0.438 -0.375
v -0.188 1.312 -0.375
v -0.188 0.438 -0.5
v 0.187 0.438 -0.5
v 0.187 1.312 -0.5
v -0.188 1.312 -0.5
v 0.187 1.312 -0.375
v -0.5 1.312 -0.375
v 0.499 -0.375 -0.375
v 0.499 1.312 -0.5
v -0.5 -0.375 -0.5
v 0.187 -0.375 -0.375
v -0.188 -0.375 -0.375
v -0.188 -0.375 -0.5
v 0.187 -0.375 -0.5
v -0.188 0.438 -0.436
v 0.187 0.438 -0.436
v -0.188 1.313 -0.436
v 0.187 1.313 -0.436
v 0.187 0.438 -0.438
v -0.188 0.438 -0.438
v 0.187 1.313 -0.438
v -0.188 1.313 -0.438
vt 0.553 0.906
vt 0.711 0.906
vt 0.842 0.906
vt 0.842 1
vt 0.421 1
vt 0.421 0.906
vt 0.895 0.906
vt 0.895 1
vt 0.842 0.063
vt 0.842 0
vt 0.895 0
vt 0.895 0.063
vt 0.132 0.906
vt 0.289 0.906
vt 0.421 0.906
vt 0.421 1
vt 0 1
vt 0 0.906
vt 0.947 0.5
vt 0.947 0
vt 1 0
vt 1 0.5
vt 0.947 1
vt 0.947 0.5
vt 1 0.5
vt 1 1
vt 0.421 0.063
vt 0.289 0.469
vt 0.289 0.063
vt 0.711 0.469
vt 0.711 0.063
vt 0.895 0.063
vt 0.895 0
vt 0.947 0
vt 0.947 0.063
vt 0.947 0.906
vt 0.947 1
vt 0.895 1
vt 0.895 0.906
vt 0.553 0.063
vt 0.553 0.469
vt 0.421 0.063
vt 0.132 0.063
vt 0.132 0.469
vt 0 0.063
vt 0 0
vt 0.421 0
vt 0.421 0
vt 1 0.344
vt 0.947 0.344
vt 0.947 0.156
vt 1 0.156
vt 1 0.844
vt 0.947 0.844
vt 0.947 0.656
vt 1 0.656
vt 0.553 0.469
vt 0.711 0.469
vt 0.711 0.906
vt 0.553 0.906
vt 0.132 0.469
vt 0.289 0.469
vt 0.289 0.906
vt 0.132 0.906
vt 0.895 0.906
vt 0.895 0.469
vt 0.947 0.469
vt 0.947 0.906
vt 0.895 0.469
vt 0.895 0.906
vt 0.842 0.906
vt 0.842 0.469
vn 0 0 1
vn 1 0 0
vn 0 0 -1
vn 0 1 0
vn 0 -1 0
vn -1 0 0
s off
f 15/1/1 20/2/1 10/3/1 1/4/1 2/5/1 21/6/1
f 23/7/2 6/8/2 1/4/2 10/3/2 22/9/2 3/10/2 8/11/2 11/12/2
f 18/13/3 19/14/3 12/15/3 5/16/3 6/17/3 23/18/3
f 2/19/4 1/20/4 6/21/4 5/22/4
f 3/23/5 4/24/5 7/25/5 8/26/5
f 24/27/3 12/15/3 19/14/3 16/28/3 27/29/3
f 22/9/1 10/3/1 20/2/1 13/30/1 25/31/1
f 24/32/6 7/33/6 4/34/6 9/35/6 21/36/6 2/37/6 5/38/6 12/39/6
f 26/40/1 14/41/1 15/1/1 21/6/1 9/42/1
f 28/43/3 17/44/3 18/13/3 23/18/3 11/45/3
f 8/46/3 7/47/3 24/27/3 27/29/3 28/43/3 11/45/3
f 4/48/1 3/10/1 22/9/1 25/31/1 26/40/1 9/42/1
f 16/49/4 14/50/4 13/51/4 17/52/4
f 18/53/5 20/54/5 15/55/5 19/56/5
f 16/28/3 17/44/3 28/43/3 27/29/3
f 13/30/1 14/41/1 26/40/1 25/31/1
f 29/57/1 30/58/1 32/59/1 31/60/1
f 33/61/3 34/62/3 36/63/3 35/64/3
f 18/65/6 17/66/6 13/67/6 20/68/6
f 16/69/2 19/70/2 15/71/2 14/72/2
