v 0.5 1.5 -0.5
v -0.5 1.5 -0.5
v 0.5 -0.5 -0.5
v -0.5 -0.5 -0.5
v -0.5 1.5 -0.375
v 0.5 1.5 -0.375
v -0.5 -0.5 -0.375
v 0.5 -0.5 -0.375
v -0.5 -0.375 -0.5
v 0.5 1.375 -0.5
v 0.5 -0.375 -0.375
v -0.5 1.375 -0.375
v 0.375 0.438 -0.5
v -0.375 0.438 -0.5
v -0.375 1.375 -0.5
v -0.375 0.438 -0.375
v 0.375 0.438 -0.375
v 0.375 1.375 -0.375
v -0.375 1.375 -0.375
v 0.375 1.375 -0.5
v -0.5 1.375 -0.5
v 0.5 -0.375 -0.5
v 0.5 1.375 -0.375
v -0.5 -0.375 -0.375
v 0.375 -0.375 -0.5
v -0.375 -0.375 -0.5
v -0.375 0.563 -0.5
v -0.375 -0.375 -0.375
v 0.375 -0.375 -0.375
v 0.375 0.563 -0.375
v -0.375 0.563 -0.375
v 0.375 0.563 -0.5
v 0.375 1.366 -0.454
v 0.375 1.36 -0.46
v -0.375 1.36 -0.46
v -0.375 1.366 -0.454
v 0.375 1.327 -0.415
v 0.375 1.322 -0.421
v -0.375 1.322 -0.421
v -0.375 1.327 -0.415
v 0.375 1.303 -0.454
v 0.375 1.298 -0.46
v -0.375 1.298 -0.46
v -0.375 1.303 -0.454
v 0.375 1.265 -0.415
v 0.375 1.259 -0.421
v -0.375 1.259 -0.421
v -0.375 1.265 -0.415
v 0.375 1.241 -0.454
v 0.375 1.235 -0.46
v -0.375 1.235 -0.46
v -0.375 1.241 -0.454
v 0.375 1.202 -0.415
v 0.375 1.197 -0.421
v -0.375 1.197 -0.421
v -0.375 1.202 -0.415
v 0.375 1.178 -0.454
v 0.375 1.173 -0.46
v -0.375 1.173 -0.46
v -0.375 1.178 -0.454
v 0.375 1.14 -0.415
v 0.375 1.134 -0.421
v -0.375 1.134 -0.421
v -0.375 1.14 -0.415
v 0.375 1.116 -0.454
v 0.375 1.11 -0.46
v -0.375 1.11 -0.46
v -0.375 1.116 -0.454
v 0.375 1.077 -0.415
v 0.375 1.072 -0.421
v -0.375 1.072 -0.421
v -0.375 1.077 -0.415
v 0.375 1.053 -0.454
v 0.375 1.048 -0.46
v -0.375 1.048 -0.46
v -0.375 1.053 -0.454
v 0.375 1.015 -0.415
v 0.375 1.009 -0.421
v -0.375 1.009 -0.421
v -0.375 1.015 -0.415
v 0.375 0.928 -0.454
v 0.375 0.923 -0.46
v -0.375 0.923 -0.46
v -0.375 0.928 -0.454
v 0.375 0.89 -0.415
v 0.375 0.884 -0.421
v -0.375 0.884 -0.421
v -0.375 0.89 -0.415
v 0.375 0.991 -0.454
v 0.375 0.985 -0.46
v -0.375 0.985 -0.46
v -0.375 0.991 -0.454
v 0.375 0.952 -0.415
v 0.375 0.947 -0.421
v -0.375 0.947 -0.421
v -0.375 0.952 -0.415
v 0.375 0.866 -0.454
v 0.375 0.86 -0.46
v -0.375 0.86 -0.46
v -0.375 0.866 -0.454
v 0.375 0.827 -0.415
v 0.375 0.822 -0.421
v -0.375 0.822 -0.421
v -0.375 0.827 -0.415
v 0.375 0.803 -0.454
v 0.375 0.798 -0.46
v -0.375 0.798 -0.46
v -0.375 0.803 -0.454
v 0.375 0.765 -0.415
v 0.375 0.759 -0.421
v -0.375 0.759 -0.421
v -0.375 0.765 -0.415
v 0.375 0.741 -0.454
v 0.375 0.735 -0.46
v -0.375 0.735 -0.46
v -0.375 0.741 -0.454
v 0.375 0.702 -0.415
v 0.375 0.697 -0.421
v -0.375 0.697 -0.421
v -0.375 0.702 -0.415
v 0.375 0.678 -0.454
v 0.375 0.673 -0.46
v -0.375 0.673 -0.46
v -0.375 0.678 -0.454
v 0.375 0.64 -0.415
v 0.375 0.634 -0.421
v -0.375 0.634 -0.421
v -0.375 0.64 -0.415
v 0.375 0.616 -0.454
v 0.375 0.61 -0.46
v -0.375 0.61 -0.46
v -0.375 0.616 -0.454
v 0.375 0.577 -0.415
v 0.375 0.572 -0.421
v -0.375 0.572 -0.421
v -0.375 0.577 -0.415
v 0.375 0.428 -0.454
v 0.375 0.423 -0.46
v -0.375 0.423 -0.46
v -0.375 0.428 -0.454
v 0.375 0.39 -0.415
v 0.375 0.384 -0.421
v -0.375 0.384 -0.421
v -0.375 0.39 -0.415
v 0.375 0.366 -0.454
v 0.375 0.36 -0.46
v -0.375 0.36 -0.46
v -0.375 0.366 -0.454
v 0.375 0.327 -0.415
v 0.375 0.322 -0.421
v -0.375 0.322 -0.421
v -0.375 0.327 -0.415
v 0.375 0.303 -0.454
v 0.375 0.298 -0.46
v -0.375 0.298 -0.46
v -0.375 0.303 -0.454
v 0.375 0.265 -0.415
v 0.375 0.259 -0.421
v -0.375 0.259 -0.421
v -0.375 0.265 -0.415
v 0.375 0.241 -0.454
v 0.375 0.235 -0.46
v -0.375 0.235 -0.46
v -0.375 0.241 -0.454
v 0.375 0.202 -0.415
v 0.375 0.197 -0.421
v -0.375 0.197 -0.421
v -0.375 0.202 -0.415
v 0.375 0.178 -0.454
v 0.375 0.173 -0.46
v -0.375 0.173 -0.46
v -0.375 0.178 -0.454
v 0.375 0.14 -0.415
v 0.375 0.134 -0.421
v -0.375 0.134 -0.421
v -0.375 0.14 -0.415
v 0.375 0.116 -0.454
v 0.375 0.11 -0.46
v -0.375 0.11 -0.46
v -0.375 0.116 -0.454
v 0.375 0.077 -0.415
v 0.375 0.072 -0.421
v -0.375 0.072 -0.421
v -0.375 0.077 -0.415
v 0.375 -0.009 -0.454
v 0.375 -0.015 -0.46
v -0.375 -0.015 -0.46
v -0.375 -0.009 -0.454
v 0.375 -0.048 -0.415
v 0.375 -0.053 -0.421
v -0.375 -0.053 -0.421
v -0.375 -0.048 -0.415
v 0.375 0.053 -0.454
v 0.375 0.048 -0.46
v -0.375 0.048 -0.46
v -0.375 0.053 -0.454
v 0.375 0.015 -0.415
v 0.375 0.009 -0.421
v -0.375 0.009 -0.421
v -0.375 0.015 -0.415
v 0.375 -0.072 -0.454
v 0.375 -0.077 -0.46
v -0.375 -0.077 -0.46
v -0.375 -0.072 -0.454
v 0.375 -0.11 -0.415
v 0.375 -0.116 -0.421
v -0.375 -0.116 -0.421
v -0.375 -0.11 -0.415
v 0.375 -0.134 -0.454
v 0.375 -0.14 -0.46
v -0.375 -0.14 -0.46
v -0.375 -0.134 -0.454
v 0.375 -0.173 -0.415
v 0.375 -0.178 -0.421
v -0.375 -0.178 -0.421
v -0.375 -0.173 -0.415
v 0.375 -0.197 -0.454
v 0.375 -0.202 -0.46
v -0.375 -0.202 -0.46
v -0.375 -0.197 -0.454
v 0.375 -0.235 -0.415
v 0.375 -0.241 -0.421
v -0.375 -0.241 -0.421
v -0.375 -0.235 -0.415
v 0.375 -0.259 -0.454
v 0.375 -0.265 -0.46
v -0.375 -0.265 -0.46
v -0.375 -0.259 -0.454
v 0.375 -0.298 -0.415
v 0.375 -0.303 -0.421
v -0.375 -0.303 -0.421
v -0.375 -0.298 -0.415
v 0.375 -0.322 -0.454
v 0.375 -0.327 -0.46
v -0.375 -0.327 -0.46
v -0.375 -0.322 -0.454
v 0.375 -0.36 -0.415
v 0.375 -0.366 -0.421
v -0.375 -0.366 -0.421
v -0.375 -0.36 -0.415
vt 0.474 0.938
vt 0.421 0.938
vt 0.421 1
vt 0.842 1
vt 0.842 0.938
vt 0.789 0.938
vt 0.368 0.469
vt 0.053 0.469
vt 0.053 0.531
vt 0.368 0.531
vt 0.895 0.938
vt 0.895 0.063
vt 0.895 0
vt 0.842 0
vt 0.842 0.063
vt 0.895 1
vt 0.053 0.938
vt 0 0.938
vt 0 1
vt 0.421 1
vt 0.421 0.938
vt 0.368 0.938
vt 0.947 0.5
vt 1 0.5
vt 1 0
vt 0.947 0
vt 0.947 1
vt 1 1
vt 1 0.5
vt 0.947 0.5
vt 0.789 0.469
vt 0.474 0.469
vt 0.474 0.531
vt 0.789 0.531
vt 0.421 0.063
vt 0.368 0.063
vt 0.789 0.063
vt 0.895 0.063
vt 0.895 0.938
vt 0.895 1
vt 0.947 1
vt 0.947 0.938
vt 0.947 0.063
vt 0.947 0
vt 0.895 0
vt 0.474 0.063
vt 0.421 0.063
vt 0.053 0.063
vt 0 0.063
vt 0 0
vt 0.421 0
vt 0.421 0
vt 0.053 0.922
vt 0.368 0.922
vt 0.368 0.906
vt 0.053 0.906
vt 0.474 0.922
vt 0.789 0.922
vt 0.789 0.906
vt 0.474 0.906
vt 0.842 0.938
vt 0.895 0.938
vt 0.895 0.531
vt 0.842 0.531
vt 1 0.063
vt 0.947 0.063
vt 0.947 0.438
vt 1 0.438
vt 0.895 0.938
vt 0.947 0.938
vt 0.947 0.531
vt 0.895 0.531
vt 1 0.938
vt 1 0.563
vt 0.947 0.563
vt 0.842 0.469
vt 0.895 0.469
vt 0.895 0.063
vt 0.842 0.063
vt 1 0.063
vt 0.947 0.063
vt 0.947 0.438
vt 1 0.438
vt 0.947 0.469
vt 0.895 0.063
vt 0.895 0.469
vt 1 0.938
vt 1 0.563
vt 0.947 0.563
vt 0.947 0.938
vt 0.987 0.563
vt 0.974 0.563
vt 0.974 0.938
vt 0.987 0.938
vt 0.974 0.063
vt 0.961 0.063
vt 0.961 0.438
vt 0.974 0.438
vt 0.053 0.891
vt 0.368 0.891
vt 0.368 0.875
vt 0.053 0.875
vt 0.474 0.891
vt 0.789 0.891
vt 0.789 0.875
vt 0.474 0.875
vt 0.987 0.563
vt 0.974 0.563
vt 0.974 0.938
vt 0.987 0.938
vt 0.974 0.063
vt 0.961 0.063
vt 0.961 0.438
vt 0.974 0.438
vt 0.053 0.859
vt 0.368 0.859
vt 0.368 0.844
vt 0.053 0.844
vt 0.474 0.859
vt 0.789 0.859
vt 0.789 0.844
vt 0.474 0.844
vt 0.987 0.563
vt 0.974 0.563
vt 0.974 0.938
vt 0.987 0.938
vt 0.974 0.063
vt 0.961 0.063
vt 0.961 0.438
vt 0.974 0.438
vt 0.053 0.828
vt 0.368 0.828
vt 0.368 0.813
vt 0.053 0.813
vt 0.474 0.828
vt 0.789 0.828
vt 0.789 0.813
vt 0.474 0.813
vt 0.987 0.563
vt 0.974 0.563
vt 0.974 0.938
vt 0.987 0.938
vt 0.974 0.063
vt 0.961 0.063
vt 0.961 0.438
vt 0.974 0.438
vt 0.053 0.797
vt 0.368 0.797
vt 0.368 0.781
vt 0.053 0.781
vt 0.474 0.797
vt 0.789 0.797
vt 0.789 0.781
vt 0.474 0.781
vt 0.987 0.563
vt 0.974 0.563
vt 0.974 0.938
vt 0.987 0.938
vt 0.974 0.063
vt 0.961 0.063
vt 0.961 0.438
vt 0.974 0.438
vt 0.053 0.766
vt 0.368 0.766
vt 0.368 0.75
vt 0.053 0.75
vt 0.474 0.766
vt 0.789 0.766
vt 0.789 0.75
vt 0.474 0.75
vt 0.987 0.563
vt 0.974 0.563
vt 0.974 0.938
vt 0.987 0.938
vt 0.974 0.063
vt 0.961 0.063
vt 0.961 0.438
vt 0.974 0.438
vt 0.053 0.703
vt 0.368 0.703
vt 0.368 0.688
vt 0.053 0.688
vt 0.474 0.703
vt 0.789 0.703
vt 0.789 0.688
vt 0.474 0.688
vt 0.987 0.563
vt 0.974 0.563
vt 0.974 0.938
vt 0.987 0.938
vt 0.974 0.063
vt 0.961 0.063
vt 0.961 0.438
vt 0.974 0.438
vt 0.053 0.734
vt 0.368 0.734
vt 0.368 0.719
vt 0.053 0.719
vt 0.474 0.734
vt 0.789 0.734
vt 0.789 0.719
vt 0.474 0.719
vt 0.987 0.563
vt 0.974 0.563
vt 0.974 0.938
vt 0.987 0.938
vt 0.974 0.063
vt 0.961 0.063
vt 0.961 0.438
vt 0.974 0.438
vt 0.053 0.672
vt 0.368 0.672
vt 0.368 0.656
vt 0.053 0.656
vt 0.474 0.672
vt 0.789 0.672
vt 0.789 0.656
vt 0.474 0.656
vt 0.987 0.563
vt 0.974 0.563
vt 0.974 0.938
vt 0.987 0.938
vt 0.974 0.063
vt 0.961 0.063
vt 0.961 0.438
vt 0.974 0.438
vt 0.053 0.641
vt 0.368 0.641
vt 0.368 0.625
vt 0.053 0.625
vt 0.474 0.641
vt 0.789 0.641
vt 0.789 0.625
vt 0.474 0.625
vt 0.987 0.563
vt 0.974 0.563
vt 0.974 0.938
vt 0.987 0.938
vt 0.974 0.063
vt 0.961 0.063
vt 0.961 0.438
vt 0.974 0.438
vt 0.053 0.609
vt 0.368 0.609
vt 0.368 0.594
vt 0.053 0.594
vt 0.474 0.609
vt 0.789 0.609
vt 0.789 0.594
vt 0.474 0.594
vt 0.987 0.563
vt 0.974 0.563
vt 0.974 0.938
vt 0.987 0.938
vt 0.974 0.063
vt 0.961 0.063
vt 0.961 0.438
vt 0.974 0.438
vt 0.053 0.578
vt 0.368 0.578
vt 0.368 0.563
vt 0.053 0.563
vt 0.474 0.578
vt 0.789 0.578
vt 0.789 0.563
vt 0.474 0.563
vt 0.987 0.563
vt 0.974 0.563
vt 0.974 0.938
vt 0.987 0.938
vt 0.974 0.063
vt 0.961 0.063
vt 0.961 0.438
vt 0.974 0.438
vt 0.053 0.547
vt 0.368 0.547
vt 0.368 0.531
vt 0.053 0.531
vt 0.474 0.547
vt 0.789 0.547
vt 0.789 0.531
vt 0.474 0.531
vt 0.987 0.563
vt 0.974 0.563
vt 0.974 0.938
vt 0.987 0.938
vt 0.974 0.063
vt 0.961 0.063
vt 0.961 0.438
vt 0.974 0.438
vt 0.053 0.469
vt 0.368 0.469
vt 0.368 0.453
vt 0.053 0.453
vt 0.474 0.469
vt 0.789 0.469
vt 0.789 0.453
vt 0.474 0.453
vt 0.987 0.563
vt 0.974 0.563
vt 0.974 0.938
vt 0.987 0.938
vt 0.974 0.063
vt 0.961 0.063
vt 0.961 0.438
vt 0.974 0.438
vt 0.053 0.438
vt 0.368 0.438
vt 0.368 0.422
vt 0.053 0.422
vt 0.474 0.438
vt 0.789 0.438
vt 0.789 0.422
vt 0.474 0.422
vt 0.987 0.563
vt 0.974 0.563
vt 0.974 0.938
vt 0.987 0.938
vt 0.974 0.063
vt 0.961 0.063
vt 0.961 0.438
vt 0.974 0.438
vt 0.053 0.406
vt 0.368 0.406
vt 0.368 0.391
vt 0.053 0.391
vt 0.474 0.406
vt 0.789 0.406
vt 0.789 0.391
vt 0.474 0.391
vt 0.987 0.563
vt 0.974 0.563
vt 0.974 0.938
vt 0.987 0.938
vt 0.974 0.063
vt 0.961 0.063
vt 0.961 0.438
vt 0.974 0.438
vt 0.053 0.375
vt 0.368 0.375
vt 0.368 0.359
vt 0.053 0.359
vt 0.474 0.375
vt 0.789 0.375
vt 0.789 0.359
vt 0.474 0.359
vt 0.987 0.563
vt 0.974 0.563
vt 0.974 0.938
vt 0.987 0.938
vt 0.974 0.063
vt 0.961 0.063
vt 0.961 0.438
vt 0.974 0.438
vt 0.053 0.344
vt 0.368 0.344
vt 0.368 0.328
vt 0.053 0.328
vt 0.474 0.344
vt 0.789 0.344
vt 0.789 0.328
vt 0.474 0.328
vt 0.987 0.563
vt 0.974 0.563
vt 0.974 0.938
vt 0.987 0.938
vt 0.974 0.063
vt 0.961 0.063
vt 0.961 0.438
vt 0.974 0.438
vt 0.053 0.313
vt 0.368 0.313
vt 0.368 0.297
vt 0.053 0.297
vt 0.474 0.313
vt 0.789 0.313
vt 0.789 0.297
vt 0.474 0.297
vt 0.987 0.563
vt 0.974 0.563
vt 0.974 0.938
vt 0.987 0.938
vt 0.974 0.063
vt 0.961 0.063
vt 0.961 0.438
vt 0.974 0.438
vt 0.053 0.25
vt 0.368 0.25
vt 0.368 0.234
vt 0.053 0.234
vt 0.474 0.25
vt 0.789 0.25
vt 0.789 0.234
vt 0.474 0.234
vt 0.987 0.563
vt 0.974 0.563
vt 0.974 0.938
vt 0.987 0.938
vt 0.974 0.063
vt 0.961 0.063
vt 0.961 0.438
vt 0.974 0.438
vt 0.053 0.281
vt 0.368 0.281
vt 0.368 0.266
vt 0.053 0.266
vt 0.474 0.281
vt 0.789 0.281
vt 0.789 0.266
vt 0.474 0.266
vt 0.987 0.563
vt 0.974 0.563
vt 0.974 0.938
vt 0.987 0.938
vt 0.974 0.063
vt 0.961 0.063
vt 0.961 0.438
vt 0.974 0.438
vt 0.053 0.219
vt 0.368 0.219
vt 0.368 0.203
vt 0.053 0.203
vt 0.474 0.219
vt 0.789 0.219
vt 0.789 0.203
vt 0.474 0.203
vt 0.987 0.563
vt 0.974 0.563
vt 0.974 0.938
vt 0.987 0.938
vt 0.974 0.063
vt 0.961 0.063
vt 0.961 0.438
vt 0.974 0.438
vt 0.053 0.188
vt 0.368 0.188
vt 0.368 0.172
vt 0.053 0.172
vt 0.474 0.188
vt 0.789 0.188
vt 0.789 0.172
vt 0.474 0.172
vt 0.987 0.563
vt 0.974 0.563
vt 0.974 0.938
vt 0.987 0.938
vt 0.974 0.063
vt 0.961 0.063
vt 0.961 0.438
vt 0.974 0.438
vt 0.053 0.156
vt 0.368 0.156
vt 0.368 0.141
vt 0.053 0.141
vt 0.474 0.156
vt 0.789 0.156
vt 0.789 0.141
vt 0.474 0.141
vt 0.987 0.563
vt 0.974 0.563
vt 0.974 0.938
vt 0.987 0.938
vt 0.974 0.063
vt 0.961 0.063
vt 0.961 0.438
vt 0.974 0.438
vt 0.053 0.125
vt 0.368 0.125
vt 0.368 0.109
vt 0.053 0.109
vt 0.474 0.125
vt 0.789 0.125
vt 0.789 0.109
vt 0.474 0.109
vt 0.987 0.563
vt 0.974 0.563
vt 0.974 0.938
vt 0.987 0.938
vt 0.974 0.063
vt 0.961 0.063
vt 0.961 0.438
vt 0.974 0.438
vt 0.053 0.094
vt 0.368 0.094
vt 0.368 0.078
vt 0.053 0.078
vt 0.474 0.094
vt 0.789 0.094
vt 0.789 0.078
vt 0.474 0.078
vt 0.987 0.563
vt 0.974 0.563
vt 0.974 0.938
vt 0.987 0.938
vt 0.974 0.063
vt 0.961 0.063
vt 0.961 0.438
vt 0.974 0.438
vn 0 0 -1
vn 0 0 1
vn 1 0 0
vn 0 1 0
vn 0 -1 0
vn -1 0 0
vn 0 0.707 0.707
vn 0 -0.707 -0.707
vn 0 -0.707 0.707
vn 0 0.707 -0.707
s off
f 15/1/1 21/2/1 2/3/1 1/4/1 10/5/1 20/6/1
f 16/7/2 17/8/2 30/9/2 31/10/2
f 23/11/3 11/12/3 8/13/3 3/14/3 22/15/3 10/5/3 1/4/3 6/16/3
f 18/17/2 23/18/2 6/19/2 5/20/2 12/21/2 19/22/2
f 2/23/4 5/24/4 6/25/4 1/26/4
f 3/27/5 8/28/5 7/29/5 4/30/5
f 13/31/1 14/32/1 27/33/1 32/34/1
f 24/35/2 28/36/2 16/7/2 31/10/2 19/22/2 12/21/2
f 22/15/1 25/37/1 13/31/1 32/34/1 20/6/1 10/5/1
f 24/38/6 12/39/6 5/40/6 2/41/6 21/42/6 9/43/6 4/44/6 7/45/6
f 26/46/1 9/47/1 21/2/1 15/1/1 27/33/1 14/32/1
f 29/48/2 11/49/2 23/18/2 18/17/2 30/9/2 17/8/2
f 8/50/2 11/49/2 29/48/2 28/36/2 24/35/2 7/51/2
f 4/52/1 9/47/1 26/46/1 25/37/1 22/15/1 3/14/1
f 33/53/7 36/54/7 40/55/7 37/56/7
f 35/57/8 34/58/8 38/59/8 39/60/8
f 15/61/3 19/62/3 31/63/3 27/64/3
f 30/65/4 32/66/4 27/67/4 31/68/4
f 18/69/6 20/70/6 32/71/6 30/72/6
f 18/73/5 19/74/5 15/75/5 20/70/5
f 14/76/3 16/77/3 28/78/3 26/79/3
f 29/80/4 25/81/4 26/82/4 28/83/4
f 13/84/6 25/81/6 29/85/6 17/86/6
f 17/87/5 16/88/5 14/89/5 13/90/5
f 40/91/9 39/92/9 38/93/9 37/94/9
f 33/95/10 34/96/10 35/97/10 36/98/10
f 41/99/7 44/100/7 48/101/7 45/102/7
f 43/103/8 42/104/8 46/105/8 47/106/8
f 48/107/9 47/108/9 46/109/9 45/110/9
f 41/111/10 42/112/10 43/113/10 44/114/10
f 49/115/7 52/116/7 56/117/7 53/118/7
f 51/119/8 50/120/8 54/121/8 55/122/8
f 56/123/9 55/124/9 54/125/9 53/126/9
f 49/127/10 50/128/10 51/129/10 52/130/10
f 57/131/7 60/132/7 64/133/7 61/134/7
f 59/135/8 58/136/8 62/137/8 63/138/8
f 64/139/9 63/140/9 62/141/9 61/142/9
f 57/143/10 58/144/10 59/145/10 60/146/10
f 65/147/7 68/148/7 72/149/7 69/150/7
f 67/151/8 66/152/8 70/153/8 71/154/8
f 72/155/9 71/156/9 70/157/9 69/158/9
f 65/159/10 66/160/10 67/161/10 68/162/10
f 73/163/7 76/164/7 80/165/7 77/166/7
f 75/167/8 74/168/8 78/169/8 79/170/8
f 80/171/9 79/172/9 78/173/9 77/174/9
f 73/175/10 74/176/10 75/177/10 76/178/10
f 81/179/7 84/180/7 88/181/7 85/182/7
f 83/183/8 82/184/8 86/185/8 87/186/8
f 88/187/9 87/188/9 86/189/9 85/190/9
f 81/191/10 82/192/10 83/193/10 84/194/10
f 89/195/7 92/196/7 96/197/7 93/198/7
f 91/199/8 90/200/8 94/201/8 95/202/8
f 96/203/9 95/204/9 94/205/9 93/206/9
f 89/207/10 90/208/10 91/209/10 92/210/10
f 97/211/7 100/212/7 104/213/7 101/214/7
f 99/215/8 98/216/8 102/217/8 103/218/8
f 104/219/9 103/220/9 102/221/9 101/222/9
f 97/223/10 98/224/10 99/225/10 100/226/10
f 105/227/7 108/228/7 112/229/7 109/230/7
f 107/231/8 106/232/8 110/233/8 111/234/8
f 112/235/9 111/236/9 110/237/9 109/238/9
f 105/239/10 106/240/10 107/241/10 108/242/10
f 113/243/7 116/244/7 120/245/7 117/246/7
f 115/247/8 114/248/8 118/249/8 119/250/8
f 120/251/9 119/252/9 118/253/9 117/254/9
f 113/255/10 114/256/10 115/257/10 116/258/10
f 121/259/7 124/260/7 128/261/7 125/262/7
f 123/263/8 122/264/8 126/265/8 127/266/8
f 128/267/9 127/268/9 126/269/9 125/270/9
f 121/271/10 122/272/10 123/273/10 124/274/10
f 129/275/7 132/276/7 136/277/7 133/278/7
f 131/279/8 130/280/8 134/281/8 135/282/8
f 136/283/9 135/284/9 134/285/9 133/286/9
f 129/287/10 130/288/10 131/289/10 132/290/10
f 137/291/7 140/292/7 144/293/7 141/294/7
f 139/295/8 138/296/8 142/297/8 143/298/8
f 144/299/9 143/300/9 142/301/9 141/302/9
f 137/303/10 138/304/10 139/305/10 140/306/10
f 145/307/7 148/308/7 152/309/7 149/310/7
f 147/311/8 146/312/8 150/313/8 151/314/8
f 152/315/9 151/316/9 150/317/9 149/318/9
f 145/319/10 146/320/10 147/321/10 148/322/10
f 153/323/7 156/324/7 160/325/7 157/326/7
f 155/327/8 154/328/8 158/329/8 159/330/8
f 160/331/9 159/332/9 158/333/9 157/334/9
f 153/335/10 154/336/10 155/337/10 156/338/10
f 161/339/7 164/340/7 168/341/7 165/342/7
f 163/343/8 162/344/8 166/345/8 167/346/8
f 168/347/9 167/348/9 166/349/9 165/350/9
f 161/351/10 162/352/10 163/353/10 164/354/10
f 169/355/7 172/356/7 176/357/7 173/358/7
f 171/359/8 170/360/8 174/361/8 175/362/8
f 176/363/9 175/364/9 174/365/9 173/366/9
f 169/367/10 170/368/10 171/369/10 172/370/10
f 177/371/7 180/372/7 184/373/7 181/374/7
f 179/375/8 178/376/8 182/377/8 183/378/8
f 184/379/9 183/380/9 182/381/9 181/382/9
f 177/383/10 178/384/10 179/385/10 180/386/10
f 185/387/7 188/388/7 192/389/7 189/390/7
f 187/391/8 186/392/8 190/393/8 191/394/8
f 192/395/9 191/396/9 190/397/9 189/398/9
f 185/399/10 186/400/10 187/401/10 188/402/10
f 193/403/7 196/404/7 200/405/7 197/406/7
f 195/407/8 194/408/8 198/409/8 199/410/8
f 200/411/9 199/412/9 198/413/9 197/414/9
f 193/415/10 194/416/10 195/417/10 196/418/10
f 201/419/7 204/420/7 208/421/7 205/422/7
f 203/423/8 202/424/8 206/425/8 207/426/8
f 208/427/9 207/428/9 206/429/9 205/430/9
f 201/431/10 202/432/10 203/433/10 204/434/10
f 209/435/7 212/436/7 216/437/7 213/438/7
f 211/439/8 210/440/8 214/441/8 215/442/8
f 216/443/9 215/444/9 214/445/9 213/446/9
f 209/447/10 210/448/10 211/449/10 212/450/10
f 217/451/7 220/452/7 224/453/7 221/454/7
f 219/455/8 218/456/8 222/457/8 223/458/8
f 224/459/9 223/460/9 222/461/9 221/462/9
f 217/463/10 218/464/10 219/465/10 220/466/10
f 225/467/7 228/468/7 232/469/7 229/470/7
f 227/471/8 226/472/8 230/473/8 231/474/8
f 232/475/9 231/476/9 230/477/9 229/478/9
f 225/479/10 226/480/10 227/481/10 228/482/10
f 233/483/7 236/484/7 240/485/7 237/486/7
f 235/487/8 234/488/8 238/489/8 239/490/8
f 240/491/9 239/492/9 238/493/9 237/494/9
f 233/495/10 234/496/10 235/497/10 236/498/10
