# Blender v2.76 (sub 0) OBJ File: 'meshnode_plant.blend'
# www.blender.org
mtllib meshnode_plant.mtl
o Cube
v -3.531999 5.000000 3.539069
v 3.539071 5.000000 -3.531997
v 3.531999 5.000000 -3.539069
v -3.539071 5.000000 3.531997
v -3.532001 -5.000000 3.539069
v 3.539071 -5.000000 -3.531996
v 3.531999 -5.000000 -3.539069
v -3.539070 -5.000000 3.531997
v -3.539068 -5.000000 -3.532000
v -3.531997 -5.000000 -3.539071
v 3.539068 -5.000000 3.532000
v 3.531995 -5.000000 3.539071
v -3.539069 5.000000 -3.531999
v -3.531997 5.000000 -3.539071
v 3.539069 5.000000 3.531999
v 3.531997 5.000000 3.539071
vt 1.000000 1.000000
vt 1.000000 0.000000
vt 0.000000 -0.000000
vt 0.000000 1.000000
vn 0.707100 -0.000000 0.707100
vn -0.707100 -0.000000 -0.707100
vn 0.707100 -0.000000 -0.707100
vn -0.707100 0.000000 0.707100
usemtl Material
s off
f 1/1/1 5/2/1 6/3/1 2/4/1
f 8/2/2 4/1/2 3/4/2 7/3/2
f 10/2/3 14/1/3 15/4/3 11/3/3
f 13/1/4 9/2/4 12/3/4 16/4/4
