# Blender v2.76 (sub 0) OBJ File: 'meshnode_pane.blend'
# www.blender.org
mtllib meshnode_pane.mtl
v -0.312500 -5.000000 -5.000000
v -0.312500 5.000000 -5.000000
v 0.312500 5.000000 -5.000000
v 0.312500 -5.000000 -5.000000
v -0.312500 5.000000 0.000000
v -0.312500 -5.000000 0.000000
v 0.312500 5.000000 0.000000
v 0.312500 -5.000000 0.000000
v 5.000000 -5.000000 -0.312500
v 5.000000 5.000000 -0.312500
v 5.000000 5.000000 0.312500
v 5.000000 -5.000000 0.312500
v 0.000000 5.000000 -0.312500
v 0.000000 -5.000000 -0.312500
v 0.000000 5.000000 0.312500
v 0.000000 -5.000000 0.312500
v -0.312500 -5.000000 5.000000
v -0.312500 5.000000 5.000000
v 0.312500 5.000000 5.000000
v 0.312500 -5.000000 5.000000
v -0.312500 5.000000 0.000000
v -0.312500 -5.000000 0.000000
v 0.312500 5.000000 0.000000
v 0.312500 -5.000000 0.000000
v -5.000000 -5.000000 -0.312500
v -5.000000 5.000000 -0.312500
v -5.000000 5.000000 0.312500
v -5.000000 -5.000000 0.312500
v 0.000000 5.000000 -0.312500
v 0.000000 -5.000000 -0.312500
v 0.000000 5.000000 0.312500
v 0.000000 -5.000000 0.312500
vt 0.500000 1.000000
vt 1.000000 1.000000
vt 1.000000 0.000000
vt 0.500000 0.000000
vt 0.500000 0.937500
vt 1.000000 0.937500
vt 1.000000 0.062500
vt 0.500000 0.062500
vt 0.937500 1.000000
vt 0.937500 0.000000
vt 0.000000 1.000000
vt 0.000000 0.000000
vt 0.062500 1.000000
vt 0.062500 0.000000
vt 0.000000 0.937500
vt 0.000000 0.062500
vn -1.000000 0.000000 0.000000
vn 0.000000 1.000000 0.000000
vn 0.000000 -1.000000 0.000000
vn 0.000000 0.000000 -1.000000
vn 1.000000 0.000000 0.000000
vn 0.000000 0.000000 1.000000
g Cube_Cube.001_Pane_1
usemtl Pane_1
s off
f 5/1/1 2/2/1 1/3/1 6/4/1
f 7/5/2 3/6/2 2/2/2 5/1/2
f 6/4/3 1/3/3 4/7/3 8/8/3
f 2/9/4 3/2/4 4/3/4 1/10/4
f 4/3/5 3/2/5 7/1/5 8/4/5
g Cube_Cube.001_Pane_2
usemtl Pane_2
f 13/1/4 10/11/4 9/12/4 14/4/4
f 10/11/5 11/13/5 12/14/5 9/12/5
f 10/15/2 13/5/2 15/1/2 11/11/2
f 12/12/3 16/4/3 14/8/3 9/16/3
f 11/11/6 15/1/6 16/4/6 12/12/6
g Cube_Cube.001_Pane_3
usemtl Pane_3
f 19/11/6 18/13/6 17/14/6 20/12/6
f 17/12/3 22/4/3 24/8/3 20/16/3
f 19/15/2 23/5/2 21/1/2 18/11/2
f 18/11/1 21/1/1 22/4/1 17/12/1
f 19/11/5 20/12/5 24/4/5 23/1/5
g Cube_Cube.001_Pane_4
usemtl Pane_4
f 27/9/1 26/2/1 25/3/1 28/10/1
f 32/4/3 28/3/3 25/7/3 30/8/3
f 29/5/2 26/6/2 27/2/2 31/1/2
f 28/3/6 32/4/6 31/1/6 27/2/6
f 26/2/4 29/1/4 30/4/4 25/3/4
