# Blender v2.76 (sub 0) OBJ File: 'meshnode_wall.blend'
# www.blender.org
mtllib meshnode_wall.mtl
v -2.500000 -5.000000 2.500000
v -2.500000 5.000000 2.500000
v -2.500000 -5.000000 -2.500000
v -2.500000 5.000000 -2.500000
v 2.500000 -5.000000 2.500000
v 2.500000 5.000000 2.500000
v 2.500000 -5.000000 -2.500000
v 2.500000 5.000000 -2.500000
v 2.500000 -5.000000 1.875000
v 2.500000 3.750000 1.875000
v 2.500000 -5.000000 -1.875000
v 2.500000 3.750000 -1.875000
v 5.000000 -5.000000 1.875000
v 5.000000 3.750000 1.875000
v 5.000000 -5.000000 -1.875000
v 5.000000 3.750000 -1.875000
v -2.500000 -5.000000 -1.875000
v -2.500000 3.750000 -1.875000
v -2.500000 -5.000000 1.875000
v -2.500000 3.750000 1.875000
v -5.000000 -5.000000 -1.875000
v -5.000000 3.750000 -1.875000
v -5.000000 -5.000000 1.875000
v -5.000000 3.750000 1.875000
v 1.875000 -5.000000 -2.500000
v 1.875000 3.750000 -2.500000
v -1.875000 -5.000000 -2.500000
v -1.875000 3.750000 -2.500000
v 1.875000 -5.000000 -5.000000
v 1.875000 3.750000 -5.000000
v -1.875000 -5.000000 -5.000000
v -1.875000 3.750000 -5.000000
v -1.875000 -5.000000 2.500000
v -1.875000 3.750000 2.500000
v 1.875000 -5.000000 2.500000
v 1.875000 3.750000 2.500000
v -1.875000 -5.000000 5.000000
v -1.875000 3.750000 5.000000
v 1.875000 -5.000000 5.000000
v 1.875000 3.750000 5.000000
vt 0.750000 1.000000
vt 0.250000 1.000000
vt 0.250000 0.000000
vt 0.750000 0.000000
vt 0.750000 0.250000
vt 0.750000 0.750000
vt 0.250000 0.750000
vt 0.250000 0.250000
vt 0.250000 0.875000
vt 0.000000 0.875000
vt 0.000000 0.000000
vt 1.000000 0.875000
vt 0.750000 0.875000
vt 1.000000 -0.000000
vt 0.312500 0.750000
vt 0.687500 0.750000
vt 0.687500 1.000000
vt 0.312500 1.000000
vt 0.312500 0.000000
vt 0.687500 0.000000
vt 0.687500 0.250000
vt 0.312500 0.250000
vt 0.250000 0.312500
vt 0.250000 0.687500
vt 0.000000 0.687500
vt 0.000000 0.312500
vt 0.750000 0.687500
vt 0.750000 0.312500
vt 1.000000 0.312500
vt 1.000000 0.687500
vn -1.000000 0.000000 0.000000
vn 0.000000 0.000000 -1.000000
vn 1.000000 0.000000 0.000000
vn 0.000000 0.000000 1.000000
vn 0.000000 -1.000000 0.000000
vn 0.000000 1.000000 0.000000
g Cube_Cube.001_Pillar
usemtl Pillar
s off
f 2/1/1 4/2/1 3/3/1 1/4/1
f 4/1/2 8/2/2 7/3/2 3/4/2
f 8/1/3 6/2/3 5/3/3 7/4/3
f 6/1/4 2/2/4 1/3/4 5/4/4
f 1/5/5 3/6/5 7/7/5 5/8/5
f 6/7/6 8/8/6 4/5/6 2/6/6
g Cube_Cube.001_Wall_1
usemtl Wall_1
f 28/9/1 32/10/1 31/11/1 27/3/1
f 30/12/3 26/13/3 25/4/3 29/14/3
f 25/15/5 27/16/5 31/17/5 29/18/5
f 30/19/6 32/20/6 28/21/6 26/22/6
g Cube_Cube.001_Wall_2
usemtl Wall_2
f 12/9/2 16/10/2 15/11/2 11/3/2
f 14/12/4 10/13/4 9/4/4 13/14/4
f 9/23/5 11/24/5 15/25/5 13/26/5
f 14/25/6 16/26/6 12/23/6 10/24/6
g Cube_Cube.001_Wall_3
usemtl Wall_3
f 36/9/3 40/10/3 39/11/3 35/3/3
f 38/12/1 34/13/1 33/4/1 37/14/1
f 33/21/5 35/22/5 39/19/5 37/20/5
f 38/17/6 40/18/6 36/15/6 34/16/6
g Cube_Cube.001_Wall_4
usemtl Wall_4
f 20/9/4 24/10/4 23/11/4 19/3/4
f 22/12/2 18/13/2 17/4/2 21/14/2
f 17/27/5 19/28/5 23/29/5 21/30/5
f 22/29/6 24/30/6 20/27/6 18/28/6
