v 0.5 0.125 0.5
v 0.438 0.063 -0.5
v 0.5 0.125 -0.5
v 0.438 0.063 0.5
v -0.5 0.125 -0.5
v 0.5 -0.5 0.5
v 0.438 0.125 -0.437
v 0.438 0.063 -0.437
v -0.5 0.125 0.5
v -0.437 0.063 -0.5
v -0.437 0.063 0.5
v -0.437 0.063 0.438
v -0.437 0.125 -0.437
v -0.437 0.063 -0.437
v -0.437 0.125 0.438
v -0.5 0.063 0.438
v -0.5 0.063 -0.437
v 0.438 -0.5 0.5
v 0.5 -0.5 -0.5
v 0.5 0.063 0.438
v 0.5 0.063 -0.437
v 0.5 -0.5 -0.437
v 0.438 0.063 0.438
v 0.438 -0.5 -0.5
v -0.5 -0.5 -0.437
v -0.5 -0.5 -0.5
v 0.438 -0.5 -0.437
v -0.437 -0.5 0.5
v -0.5 -0.5 0.5
v -0.437 -0.5 0.438
v -0.437 -0.5 -0.5
v -0.437 -0.5 -0.437
v -0.5 -0.5 0.438
v 0.5 -0.5 0.438
v 0.438 -0.5 0.438
v -0.125 0.125 0.438
v 0.063 0.125 0.438
v 0.125 0.125 0.438
v 0.313 0.125 -0.437
v 0.25 0.125 -0.437
v 0.125 0.125 -0.437
v -0.062 0.125 -0.437
v -0.125 0.125 -0.437
v -0.25 0.125 -0.437
v -0.312 0.125 -0.437
v -0.312 0.063 -0.437
v -0.25 0.063 -0.437
v -0.125 0.063 -0.437
v -0.062 0.063 -0.437
v 0.063 0.063 -0.437
v 0.125 0.063 -0.437
v 0.25 0.063 -0.437
v -0.25 0.063 0.438
v -0.125 0.063 0.438
v -0.062 0.063 0.438
v 0.125 0.063 0.438
v 0.25 0.063 0.438
v 0.313 0.063 0.438
v -0.154 -0.389 -0.451
v -0.154 -0.495 -0.451
v -0.131 -0.495 -0.304
v -0.131 -0.389 -0.304
v -0.278 -0.495 -0.281
v -0.278 -0.389 -0.281
v -0.301 -0.495 -0.428
v -0.301 -0.389 -0.428
v 0.379 -0.366 -0.238
v 0.379 -0.495 -0.238
v 0.48 -0.495 -0.129
v 0.48 -0.366 -0.129
v 0.372 -0.495 -0.027
v 0.372 -0.366 -0.027
v 0.27 -0.495 -0.136
v 0.27 -0.366 -0.136
v 0.134 -0.347 0.321
v 0.134 -0.495 0.321
v 0.194 -0.495 0.417
v 0.194 -0.347 0.417
v 0.09 -0.495 0.465
v 0.09 -0.347 0.465
v 0.031 -0.495 0.369
v 0.031 -0.347 0.369
v -0.175 -0.38 0.228
v -0.175 -0.495 0.228
v -0.134 -0.495 0.371
v -0.134 -0.38 0.371
v -0.277 -0.495 0.412
v -0.277 -0.38 0.412
v -0.318 -0.495 0.269
v -0.318 -0.38 0.269
v -0.252 -0.423 -0.058
v -0.252 -0.495 -0.058
v -0.282 -0.495 0.088
v -0.282 -0.423 0.088
v -0.428 -0.495 0.058
v -0.428 -0.423 0.058
v -0.398 -0.495 -0.088
v -0.398 -0.423 -0.088
v 0.233 -0.382 -0.492
v 0.233 -0.495 -0.492
v 0.256 -0.495 -0.345
v 0.256 -0.382 -0.345
v 0.109 -0.495 -0.322
v 0.109 -0.382 -0.322
v 0.086 -0.495 -0.469
v 0.086 -0.382 -0.469
v 0.034 -0.347 -0.351
v 0.034 -0.495 -0.351
v -0.114 -0.495 -0.371
v -0.114 -0.347 -0.371
v -0.102 -0.495 -0.455
v -0.102 -0.347 -0.455
v 0.046 -0.495 -0.435
v 0.046 -0.347 -0.435
v -0.339 -0.409 -0.3
v -0.339 -0.495 -0.3
v -0.405 -0.495 -0.167
v -0.405 -0.409 -0.167
v -0.481 -0.495 -0.204
v -0.481 -0.409 -0.204
v -0.416 -0.495 -0.338
v -0.416 -0.409 -0.338
v 0.36 -0.41 -0.468
v 0.36 -0.495 -0.468
v 0.461 -0.495 -0.359
v 0.461 -0.41 -0.359
v 0.399 -0.495 -0.301
v 0.399 -0.41 -0.301
v 0.298 -0.495 -0.41
v 0.298 -0.41 -0.41
v 0.413 -0.409 0.314
v 0.413 -0.495 0.314
v 0.369 -0.495 0.456
v 0.369 -0.409 0.456
v 0.287 -0.495 0.43
v 0.287 -0.409 0.43
v 0.332 -0.495 0.288
v 0.332 -0.409 0.288
v -0.037 -0.399 0.491
v -0.037 -0.495 0.491
v -0.185 -0.495 0.475
v -0.185 -0.399 0.475
v -0.176 -0.495 0.39
v -0.176 -0.399 0.39
v -0.028 -0.495 0.407
v -0.028 -0.399 0.407
v 0.001 -0.496 0.364
v -0.11 -0.496 0.364
v -0.11 -0.388 0.386
v 0.001 -0.388 0.386
v -0.11 -0.248 -0.283
v -0.11 -0.357 -0.305
v 0.001 -0.248 -0.283
v 0.001 -0.357 -0.305
v -0.341 -0.486 -0.109
v -0.36 -0.486 -0.219
v -0.36 -0.374 -0.219
v -0.341 -0.374 -0.109
v 0.335 -0.374 -0.341
v 0.335 -0.486 -0.341
v 0.354 -0.374 -0.232
v 0.354 -0.486 -0.232
v 0.289 -0.496 0.328
v 0.183 -0.496 0.36
v 0.189 -0.388 0.381
v 0.296 -0.388 0.349
v -0.012 -0.248 -0.28
v -0.018 -0.357 -0.301
v 0.095 -0.248 -0.312
v 0.088 -0.357 -0.333
v -0.203 -0.494 0.152
v -0.259 -0.49 0.142
v -0.259 -0.436 0.163
v -0.203 -0.44 0.174
v -0.19 -0.302 -0.17
v -0.19 -0.356 -0.192
v -0.133 -0.306 -0.16
v -0.133 -0.36 -0.181
v -0.03 -0.487 -0.116
v -0.009 -0.487 -0.17
v -0.009 -0.429 -0.17
v -0.03 -0.429 -0.116
v 0.333 -0.429 -0.042
v 0.334 -0.487 -0.042
v 0.313 -0.429 0.012
v 0.313 -0.487 0.012
v -0.112 -0.36 0.278
v -0.135 -0.351 0.226
v -0.135 -0.294 0.235
v -0.112 -0.303 0.288
v 0.202 -0.269 0.095
v 0.202 -0.326 0.085
v 0.225 -0.278 0.147
v 0.225 -0.335 0.137
v 0.417 -0.396 0.045
v 0.417 -0.495 0.045
v 0.417 -0.495 0.194
v 0.417 -0.396 0.194
v 0.268 -0.495 0.194
v 0.268 -0.396 0.194
v 0.268 -0.495 0.045
v 0.268 -0.396 0.045
v 0.438 0.125 0.438
v 0.063 0.125 -0.437
v 0.25 0.125 0.438
v 0.313 0.125 0.438
v -0.312 0.125 0.438
v -0.25 0.125 0.438
v -0.062 0.125 0.438
v -0.312 0.063 0.438
v 0.063 0.063 0.438
v 0.313 0.063 -0.437
vt 0.141 0.781
vt 0.25 0.781
vt 0.25 0.625
vt 0.141 0.625
vt 0.453 0.844
vt 0.531 0.844
vt 0.531 0.719
vt 0.453 0.719
vt 0.422 0.719
vt 0.266 0.719
vt 0.266 0.938
vt 0.422 0.938
vt 0.5 0.609
vt 0.5 1
vt 0.734 1
vt 0.734 0.609
vt 1 0.953
vt 1 0.875
vt 0.859 0.875
vt 0.859 0.953
vt 0.75 0.531
vt 0.563 0.531
vt 0.563 0.766
vt 0.75 0.766
vt 0.082 0.969
vt 0.137 0.969
vt 0.137 0.883
vt 0.082 0.883
vt 0.078 0.75
vt 0.234 0.75
vt 0.234 0.547
vt 0.078 0.547
vt 0.75 0.906
vt 0.953 0.906
vt 0.953 0.547
vt 0.75 0.547
vt 0.059 0.883
vt 0.059 0.969
vt 0.117 0.969
vt 0.117 0.883
vt 0.023 0.926
vt 0.078 0.926
vt 0.078 0.84
vt 0.023 0.84
vt 0.406 0.5
vt 0.25 0.5
vt 0.25 0.703
vt 0.406 0.703
vt 0.082 0.969
vt 0.137 0.969
vt 0.137 0.883
vt 0.082 0.883
vt 0.531 0.891
vt 0.719 0.891
vt 0.719 0.609
vt 0.531 0.609
vt 0.125 1
vt 0.25 1
vt 0.25 0.828
vt 0.125 0.828
vt 0.059 0.883
vt 0.059 0.969
vt 0.117 0.969
vt 0.117 0.883
vt 0.023 0.926
vt 0.078 0.926
vt 0.078 0.84
vt 0.023 0.84
vt 0.516 0.672
vt 0.328 0.672
vt 0.328 0.953
vt 0.516 0.953
vt 0.082 0.969
vt 0.137 0.969
vt 0.137 0.883
vt 0.082 0.883
vt 0.297 0.984
vt 0.484 0.984
vt 0.484 0.703
vt 0.297 0.703
vt 0.5 0.703
vt 0.609 0.703
vt 0.609 0.5
vt 0.5 0.5
vt 0.059 0.883
vt 0.059 0.969
vt 0.117 0.969
vt 0.117 0.883
vt 0.023 0.926
vt 0.078 0.926
vt 0.078 0.84
vt 0.023 0.84
vt 0.082 0.797
vt 0.023 0.797
vt 0.023 0.883
vt 0.082 0.883
vt 0.082 0.969
vt 0.137 0.969
vt 0.137 0.883
vt 0.082 0.883
vt 0.703 1
vt 0.984 1
vt 0.984 0.625
vt 0.703 0.625
vt 0.719 0.688
vt 0.844 0.688
vt 0.844 0.547
vt 0.719 0.547
vt 0.059 0.883
vt 0.059 0.969
vt 0.117 0.969
vt 0.117 0.883
vt 0.023 0.926
vt 0.078 0.926
vt 0.078 0.84
vt 0.023 0.84
vt 0.082 0.797
vt 0.023 0.797
vt 0.023 0.883
vt 0.082 0.883
vt 0.082 0.969
vt 0.137 0.969
vt 0.137 0.883
vt 0.082 0.883
vt 0.043 0.859
vt 0.102 0.859
vt 0.102 0.773
vt 0.043 0.773
vt 0.031 0.984
vt 0.313 0.984
vt 0.313 0.625
vt 0.031 0.625
vt 0.059 0.883
vt 0.059 0.969
vt 0.117 0.969
vt 0.117 0.883
vt 0.023 0.926
vt 0.078 0.926
vt 0.078 0.84
vt 0.023 0.84
vt 0.082 0.797
vt 0.023 0.797
vt 0.023 0.883
vt 0.082 0.883
vt 0.082 0.969
vt 0.137 0.969
vt 0.137 0.883
vt 0.082 0.883
vt 0.043 0.859
vt 0.102 0.859
vt 0.102 0.773
vt 0.043 0.773
vt 0.023 0.969
vt 0.082 0.969
vt 0.082 0.883
vt 0.023 0.883
vt 0.059 0.883
vt 0.059 0.969
vt 0.117 0.969
vt 0.117 0.883
vt 0.023 0.926
vt 0.078 0.926
vt 0.078 0.84
vt 0.023 0.84
vt 0.082 0.797
vt 0.023 0.797
vt 0.023 0.883
vt 0.082 0.883
vt 0.082 0.969
vt 0.137 0.969
vt 0.137 0.883
vt 0.082 0.883
vt 0.043 0.859
vt 0.102 0.859
vt 0.102 0.773
vt 0.043 0.773
vt 0.023 0.969
vt 0.082 0.969
vt 0.082 0.883
vt 0.023 0.883
vt 0.059 0.883
vt 0.059 0.969
vt 0.117 0.969
vt 0.117 0.883
vt 0.023 0.926
vt 0.078 0.926
vt 0.078 0.84
vt 0.023 0.84
vt 0.082 0.797
vt 0.023 0.797
vt 0.023 0.883
vt 0.082 0.883
vt 0.082 0.969
vt 0.137 0.969
vt 0.137 0.883
vt 0.082 0.883
vt 0.043 0.859
vt 0.102 0.859
vt 0.102 0.773
vt 0.043 0.773
vt 0.023 0.969
vt 0.082 0.969
vt 0.082 0.883
vt 0.023 0.883
vt 0.059 0.883
vt 0.059 0.969
vt 0.117 0.969
vt 0.117 0.883
vt 0.023 0.926
vt 0.078 0.926
vt 0.078 0.84
vt 0.023 0.84
vt 0.082 0.797
vt 0.023 0.797
vt 0.023 0.883
vt 0.082 0.883
vt 0.082 0.969
vt 0.137 0.969
vt 0.137 0.883
vt 0.082 0.883
vt 0.043 0.859
vt 0.102 0.859
vt 0.102 0.773
vt 0.043 0.773
vt 0.023 0.969
vt 0.082 0.969
vt 0.082 0.883
vt 0.023 0.883
vt 0.059 0.883
vt 0.059 0.969
vt 0.117 0.969
vt 0.117 0.883
vt 0.023 0.926
vt 0.078 0.926
vt 0.078 0.84
vt 0.023 0.84
vt 0.082 0.797
vt 0.023 0.797
vt 0.023 0.883
vt 0.082 0.883
vt 0.082 0.969
vt 0.137 0.969
vt 0.137 0.883
vt 0.082 0.883
vt 0.043 0.859
vt 0.102 0.859
vt 0.102 0.773
vt 0.043 0.773
vt 0.023 0.969
vt 0.082 0.969
vt 0.082 0.883
vt 0.023 0.883
vt 0.059 0.883
vt 0.059 0.969
vt 0.117 0.969
vt 0.117 0.883
vt 0.023 0.926
vt 0.078 0.926
vt 0.078 0.84
vt 0.023 0.84
vt 0.082 0.797
vt 0.023 0.797
vt 0.023 0.883
vt 0.082 0.883
vt 0.082 0.969
vt 0.137 0.969
vt 0.137 0.883
vt 0.082 0.883
vt 0.781 0.922
vt 0.781 0.797
vt 0.609 0.797
vt 0.609 0.922
vt 0.359 0.719
vt 0.484 0.719
vt 0.484 0.5
vt 0.359 0.5
vt 0.059 0.883
vt 0.059 0.969
vt 0.117 0.969
vt 0.117 0.883
vt 0.023 0.926
vt 0.078 0.926
vt 0.078 0.84
vt 0.023 0.84
vt 0.578 0.828
vt 0.469 0.828
vt 0.469 1
vt 0.578 1
vt 0.344 0.203
vt 0.156 0.203
vt 0.156 0.406
vt 0.344 0.406
vt 0.016 0.453
vt 1 0.453
vt 1 0.25
vt 0.016 0.25
vt 0.016 0.328
vt 1 0.328
vt 1 0.141
vt 0.016 0.141
vt 0.781 0.25
vt 0.578 0.25
vt 0.578 0.438
vt 0.781 0.438
vt 0.016 0.469
vt 1 0.469
vt 1 0.266
vt 0.016 0.266
vt 0.016 0.344
vt 1 0.344
vt 1 0.141
vt 0.016 0.141
vt 0.922 0.219
vt 0.719 0.219
vt 0.719 0.422
vt 0.922 0.422
vt 0 0.344
vt 0.984 0.344
vt 0.984 0.141
vt 0 0.141
vt 0 0.313
vt 1 0.313
vt 1 0.109
vt 0 0.109
vt 0.828 0.203
vt 0.625 0.203
vt 0.625 0.406
vt 0.828 0.406
vt 0.016 0.391
vt 1 0.391
vt 1 0.188
vt 0.016 0.188
vt 0 0.297
vt 1 0.297
vt 1 0.094
vt 0 0.094
vt 0.344 0.219
vt 0.141 0.219
vt 0.141 0.406
vt 0.344 0.406
vt 0.003 0.213
vt 0.989 0.213
vt 0.989 0.013
vt 0.003 0.013
vt 0.01 0.219
vt 0.997 0.219
vt 0.997 0.019
vt 0.01 0.019
vt 0.594 0.234
vt 0.406 0.234
vt 0.406 0.438
vt 0.594 0.438
vt 0.01 0.229
vt 0.997 0.229
vt 0.997 0.029
vt 0.01 0.029
vt 0.005 0.207
vt 0.992 0.207
vt 0.992 0.008
vt 0.005 0.008
vt 0.625 0.188
vt 0.422 0.188
vt 0.422 0.391
vt 0.625 0.391
vt 0.003 0.213
vt 0.989 0.213
vt 0.989 0.013
vt 0.003 0.013
vt 0.01 0.219
vt 0.997 0.219
vt 0.997 0.019
vt 0.01 0.019
vt 0.797 0.094
vt 0.594 0.094
vt 0.594 0.297
vt 0.797 0.297
vt 0.01 0.229
vt 0.997 0.229
vt 0.997 0.029
vt 0.01 0.029
vt 0.005 0.207
vt 0.992 0.207
vt 0.992 0.008
vt 0.005 0.008
vt 0.641 0.031
vt 0.438 0.031
vt 0.438 0.234
vt 0.641 0.234
vt 0.003 0.213
vt 0.989 0.213
vt 0.989 0.013
vt 0.003 0.013
vt 0.01 0.219
vt 0.997 0.219
vt 0.997 0.019
vt 0.01 0.019
vt 0.984 0.031
vt 0.781 0.031
vt 0.781 0.234
vt 0.984 0.234
vt 0.01 0.229
vt 0.997 0.229
vt 0.997 0.029
vt 0.01 0.029
vt 0.005 0.207
vt 0.992 0.207
vt 0.992 0.008
vt 0.005 0.008
vt 0.688 0.125
vt 0.484 0.125
vt 0.484 0.328
vt 0.688 0.328
vt 0.003 0.213
vt 0.989 0.213
vt 0.989 0.013
vt 0.003 0.013
vt 0.01 0.219
vt 0.997 0.219
vt 0.997 0.019
vt 0.01 0.019
vt 0.328 0.047
vt 0.125 0.047
vt 0.125 0.25
vt 0.328 0.25
vt 0.01 0.229
vt 0.997 0.229
vt 0.997 0.029
vt 0.01 0.029
vt 0.005 0.207
vt 0.992 0.207
vt 0.992 0.008
vt 0.005 0.008
vt 0.938 0.625
vt 0.813 0.625
vt 0.813 0.563
vt 0.938 0.563
vt 0.75 0.938
vt 0.813 0.938
vt 0.813 0.063
vt 0.75 0.063
vt 0 0.563
vt 0.063 0.563
vt 0.063 0
vt 0 0
vt 0.188 0.563
vt 0.188 0.625
vt 0.063 0.625
vt 0.063 0.563
vt 0.938 0.625
vt 0.063 0.625
vt 0.938 0.563
vt 0.188 0.625
vt 0.188 0.563
vt 0.438 0.063
vt 0.438 0.938
vt 0.375 0.938
vt 0.375 0.063
vt 1 0.563
vt 1 0
vt 0.938 0
vt 0.063 0.563
vt 0.063 0.625
vt 1 1
vt 0.938 0.938
vt 0.938 0.063
vt 1 0
vt 1 0.938
vt 1 0.063
vt 0.938 0.063
vt 0.938 0.938
vt 0 0.563
vt 0.063 0
vt 0 0
vt 0 0.938
vt 0.063 0.938
vt 0.063 0.063
vt 0 0.063
vt 0 0.063
vt 0.063 0.063
vt 0.063 0
vt 0 0
vt 1 0.063
vt 1 0
vt 0.938 0
vt 0.938 0.063
vt 1 1
vt 1 0.938
vt 0.938 0.938
vt 0.938 1
vt 0 1
vt 0.063 1
vt 0.063 0.938
vt 0 0.938
vt 1 0.563
vt 0.938 0
vt 1 0
vt 0.063 0.563
vt 0.938 0.563
vt 1 0.625
vt 0 0.625
vt 1 0.563
vt 1 0
vt 0.938 0.563
vt 1 0.563
vt 1 0
vt 0.938 0
vt 0 0.563
vt 0 0
vt 0 0.563
vt 0 0
vt 0.063 0
vt 0.813 0.563
vt 0.813 0.625
vt 0.938 0.625
vt 0.188 0.063
vt 0.188 0.938
vt 0.25 0.938
vt 0.25 0.063
vt 0.75 0.625
vt 0.75 0.563
vt 0.625 0.563
vt 0.625 0.625
vt 0.563 0.625
vt 0.563 0.563
vt 0.438 0.563
vt 0.438 0.625
vt 0.375 0.625
vt 0.375 0.563
vt 0.25 0.563
vt 0.25 0.625
vt 0.063 0.625
vt 0.063 0.563
vt 0.938 0.563
vt 0.938 0.625
vt 0.75 0.563
vt 0.75 0.625
vt 0.625 0.625
vt 0.625 0.563
vt 0.063 0.625
vt 0.063 0.563
vt 0.938 0.563
vt 0.938 0.625
vt 0.563 0.563
vt 0.563 0.625
vt 0.438 0.625
vt 0.438 0.563
vt 0.063 0.625
vt 0.063 0.563
vt 0.938 0.563
vt 0.938 0.625
vt 0.375 0.563
vt 0.375 0.625
vt 0.25 0.625
vt 0.25 0.563
vt 0.063 0.625
vt 0.063 0.563
vt 0.938 0.563
vt 0.938 0.625
vt 0.063 0.563
vt 0.063 0.625
vt 0.938 0.625
vt 0.938 0.563
vt 0.063 0.563
vt 0.063 0.625
vt 0.938 0.625
vt 0.938 0.563
vt 0.063 0.563
vt 0.063 0.625
vt 0.938 0.625
vt 0.938 0.563
vt 0.063 0.563
vt 0.063 0.625
vt 0.938 0.625
vt 0.938 0.563
vt 0.063 0.563
vt 0.063 0
vt 0 0
vt 0.063 0
vt 0.063 0.875
vt 0 1
vt 0 0
vt 0 0.625
vt 0.063 0.563
vt 0.063 0
vt 0.938 0.563
vt 1 0.625
vt 0 0.625
vt 0.063 0.563
vt 1 0
vt 0.938 0
vt 0.938 0.563
vt 1 0
vt 0.938 0
vt 0.938 0.563
vt 1 0.625
vt 0.938 0
vt 0.063 0.938
vt 0 1
vt 0 0
vt 0.063 0.063
vt 0.25 0.938
vt 0.188 0.938
vt 0.188 0.063
vt 0.25 0.063
vt 0.813 0.063
vt 0.75 0.063
vt 0.625 0.063
vt 0.563 0.063
vt 0.813 0.938
vt 0.75 0.938
vt 0.563 0.938
vt 0.625 0.938
vt 0.375 0.938
vt 0.438 0.938
vt 0.438 0.063
vt 0.375 0.063
vt 0.625 0.063
vt 0.563 0.063
vt 0.563 0.938
vt 0.625 0.938
vt 0.063 1
vt 0.938 1
vt 0.938 0
vt 0.063 0
vn -0.988 0 0.154
vn -0.154 0 -0.988
vn 0.988 0 -0.154
vn 0.154 0 0.988
vn 0 1 0
vn 0 -1 0
vn -0.731 0 0.683
vn -0.683 0 -0.731
vn 0.731 0 -0.683
vn 0.683 0 0.731
vn -0.849 0 0.529
vn -0.42 0 -0.907
vn 0.849 0 -0.529
vn 0.42 0 0.907
vn -0.961 0 0.277
vn -0.277 0 -0.961
vn 0.961 0 -0.277
vn 0.277 0 0.961
vn -0.98 0 -0.2
vn 0.2 0 -0.98
vn 0.98 0 0.2
vn -0.2 0 0.98
vn 0.137 0 -0.991
vn 0.991 0 0.137
vn -0.136 0 0.991
vn -0.991 0 -0.136
vn -0.898 0 -0.44
vn 0.44 0 -0.898
vn 0.898 0 0.44
vn -0.44 0 0.898
vn -0.734 0 0.679
vn -0.679 0 -0.734
vn 0.734 0 -0.679
vn 0.679 0 0.734
vn -0.953 0 -0.302
vn 0.302 0 -0.953
vn 0.953 0 0.302
vn -0.302 0 0.953
vn 0.108 0 -0.994
vn 0.994 0 0.108
vn -0.108 0 0.994
vn -0.994 0 -0.108
vn -1 0 0
vn 0 0 -1
vn 1 0 0
vn 0 0 1
vn 0 0.198 -0.98
vn 0 -0.979 -0.204
vn 0 -0.197 0.98
vn 0 0.979 0.204
vn 0.985 0 -0.174
vn 0.174 0 0.985
vn -0.985 0 0.174
vn -0.174 0 -0.985
vn -0.285 0.198 -0.938
vn 0.957 0 -0.291
vn -0.057 -0.98 -0.189
vn 0.285 -0.197 0.938
vn 0.057 0.98 0.189
vn -0.957 0 0.291
vn 0.19 0.366 -0.911
vn 0.982 -0.071 0.176
vn 0 -0.928 -0.372
vn -0.19 -0.365 0.911
vn 0 0.928 0.372
vn -0.982 0.071 -0.176
vn 0.937 0 0.351
vn -0.351 0 0.937
vn 0 -1 0
vn -0.936 0 -0.351
vn 0 1 0
vn 0.351 0 -0.936
vn 0.921 0.067 -0.384
vn 0.39 -0.157 0.907
vn 0 -0.985 -0.17
vn -0.921 -0.067 0.384
vn 0 0.985 0.17
vn -0.39 0.157 -0.907
g 1
s off
f 59/1/1 60/2/1 61/3/1 62/4/1
f 62/5/2 61/6/2 63/7/2 64/8/2
f 64/9/3 63/10/3 65/11/3 66/12/3
f 66/13/4 65/14/4 60/15/4 59/16/4
f 60/17/5 65/18/5 63/19/5 61/20/5
f 66/21/6 59/22/6 62/23/6 64/24/6
f 67/25/7 68/26/7 69/27/7 70/28/7
f 70/29/8 69/30/8 71/31/8 72/32/8
f 72/33/9 71/34/9 73/35/9 74/36/9
f 74/37/10 73/38/10 68/39/10 67/40/10
f 68/41/5 73/42/5 71/43/5 69/44/5
f 74/45/6 67/46/6 70/47/6 72/48/6
f 75/49/11 76/50/11 77/51/11 78/52/11
f 78/53/12 77/54/12 79/55/12 80/56/12
f 80/57/13 79/58/13 81/59/13 82/60/13
f 82/61/14 81/62/14 76/63/14 75/64/14
f 76/65/5 81/66/5 79/67/5 77/68/5
f 82/69/6 75/70/6 78/71/6 80/72/6
f 83/73/15 84/74/15 85/75/15 86/76/15
f 86/77/16 85/78/16 87/79/16 88/80/16
f 88/81/17 87/82/17 89/83/17 90/84/17
f 90/85/18 89/86/18 84/87/18 83/88/18
f 84/89/5 89/90/5 87/91/5 85/92/5
f 90/93/6 83/94/6 86/95/6 88/96/6
f 91/97/19 92/98/19 93/99/19 94/100/19
f 94/101/20 93/102/20 95/103/20 96/104/20
f 96/105/21 95/106/21 97/107/21 98/108/21
f 98/109/22 97/110/22 92/111/22 91/112/22
f 92/113/5 97/114/5 95/115/5 93/116/5
f 98/117/6 91/118/6 94/119/6 96/120/6
f 99/121/1 100/122/1 101/123/1 102/124/1
f 102/125/2 101/126/2 103/127/2 104/128/2
f 104/129/3 103/130/3 105/131/3 106/132/3
f 106/133/4 105/134/4 100/135/4 99/136/4
f 100/137/5 105/138/5 103/139/5 101/140/5
f 106/141/6 99/142/6 102/143/6 104/144/6
f 107/145/23 108/146/23 109/147/23 110/148/23
f 110/149/24 109/150/24 111/151/24 112/152/24
f 112/153/25 111/154/25 113/155/25 114/156/25
f 114/157/26 113/158/26 108/159/26 107/160/26
f 108/161/5 113/162/5 111/163/5 109/164/5
f 114/165/6 107/166/6 110/167/6 112/168/6
f 115/169/27 116/170/27 117/171/27 118/172/27
f 118/173/28 117/174/28 119/175/28 120/176/28
f 120/177/29 119/178/29 121/179/29 122/180/29
f 122/181/30 121/182/30 116/183/30 115/184/30
f 116/185/5 121/186/5 119/187/5 117/188/5
f 122/189/6 115/190/6 118/191/6 120/192/6
f 123/193/31 124/194/31 125/195/31 126/196/31
f 126/197/32 125/198/32 127/199/32 128/200/32
f 128/201/33 127/202/33 129/203/33 130/204/33
f 130/205/34 129/206/34 124/207/34 123/208/34
f 124/209/5 129/210/5 127/211/5 125/212/5
f 130/213/6 123/214/6 126/215/6 128/216/6
f 131/217/35 132/218/35 133/219/35 134/220/35
f 134/221/36 133/222/36 135/223/36 136/224/36
f 136/225/37 135/226/37 137/227/37 138/228/37
f 138/229/38 137/230/38 132/231/38 131/232/38
f 132/233/5 137/234/5 135/235/5 133/236/5
f 138/237/6 131/238/6 134/239/6 136/240/6
f 139/241/39 140/242/39 141/243/39 142/244/39
f 142/245/40 141/246/40 143/247/40 144/248/40
f 144/249/41 143/250/41 145/251/41 146/252/41
f 146/253/42 145/254/42 140/255/42 139/256/42
f 140/257/5 145/258/5 143/259/5 141/260/5
f 146/261/6 139/262/6 142/263/6 144/264/6
f 195/265/43 196/266/43 197/267/43 198/268/43
f 198/269/44 197/270/44 199/271/44 200/272/44
f 200/273/45 199/274/45 201/275/45 202/276/45
f 202/277/46 201/278/46 196/279/46 195/280/46
f 196/281/5 201/282/5 199/283/5 197/284/5
f 202/285/6 195/286/6 198/287/6 200/288/6
g 2
f 147/289/47 148/290/47 149/291/47 150/292/47
f 151/293/45 149/294/45 148/295/45 152/296/45
f 153/297/48 150/298/48 149/299/48 151/300/48
f 152/301/49 154/302/49 153/303/49 151/304/49
f 152/305/50 148/306/50 147/307/50 154/308/50
f 154/309/43 147/310/43 150/311/43 153/312/43
f 155/313/51 156/314/51 157/315/51 158/316/51
f 159/317/52 157/318/52 156/319/52 160/320/52
f 161/321/6 158/322/6 157/323/6 159/324/6
f 160/325/53 162/326/53 161/327/53 159/328/53
f 160/329/5 156/330/5 155/331/5 162/332/5
f 162/333/54 155/334/54 158/335/54 161/336/54
f 163/337/55 164/338/55 165/339/55 166/340/55
f 167/341/56 165/342/56 164/343/56 168/344/56
f 169/345/57 166/346/57 165/347/57 167/348/57
f 168/349/58 170/350/58 169/351/58 167/352/58
f 168/353/59 164/354/59 163/355/59 170/356/59
f 170/357/60 163/358/60 166/359/60 169/360/60
f 171/361/61 172/362/61 173/363/61 174/364/61
f 175/365/62 173/366/62 172/367/62 176/368/62
f 177/369/63 174/370/63 173/371/63 175/372/63
f 176/373/64 178/374/64 177/375/64 175/376/64
f 176/377/65 172/378/65 171/379/65 178/380/65
f 178/381/66 171/382/66 174/383/66 177/384/66
f 179/385/67 180/386/67 181/387/67 182/388/67
f 183/389/68 181/390/68 180/391/68 184/392/68
f 185/393/69 182/394/69 181/395/69 183/396/69
f 184/397/70 186/398/70 185/399/70 183/400/70
f 184/401/71 180/402/71 179/403/71 186/404/71
f 186/405/72 179/406/72 182/407/72 185/408/72
f 187/409/73 188/410/73 189/411/73 190/412/73
f 191/413/74 189/414/74 188/415/74 192/416/74
f 193/417/75 190/418/75 189/419/75 191/420/75
f 192/421/76 194/422/76 193/423/76 191/424/76
f 192/425/77 188/426/77 187/427/77 194/428/77
f 194/429/78 187/430/78 190/431/78 193/432/78
g 3
f 15/433/44 207/434/44 210/435/44 12/436/44
f 53/437/6 210/438/6 46/439/6 47/440/6
f 21/441/46 8/442/46 27/443/46 22/444/46
f 58/445/44 206/446/44 203/447/44 23/448/44
f 203/449/43 7/450/43 8/442/43 23/451/43
f 39/452/46 212/453/46 8/442/46 7/450/46
f 204/454/5 37/455/5 38/456/5 41/457/5
f 12/436/45 11/458/45 28/459/45 30/460/45
f 15/433/45 12/436/45 14/461/45 13/462/45
f 9/463/5 15/464/5 13/465/5 5/466/5
f 16/467/6 17/468/6 14/469/6 12/470/6
f 10/471/45 14/461/45 32/472/45 31/473/45
f 20/474/6 23/475/6 8/476/6 21/477/6
f 22/478/6 27/479/6 24/480/6 19/481/6
f 25/482/6 26/483/6 31/484/6 32/485/6
f 29/486/6 33/487/6 30/488/6 28/489/6
f 6/490/6 18/491/6 35/492/6 34/493/6
f 4/494/43 23/451/43 35/495/43 18/496/43
f 2/497/44 10/498/44 5/499/44 3/500/44
f 16/501/44 12/436/44 30/460/44 33/502/44
f 14/503/46 17/504/46 25/505/46 32/506/46
f 8/442/43 2/507/43 24/508/43 27/443/43
f 23/448/44 20/509/44 34/510/44 35/511/44
f 14/503/46 46/512/46 45/513/46 13/514/46
f 212/515/6 58/516/6 57/517/6 52/518/6
f 44/519/46 47/520/46 48/521/46 43/522/46
f 42/523/46 49/524/46 50/525/46 204/526/46
f 41/527/46 51/528/46 52/529/46 40/530/46
f 45/531/43 46/532/43 210/533/43 207/534/43
f 53/535/44 208/536/44 36/537/44 54/538/44
f 43/539/43 48/540/43 54/541/43 36/542/43
f 55/543/44 209/544/44 37/545/44 211/546/44
f 204/547/43 50/548/43 211/549/43 37/550/43
f 56/551/44 38/552/44 205/553/44 57/554/44
f 40/555/43 52/556/43 57/557/43 205/558/43
f 212/559/45 39/560/45 206/561/45 58/562/45
f 51/563/45 41/564/45 38/565/45 56/566/45
f 49/567/45 42/568/45 209/569/45 55/570/45
f 47/571/45 44/572/45 208/573/45 53/574/45
f 19/481/45 3/500/45 21/575/45 22/576/45
f 26/577/43 25/578/43 17/579/43 5/580/43
f 6/581/46 1/582/46 4/583/46 18/584/46
f 16/585/43 9/586/43 5/587/43 17/588/43
f 29/589/46 28/590/46 11/591/46 9/586/46
f 6/592/45 34/593/45 20/594/45 1/595/45
f 4/583/46 1/582/46 9/586/46 11/591/46
f 26/483/44 5/499/44 10/498/44 31/484/44
f 19/481/44 24/480/44 2/497/44 3/500/44
f 29/589/43 9/586/43 16/585/43 33/596/43
f 21/575/45 3/500/45 1/595/45 20/594/45
f 203/597/5 1/598/5 3/599/5 7/600/5
f 205/601/5 206/602/5 39/603/5 40/604/5
f 204/454/5 41/457/5 40/604/5 39/603/5 7/600/5 3/599/5 5/466/5 13/465/5 45/605/5 44/606/5 43/607/5 42/608/5
f 207/609/5 208/610/5 44/606/5 45/605/5
f 209/611/5 36/612/5 208/610/5 207/609/5 15/464/5 9/463/5 1/598/5 203/597/5 206/602/5 205/601/5 38/456/5 37/455/5
f 42/608/5 43/607/5 36/612/5 209/611/5
f 56/613/6 211/614/6 50/615/6 51/616/6
f 48/617/6 49/618/6 55/619/6 54/620/6
f 54/620/6 55/619/6 211/614/6 56/613/6 57/517/6 58/516/6 23/475/6 4/621/6 11/622/6 12/470/6 210/438/6 53/437/6
f 212/515/6 52/518/6 51/616/6 50/615/6 49/618/6 48/617/6 47/440/6 46/439/6 14/469/6 10/623/6 2/624/6 8/476/6
