v 0.044 0.375 0.044
v 0.044 0.125 0.044
v 0 -0.125 -0.062
v 0 0.125 -0.062
v 0.024 -0.125 -0.058
v 0.024 0.125 -0.058
v 0.044 -0.125 -0.044
v 0.044 0.125 -0.044
v 0.058 -0.125 -0.024
v 0.058 0.125 -0.024
v 0.063 -0.125 0
v 0.063 0.125 0
v 0.058 -0.125 0.024
v 0.058 0.125 0.024
v 0.044 -0.125 0.044
v 0.044 0.125 0.044
v 0.024 -0.125 0.058
v 0.024 0.125 0.058
v 0 -0.125 0.063
v 0 0.125 0.063
v -0.024 -0.125 0.058
v -0.024 0.125 0.058
v -0.044 -0.125 0.044
v -0.044 0.125 0.044
v -0.058 -0.125 0.024
v -0.058 0.125 0.024
v -0.062 -0.125 0
v -0.062 0.125 0
v -0.058 -0.125 -0.024
v -0.058 0.125 -0.024
v -0.044 -0.125 -0.044
v -0.044 0.125 -0.044
v -0.024 -0.125 -0.058
v -0.024 0.125 -0.058
v -0.044 0.125 -0.044
v -0.044 0.375 -0.044
v 0.044 0.375 -0.044
v 0.044 0.125 -0.044
v -0.044 0.125 0.044
v -0.044 0.375 0.044
v 0.044 0.375 0.044
v 0.044 0.125 0.044
v -0.044 0.125 -0.044
v -0.044 0.375 -0.044
v 0.044 0.375 -0.044
v 0.044 0.125 -0.044
v -0.044 0.125 0.044
v -0.044 0.375 0.044
v 0 -0.5 -0.135
v 0 -0.125 -0.075
v 0.052 -0.5 -0.125
v 0.029 -0.125 -0.069
v 0.095 -0.5 -0.095
v 0.053 -0.125 -0.053
v 0.125 -0.5 -0.052
v 0.069 -0.125 -0.029
v 0.135 -0.5 0
v 0.075 -0.125 0
v 0.125 -0.5 0.052
v 0.069 -0.125 0.029
v 0.095 -0.5 0.095
v 0.053 -0.125 0.053
v 0.052 -0.5 0.125
v 0.029 -0.125 0.069
v 0 -0.5 0.135
v 0 -0.125 0.075
v -0.052 -0.5 0.125
v -0.029 -0.125 0.069
v -0.095 -0.5 0.095
v -0.053 -0.125 0.053
v -0.125 -0.5 0.052
v -0.069 -0.125 0.029
v -0.135 -0.5 0
v -0.075 -0.125 0
v -0.125 -0.5 -0.052
v -0.069 -0.125 -0.029
v -0.095 -0.5 -0.095
v -0.053 -0.125 -0.053
v -0.052 -0.5 -0.125
v -0.029 -0.125 -0.069
v 0 -0.312 -0.019
v 0.007 -0.312 -0.017
v 0.013 -0.312 -0.013
v 0.017 -0.312 -0.007
v 0.019 -0.312 0
v 0.017 -0.312 0.007
v 0.013 -0.312 0.013
v 0.007 -0.312 0.017
v 0 -0.312 0.019
v -0.007 -0.312 0.017
v -0.013 -0.312 0.013
v -0.017 -0.312 0.007
v -0.019 -0.312 0
v -0.017 -0.312 -0.007
v -0.013 -0.312 -0.013
v -0.007 -0.312 -0.017
v 0 -0.219 -0.037
v 0.009 -0.406 -0.021
v 0.016 -0.406 -0.016
v 0.021 -0.406 -0.009
v 0.023 -0.406 0
v 0.021 -0.406 0.009
v 0.016 -0.406 0.016
v 0.009 -0.406 0.021
v 0 -0.406 0.023
v -0.009 -0.406 0.021
v -0.016 -0.406 0.016
v -0.021 -0.406 0.009
v -0.022 -0.406 0
v -0.021 -0.406 -0.009
v -0.016 -0.406 -0.016
v -0.009 -0.406 -0.021
v 0 -0.406 -0.022
v 0.014 -0.219 -0.035
v 0.027 -0.219 -0.027
v 0.035 -0.219 -0.014
v 0.038 -0.219 0
v 0.035 -0.219 0.014
v 0.027 -0.219 0.027
v 0.014 -0.219 0.035
v 0 -0.219 0.038
v -0.014 -0.219 0.035
v -0.027 -0.219 0.027
v -0.035 -0.219 0.014
v -0.037 -0.219 0
v -0.035 -0.219 -0.014
v -0.027 -0.219 -0.027
v -0.014 -0.219 -0.035
v 0 -0.172 -0.075
v 0.04 -0.453 -0.097
v 0.074 -0.453 -0.074
v 0.097 -0.453 -0.04
v 0.105 -0.453 0
v 0.097 -0.453 0.04
v 0.074 -0.453 0.074
v 0.04 -0.453 0.097
v 0 -0.453 0.105
v -0.04 -0.453 0.097
v -0.074 -0.453 0.074
v -0.097 -0.453 0.04
v -0.105 -0.453 0
v -0.097 -0.453 -0.04
v -0.074 -0.453 -0.074
v -0.04 -0.453 -0.097
v 0 -0.359 -0.037
v 0.014 -0.266 -0.035
v 0.027 -0.266 -0.027
v 0.035 -0.266 -0.014
v 0.038 -0.266 0
v 0.035 -0.266 0.014
v 0.027 -0.266 0.027
v 0.014 -0.266 0.035
v 0 -0.266 0.038
v -0.014 -0.266 0.035
v -0.027 -0.266 0.027
v -0.035 -0.266 0.014
v -0.037 -0.266 0
v -0.035 -0.266 -0.014
v -0.027 -0.266 -0.027
v -0.014 -0.266 -0.035
v 0 -0.266 -0.037
v 0.014 -0.359 -0.035
v 0.027 -0.359 -0.027
v 0.035 -0.359 -0.014
v 0.038 -0.359 0
v 0.035 -0.359 0.014
v 0.027 -0.359 0.027
v 0.014 -0.359 0.035
v 0 -0.359 0.038
v -0.014 -0.359 0.035
v -0.027 -0.359 0.027
v -0.035 -0.359 0.014
v -0.037 -0.359 0
v -0.035 -0.359 -0.014
v -0.027 -0.359 -0.027
v -0.014 -0.359 -0.035
v 0 -0.453 -0.105
v 0.029 -0.172 -0.069
v 0.053 -0.172 -0.053
v 0.069 -0.172 -0.029
v 0.075 -0.172 0
v 0.069 -0.172 0.029
v 0.053 -0.172 0.053
v 0.029 -0.172 0.069
v 0 -0.172 0.075
v -0.029 -0.172 0.069
v -0.053 -0.172 0.053
v -0.069 -0.172 0.029
v -0.075 -0.172 0
v -0.069 -0.172 -0.029
v -0.053 -0.172 -0.053
v -0.029 -0.172 -0.069
vt 0.5 0.219
vt 0.5 0.5
vt 0.438 0.5
vt 0.438 0.219
vt 0.375 0.5
vt 0.375 0.219
vt 0.313 0.5
vt 0.313 0.219
vt 0.25 0.5
vt 0.25 0.219
vt 0.188 0.5
vt 0.188 0.219
vt 0.125 0.5
vt 0.125 0.219
vt 0.063 0.5
vt 0.063 0.219
vt 0 0.5
vt 0 0.219
vt 1 0.219
vt 1 0.5
vt 0.938 0.5
vt 0.938 0.219
vt 0.875 0.5
vt 0.875 0.219
vt 0.813 0.5
vt 0.813 0.219
vt 0.75 0.5
vt 0.75 0.219
vt 0.688 0.5
vt 0.688 0.219
vt 0.625 0.5
vt 0.625 0.219
vt 0.476 0.786
vt 0.488 0.783
vt 0.498 0.777
vt 0.505 0.766
vt 0.507 0.755
vt 0.505 0.743
vt 0.498 0.732
vt 0.488 0.726
vt 0.476 0.723
vt 0.464 0.726
vt 0.454 0.732
vt 0.447 0.743
vt 0.445 0.755
vt 0.447 0.766
vt 0.454 0.777
vt 0.464 0.783
vt 0.563 0.219
vt 0.563 0.5
vt 1 0
vt 1 1
vt 0 1
vt 0 0
vt 0.625 0.188
vt 0.625 0.25
vt 0.563 0.25
vt 0.563 0.188
vt 0.5 0.438
vt 0.438 0.438
vt 0.375 0.438
vt 0.313 0.438
vt 0.25 0.438
vt 0.188 0.438
vt 0.125 0.438
vt 0.063 0.438
vt 0 0.438
vt 1 0.438
vt 0.938 0.438
vt 0.875 0.438
vt 0.813 0.438
vt 0.75 0.438
vt 0.688 0.438
vt 0.625 0.438
vt 0.342 0.695
vt 0.313 0.701
vt 0.284 0.695
vt 0.259 0.678
vt 0.243 0.654
vt 0.237 0.625
vt 0.243 0.596
vt 0.259 0.571
vt 0.284 0.555
vt 0.313 0.549
vt 0.342 0.555
vt 0.367 0.571
vt 0.383 0.596
vt 0.389 0.625
vt 0.383 0.654
vt 0.367 0.678
vt 0.563 0.438
vt 0.563 0.804
vt 0.602 0.796
vt 0.635 0.774
vt 0.657 0.741
vt 0.664 0.702
vt 0.657 0.663
vt 0.635 0.63
vt 0.602 0.608
vt 0.563 0.601
vt 0.524 0.608
vt 0.491 0.63
vt 0.469 0.663
vt 0.461 0.702
vt 0.469 0.741
vt 0.491 0.774
vt 0.524 0.796
vt 0.5 0.25
vt 0.5 0.188
vt 0.688 0.188
vt 0.688 0.25
vt 0.75 0.188
vt 0.75 0.25
vt 0.813 0.188
vt 0.813 0.25
vt 0.875 0.188
vt 0.875 0.25
vt 0.938 0.188
vt 0.938 0.25
vt 1 0.188
vt 1 0.25
vt 0.063 0.188
vt 0.063 0.25
vt 0 0.25
vt 0 0.188
vt 0.125 0.188
vt 0.125 0.25
vt 0.188 0.188
vt 0.188 0.25
vt 0.25 0.188
vt 0.25 0.25
vt 0.313 0.188
vt 0.313 0.25
vt 0.375 0.188
vt 0.375 0.25
vt 0.438 0.188
vt 0.438 0.25
vt 0.5 0.063
vt 0.5 0.125
vt 0.438 0.125
vt 0.438 0.063
vt 0.375 0.125
vt 0.375 0.063
vt 0.313 0.125
vt 0.313 0.063
vt 0.25 0.125
vt 0.25 0.063
vt 0.188 0.125
vt 0.188 0.063
vt 0.125 0.125
vt 0.125 0.063
vt 0.063 0.125
vt 0.063 0.063
vt 0 0.125
vt 0 0.063
vt 1 0.063
vt 1 0.125
vt 0.938 0.125
vt 0.938 0.063
vt 0.875 0.125
vt 0.875 0.063
vt 0.813 0.125
vt 0.813 0.063
vt 0.75 0.125
vt 0.75 0.063
vt 0.688 0.125
vt 0.688 0.063
vt 0.625 0.125
vt 0.625 0.063
vt 0.563 0.063
vt 0.563 0.125
vt 0.625 0.313
vt 0.625 0.375
vt 0.563 0.375
vt 0.563 0.313
vt 0.5 0.375
vt 0.5 0.313
vt 0.688 0.313
vt 0.688 0.375
vt 0.75 0.313
vt 0.75 0.375
vt 0.813 0.313
vt 0.813 0.375
vt 0.875 0.313
vt 0.875 0.375
vt 0.938 0.313
vt 0.938 0.375
vt 1 0.313
vt 1 0.375
vt 0.063 0.313
vt 0.063 0.375
vt 0 0.375
vt 0 0.313
vt 0.125 0.313
vt 0.125 0.375
vt 0.188 0.313
vt 0.188 0.375
vt 0.25 0.313
vt 0.25 0.375
vt 0.313 0.313
vt 0.313 0.375
vt 0.375 0.313
vt 0.375 0.375
vt 0.438 0.313
vt 0.438 0.375
vt 0.625 0
vt 0.563 0
vt 0.5 0
vt 0.688 0
vt 0.75 0
vt 0.813 0
vt 0.875 0
vt 0.938 0
vt 0.063 0
vt 0.125 0
vt 0.188 0
vt 0.25 0
vt 0.313 0
vt 0.375 0
vt 0.438 0
vn 0 0 -1
vn 0 0.666 -0.746
vn 0.286 0.666 -0.689
vn 0.383 0 -0.924
vn 0.528 0.666 -0.528
vn 0.707 0 -0.707
vn 0.689 0.666 -0.285
vn 0.924 0 -0.383
vn 0.746 0.666 0
vn 1 0 0
vn 0.689 0.666 0.286
vn 0.924 0 0.383
vn 0.528 0.666 0.528
vn 0.707 0 0.707
vn 0.286 0.666 0.689
vn 0.383 0 0.924
vn 0 0.666 0.746
vn 0 0 1
vn -0.285 0.666 0.689
vn -0.383 0 0.924
vn -0.528 0.666 0.528
vn -0.707 0 0.707
vn -0.689 0.666 0.286
vn -0.924 0 0.383
vn -0.746 0.666 0
vn -1 0 0
vn -0.689 0.666 -0.285
vn -0.924 0 -0.383
vn -0.528 0.666 -0.528
vn -0.707 0 -0.707
vn -0.285 0.666 -0.689
vn -0.383 0 -0.924
vn -0.707 0.034 -0.707
vn -0.382 0.034 -0.923
vn 0 -0.319 -0.948
vn 0.363 -0.319 -0.876
vn 0.67 -0.319 -0.67
vn 0.876 -0.319 -0.363
vn 0.948 -0.319 0
vn 0.876 -0.319 0.363
vn 0.67 -0.319 0.67
vn 0.363 -0.319 0.876
vn 0 -0.319 0.948
vn -0.363 -0.319 0.876
vn -0.67 -0.319 0.67
vn -0.876 -0.319 0.363
vn -0.948 -0.319 0
vn -0.876 -0.319 -0.363
vn -0.67 -0.319 -0.67
vn -0.363 -0.319 -0.876
vn 0 -0.439 -0.898
vn 0.344 -0.439 -0.83
vn 0.635 -0.439 -0.635
vn 0.83 -0.439 -0.344
vn 0.898 -0.439 0
vn 0.83 -0.439 0.344
vn 0.635 -0.439 0.635
vn 0.344 -0.439 0.83
vn 0 -0.439 0.898
vn -0.344 -0.439 0.83
vn -0.635 -0.439 0.635
vn -0.83 -0.439 0.344
vn -0.898 -0.439 0
vn -0.83 -0.439 -0.344
vn -0.635 -0.439 -0.635
vn -0.344 -0.439 -0.83
vn 0 0.034 -0.999
vn -0.923 0.034 -0.382
vn -0.999 0.034 0
vn -0.923 0.034 0.383
vn -0.707 0.034 0.707
vn -0.382 0.034 0.923
vn 0 0.034 0.999
vn 0.383 0.034 0.923
vn 0.707 0.034 0.707
vn 0.923 0.034 0.383
vn 0.999 0.034 0
vn 0.923 0.034 -0.382
vn 0.707 0.034 -0.707
vn 0.383 0.034 -0.923
vn 0 0.711 -0.703
vn 0 0.393 -0.919
vn 0.352 0.393 -0.849
vn 0.269 0.711 -0.65
vn 0.65 0.393 -0.65
vn 0.497 0.711 -0.497
vn 0.85 0.393 -0.352
vn 0.65 0.711 -0.269
vn 0.919 0.393 0
vn 0.703 0.711 0
vn 0.85 0.393 0.352
vn 0.65 0.711 0.269
vn 0.65 0.393 0.65
vn 0.497 0.711 0.497
vn 0.352 0.393 0.85
vn 0.269 0.711 0.65
vn 0 0.393 0.919
vn 0 0.711 0.703
vn -0.352 0.393 0.85
vn -0.269 0.711 0.65
vn -0.65 0.393 0.65
vn -0.497 0.711 0.497
vn -0.849 0.393 0.352
vn -0.65 0.711 0.269
vn -0.919 0.393 0
vn -0.703 0.711 0
vn -0.849 0.393 -0.352
vn -0.65 0.711 -0.269
vn -0.65 0.393 -0.65
vn -0.497 0.711 -0.497
vn -0.269 0.711 -0.65
vn -0.352 0.393 -0.849
vn -0.695 -0.185 -0.695
vn -0.664 -0.345 -0.664
vn -0.359 -0.345 -0.867
vn -0.376 -0.185 -0.908
vn 0 -0.345 -0.939
vn 0 -0.185 -0.983
vn -0.908 -0.185 -0.376
vn -0.867 -0.345 -0.359
vn -0.983 -0.185 0
vn -0.939 -0.345 0
vn -0.908 -0.185 0.376
vn -0.867 -0.345 0.359
vn -0.695 -0.185 0.695
vn -0.664 -0.345 0.664
vn -0.376 -0.185 0.908
vn -0.359 -0.345 0.867
vn 0 -0.185 0.983
vn 0 -0.345 0.939
vn 0.376 -0.185 0.908
vn 0.359 -0.345 0.867
vn 0.695 -0.185 0.695
vn 0.664 -0.345 0.664
vn 0.908 -0.185 0.376
vn 0.867 -0.345 0.359
vn 0.983 -0.185 0
vn 0.939 -0.345 0
vn 0.908 -0.185 -0.376
vn 0.867 -0.345 -0.359
vn 0.695 -0.185 -0.695
vn 0.664 -0.345 -0.664
vn 0.376 -0.185 -0.908
vn 0.359 -0.345 -0.867
g 1
s 1
f 3/1/1 4/2/2 6/3/3 5/4/4
f 5/4/4 6/3/3 8/5/5 7/6/6
f 7/6/6 8/5/5 10/7/7 9/8/8
f 9/8/8 10/7/7 12/9/9 11/10/10
f 11/10/10 12/9/9 14/11/11 13/12/12
f 13/12/12 14/11/11 16/13/13 15/14/14
f 15/14/14 16/13/13 18/15/15 17/16/16
f 17/16/16 18/15/15 20/17/17 19/18/18
f 19/19/18 20/20/17 22/21/19 21/22/20
f 21/22/20 22/21/19 24/23/21 23/24/22
f 23/24/22 24/23/21 26/25/23 25/26/24
f 25/26/24 26/25/23 28/27/25 27/28/26
f 27/28/26 28/27/25 30/29/27 29/30/28
f 29/30/28 30/29/27 32/31/29 31/32/30
f 6/33/3 4/34/2 34/35/31 32/36/29 30/37/27 28/38/25 26/39/23 24/40/21 22/41/19 20/42/17 18/43/15 16/44/13 14/45/11 12/46/9 10/47/7 8/48/5
f 33/49/32 34/50/31 4/2/2 3/1/1
f 31/32/30 32/31/29 34/50/31 33/49/32
g 2
s off
f 38/51/14 37/52/14 40/53/14 39/54/14
f 2/51/22 1/52/22 36/53/22 35/54/22
f 46/51/30 47/54/30 48/53/30 45/52/30
f 42/51/6 43/54/6 44/53/6 41/52/6
g 3
s 1
f 175/55/33 95/56/30 96/57/32 176/58/34
f 129/59/35 50/2/2 52/3/3 178/60/36
f 178/60/36 52/3/3 54/5/5 179/61/37
f 179/61/37 54/5/5 56/7/7 180/62/38
f 180/62/38 56/7/7 58/9/9 181/63/39
f 181/63/39 58/9/9 60/11/11 182/64/40
f 182/64/40 60/11/11 62/13/13 183/65/41
f 183/65/41 62/13/13 64/15/15 184/66/42
f 184/66/42 64/15/15 66/17/17 185/67/43
f 185/68/43 66/20/17 68/21/19 186/69/44
f 186/69/44 68/21/19 70/23/21 187/70/45
f 187/70/45 70/23/21 72/25/23 188/71/46
f 188/71/46 72/25/23 74/27/25 189/72/47
f 189/72/47 74/27/25 76/29/27 190/73/48
f 190/73/48 76/29/27 78/31/29 191/74/49
f 52/75/3 50/76/2 80/77/31 78/78/29 76/79/27 74/80/25 72/81/23 70/82/21 68/83/19 66/84/17 64/85/15 62/86/13 60/87/11 58/88/9 56/89/7 54/90/5
f 192/91/50 80/50/31 50/2/2 129/59/35
f 191/74/49 78/31/29 80/50/31 192/91/50
f 49/92/51 51/93/52 53/94/53 55/95/54 57/96/55 59/97/56 61/98/57 63/99/58 65/100/59 67/101/60 69/102/61 71/103/62 73/104/63 75/105/64 77/106/65 79/107/66
f 176/58/34 96/57/32 81/108/1 145/109/67
f 174/110/68 94/111/28 95/56/30 175/55/33
f 173/112/69 93/113/26 94/111/28 174/110/68
f 172/114/70 92/115/24 93/113/26 173/112/69
f 171/116/71 91/117/22 92/115/24 172/114/70
f 170/118/72 90/119/20 91/117/22 171/116/71
f 169/120/73 89/121/18 90/119/20 170/118/72
f 168/122/74 88/123/16 89/124/18 169/125/73
f 167/126/75 87/127/14 88/123/16 168/122/74
f 166/128/76 86/129/12 87/127/14 167/126/75
f 165/130/77 85/131/10 86/129/12 166/128/76
f 164/132/78 84/133/8 85/131/10 165/130/77
f 163/134/79 83/135/6 84/133/8 164/132/78
f 162/136/80 82/137/4 83/135/6 163/134/79
f 145/109/67 81/108/1 82/137/4 162/136/80
f 177/138/81 113/139/82 98/140/83 130/141/84
f 130/141/84 98/140/83 99/142/85 131/143/86
f 131/143/86 99/142/85 100/144/87 132/145/88
f 132/145/88 100/144/87 101/146/89 133/147/90
f 133/147/90 101/146/89 102/148/91 134/149/92
f 134/149/92 102/148/91 103/150/93 135/151/94
f 135/151/94 103/150/93 104/152/95 136/153/96
f 136/153/96 104/152/95 105/154/97 137/155/98
f 137/156/98 105/157/97 106/158/99 138/159/100
f 138/159/100 106/158/99 107/160/101 139/161/102
f 139/161/102 107/160/101 108/162/103 140/163/104
f 140/163/104 108/162/103 109/164/105 141/165/106
f 141/165/106 109/164/105 110/166/107 142/167/108
f 142/167/108 110/166/107 111/168/109 143/169/110
f 144/170/111 112/171/112 113/139/82 177/138/81
f 159/172/113 127/173/114 128/174/115 160/175/116
f 160/175/116 128/174/115 97/176/117 161/177/118
f 158/178/119 126/179/120 127/173/114 159/172/113
f 157/180/121 125/181/122 126/179/120 158/178/119
f 156/182/123 124/183/124 125/181/122 157/180/121
f 155/184/125 123/185/126 124/183/124 156/182/123
f 154/186/127 122/187/128 123/185/126 155/184/125
f 153/188/129 121/189/130 122/187/128 154/186/127
f 152/190/131 120/191/132 121/192/130 153/193/129
f 151/194/133 119/195/134 120/191/132 152/190/131
f 150/196/135 118/197/136 119/195/134 151/194/133
f 149/198/137 117/199/138 118/197/136 150/196/135
f 148/200/139 116/201/140 117/199/138 149/198/137
f 147/202/141 115/203/142 116/201/140 148/200/139
f 146/204/143 114/205/144 115/203/142 147/202/141
f 161/177/118 97/176/117 114/205/144 146/204/143
f 143/169/110 111/168/109 112/171/112 144/170/111
f 77/206/65 143/169/110 144/170/111 79/207/66
f 81/108/1 161/177/118 146/204/143 82/137/4
f 82/137/4 146/204/143 147/202/141 83/135/6
f 83/135/6 147/202/141 148/200/139 84/133/8
f 84/133/8 148/200/139 149/198/137 85/131/10
f 85/131/10 149/198/137 150/196/135 86/129/12
f 86/129/12 150/196/135 151/194/133 87/127/14
f 87/127/14 151/194/133 152/190/131 88/123/16
f 88/123/16 152/190/131 153/193/129 89/124/18
f 89/121/18 153/188/129 154/186/127 90/119/20
f 90/119/20 154/186/127 155/184/125 91/117/22
f 91/117/22 155/184/125 156/182/123 92/115/24
f 92/115/24 156/182/123 157/180/121 93/113/26
f 93/113/26 157/180/121 158/178/119 94/111/28
f 94/111/28 158/178/119 159/172/113 95/56/30
f 96/57/32 160/175/116 161/177/118 81/108/1
f 95/56/30 159/172/113 160/175/116 96/57/32
f 79/207/66 144/170/111 177/138/81 49/208/51
f 75/209/64 142/167/108 143/169/110 77/206/65
f 73/210/63 141/165/106 142/167/108 75/209/64
f 71/211/62 140/163/104 141/165/106 73/210/63
f 69/212/61 139/161/102 140/163/104 71/211/62
f 67/213/60 138/159/100 139/161/102 69/212/61
f 65/51/59 137/156/98 138/159/100 67/213/60
f 63/214/58 136/153/96 137/155/98 65/54/59
f 61/215/57 135/151/94 136/153/96 63/214/58
f 59/216/56 134/149/92 135/151/94 61/215/57
f 57/217/55 133/147/90 134/149/92 59/216/56
f 55/218/54 132/145/88 133/147/90 57/217/55
f 53/219/53 131/143/86 132/145/88 55/218/54
f 51/220/52 130/141/84 131/143/86 53/219/53
f 49/208/51 177/138/81 130/141/84 51/220/52
f 113/139/82 145/109/67 162/136/80 98/140/83
f 98/140/83 162/136/80 163/134/79 99/142/85
f 99/142/85 163/134/79 164/132/78 100/144/87
f 100/144/87 164/132/78 165/130/77 101/146/89
f 101/146/89 165/130/77 166/128/76 102/148/91
f 102/148/91 166/128/76 167/126/75 103/150/93
f 103/150/93 167/126/75 168/122/74 104/152/95
f 104/152/95 168/122/74 169/125/73 105/154/97
f 105/157/97 169/120/73 170/118/72 106/158/99
f 106/158/99 170/118/72 171/116/71 107/160/101
f 107/160/101 171/116/71 172/114/70 108/162/103
f 108/162/103 172/114/70 173/112/69 109/164/105
f 109/164/105 173/112/69 174/110/68 110/166/107
f 110/166/107 174/110/68 175/55/33 111/168/109
f 112/171/112 176/58/34 145/109/67 113/139/82
f 127/173/114 191/74/49 192/91/50 128/174/115
f 128/174/115 192/91/50 129/59/35 97/176/117
f 126/179/120 190/73/48 191/74/49 127/173/114
f 125/181/122 189/72/47 190/73/48 126/179/120
f 124/183/124 188/71/46 189/72/47 125/181/122
f 123/185/126 187/70/45 188/71/46 124/183/124
f 122/187/128 186/69/44 187/70/45 123/185/126
f 121/189/130 185/68/43 186/69/44 122/187/128
f 120/191/132 184/66/42 185/67/43 121/192/130
f 119/195/134 183/65/41 184/66/42 120/191/132
f 118/197/136 182/64/40 183/65/41 119/195/134
f 117/199/138 181/63/39 182/64/40 118/197/136
f 116/201/140 180/62/38 181/63/39 117/199/138
f 115/203/142 179/61/37 180/62/38 116/201/140
f 114/205/144 178/60/36 179/61/37 115/203/142
f 97/176/117 129/59/35 178/60/36 114/205/144
f 111/168/109 175/55/33 176/58/34 112/171/112
