v -0.139 -0.5 0.139
v -0.139 -0.5 -0.139
v 0.139 -0.5 -0.139
v 0.139 -0.5 0.139
v -0.087 -0.326 0.087
v -0.087 -0.326 -0.087
v 0.087 -0.326 -0.087
v 0.087 -0.326 0.087
vt 0 0.813
vt 0 0.188
vt 0.566 0
vt 0.566 1
vt 0 1
vt 0 0
vt 0.868 0
vt 0.868 1
vt 0.458 0
vt 1 0
vt 1 0.625
vt 0.458 0.625
vn -0.958 0.287 0
vn 0 0.287 -0.958
vn 0.958 0.287 0
vn 0 0.287 0.958
vn 0 -1 0
vn 0 1 0
g 1
s off
f 5/1/1 6/2/1 2/3/1 1/4/1
f 6/1/2 7/2/2 3/3/2 2/4/2
f 7/1/3 8/2/3 4/3/3 3/4/3
f 8/1/4 5/2/4 1/3/4 4/4/4
f 1/5/5 2/6/5 3/7/5 4/8/5
f 8/9/6 7/10/6 6/11/6 5/12/6
v -0.17 -0.007 0
v -0.17 -0.341 0
v 0.17 -0.007 0
v 0.17 -0.341 0
v 0.17 -0.007 0
v 0.17 -0.341 0
v -0.17 -0.007 0
v -0.17 -0.341 0
v 0.085 -0.007 0.147
v 0.085 -0.341 0.147
v -0.085 -0.007 -0.148
v -0.085 -0.341 -0.148
v -0.085 -0.007 -0.147
v -0.085 -0.341 -0.147
v 0.085 -0.007 0.148
v 0.085 -0.341 0.148
v -0.085 -0.341 0.147
v -0.085 -0.007 0.147
v 0.085 -0.341 -0.148
v 0.085 -0.007 -0.148
v 0.085 -0.341 -0.147
v 0.085 -0.007 -0.147
v -0.085 -0.341 0.148
v -0.085 -0.007 0.148
vt 1 1
vt 0 1
vt 0 0
vt 1 0
vn 0 0 -1
vn 0 0 1
vn -0.866 0 0.5
vn 0.866 0 -0.5
vn 0.866 0 0.5
vn -0.866 0 -0.5
g 2
s off
f 9/13/7 11/14/7 12/15/7 10/16/7
f 13/14/8 15/13/8 16/16/8 14/15/8
f 17/13/9 19/14/9 20/15/9 18/16/9
f 21/14/10 23/13/10 24/16/10 22/15/10
f 28/14/11 26/13/11 25/16/11 27/15/11
f 32/13/12 30/14/12 29/15/12 31/16/12
v -0.067 -0.013 0
v -0.123 -0.051 0
v -0.161 -0.107 0
v -0.174 -0.174 0
v -0.161 -0.24 0
v -0.123 -0.297 0
v -0.067 -0.335 0
v -0.061 -0.013 -0.025
v -0.114 -0.051 -0.047
v -0.148 -0.107 -0.061
v -0.161 -0.174 -0.067
v -0.148 -0.24 -0.061
v -0.114 -0.297 -0.047
v -0.061 -0.335 -0.025
v -0.047 -0.013 -0.047
v -0.087 -0.051 -0.087
v -0.114 -0.107 -0.114
v -0.123 -0.174 -0.123
v -0.114 -0.24 -0.114
v -0.087 -0.297 -0.087
v -0.047 -0.335 -0.047
v -0.025 -0.013 -0.061
v -0.047 -0.051 -0.114
v -0.061 -0.107 -0.148
v -0.067 -0.174 -0.161
v -0.061 -0.24 -0.148
v -0.047 -0.297 -0.114
v -0.025 -0.335 -0.061
v 0 -0.013 -0.067
v 0 -0.051 -0.123
v 0 -0.107 -0.161
v 0 -0.174 -0.174
v 0 -0.24 -0.161
v 0 -0.297 -0.123
v 0 -0.335 -0.067
v 0.025 -0.013 -0.061
v 0.047 -0.051 -0.114
v 0.061 -0.107 -0.148
v 0.067 -0.174 -0.161
v 0.061 -0.24 -0.148
v 0.047 -0.297 -0.114
v 0.025 -0.335 -0.061
v 0.047 -0.013 -0.047
v 0.087 -0.051 -0.087
v 0.114 -0.107 -0.114
v 0.123 -0.174 -0.123
v 0.114 -0.24 -0.114
v 0.087 -0.297 -0.087
v 0.047 -0.335 -0.047
v 0.061 -0.013 -0.025
v 0.114 -0.051 -0.047
v 0.148 -0.107 -0.061
v 0.161 -0.174 -0.067
v 0.148 -0.24 -0.061
v 0.114 -0.297 -0.047
v 0.061 -0.335 -0.025
v 0.067 -0.013 0
v 0.123 -0.051 0
v 0.161 -0.107 0
v 0.174 -0.174 0
v 0.161 -0.24 0
v 0.123 -0.297 0
v 0.067 -0.335 0
v 0.061 -0.013 0.025
v 0.114 -0.051 0.047
v 0.148 -0.107 0.061
v 0.161 -0.174 0.067
v 0.148 -0.24 0.061
v 0.114 -0.297 0.047
v 0.061 -0.335 0.025
v 0.047 -0.013 0.047
v 0.087 -0.051 0.087
v 0.114 -0.107 0.114
v 0.123 -0.174 0.123
v 0.114 -0.24 0.114
v 0.087 -0.297 0.087
v 0.047 -0.335 0.047
v 0.025 -0.013 0.061
v 0.047 -0.051 0.114
v 0.061 -0.107 0.148
v 0.067 -0.174 0.161
v 0.061 -0.24 0.148
v 0.047 -0.297 0.114
v 0.025 -0.335 0.061
v 0 -0.013 0.067
v 0 -0.051 0.123
v 0 -0.107 0.161
v 0 -0.174 0.174
v 0 -0.24 0.161
v 0 -0.297 0.123
v 0 -0.335 0.067
v -0.025 -0.013 0.061
v -0.047 -0.051 0.114
v -0.061 -0.107 0.148
v -0.067 -0.174 0.161
v -0.061 -0.24 0.148
v -0.047 -0.297 0.114
v -0.025 -0.335 0.061
v -0.047 -0.013 0.047
v -0.087 -0.051 0.087
v -0.114 -0.107 0.114
v -0.123 -0.174 0.123
v -0.114 -0.24 0.114
v -0.087 -0.297 0.087
v -0.047 -0.335 0.047
v -0.061 -0.013 0.025
v -0.114 -0.051 0.047
v -0.148 -0.107 0.061
v -0.161 -0.174 0.067
v -0.148 -0.24 0.061
v -0.114 -0.297 0.047
v -0.061 -0.335 0.025
v -0.015 -0.003 0
v -0.014 -0.003 -0.006
v -0.011 -0.003 -0.011
v -0.006 -0.003 -0.014
v 0 -0.003 -0.015
v 0.006 -0.003 -0.014
v 0.011 -0.003 -0.011
v 0.014 -0.003 -0.006
v 0.015 -0.003 0
v 0.014 -0.003 0.006
v 0.011 -0.003 0.011
v 0.006 -0.003 0.014
v 0 -0.003 0.015
v -0.006 -0.003 0.014
v -0.011 -0.003 0.011
v -0.014 -0.003 0.006
v 0 -0.003 0
vt 0.75 0
vt 0.75 0.148
vt 0.688 0.148
vt 0.688 0
vt 0.75 0.295
vt 0.688 0.295
vt 0.75 0.443
vt 0.688 0.443
vt 0.75 0.59
vt 0.688 0.59
vt 0.75 0.738
vt 0.688 0.738
vt 0.75 0.886
vt 0.688 0.886
vt 0.625 0.148
vt 0.625 0
vt 0.625 0.295
vt 0.625 0.443
vt 0.625 0.59
vt 0.625 0.738
vt 0.625 0.886
vt 0.563 0.148
vt 0.563 0
vt 0.563 0.295
vt 0.563 0.443
vt 0.563 0.59
vt 0.563 0.738
vt 0.563 0.886
vt 0.5 0.148
vt 0.5 0
vt 0.5 0.295
vt 0.5 0.443
vt 0.5 0.59
vt 0.5 0.738
vt 0.5 0.886
vt 0.438 0.148
vt 0.438 0
vt 0.438 0.295
vt 0.438 0.443
vt 0.438 0.59
vt 0.438 0.738
vt 0.438 0.886
vt 0.375 0.148
vt 0.375 0
vt 0.375 0.295
vt 0.375 0.443
vt 0.375 0.59
vt 0.375 0.738
vt 0.375 0.886
vt 0.313 0.148
vt 0.313 0
vt 0.313 0.295
vt 0.313 0.443
vt 0.313 0.59
vt 0.313 0.738
vt 0.313 0.886
vt 0.25 0.148
vt 0.25 0
vt 0.25 0.295
vt 0.25 0.443
vt 0.25 0.59
vt 0.25 0.738
vt 0.25 0.886
vt 0.188 0.148
vt 0.188 0
vt 0.188 0.295
vt 0.188 0.443
vt 0.188 0.59
vt 0.188 0.738
vt 0.188 0.886
vt 0.125 0.148
vt 0.125 0
vt 0.125 0.295
vt 0.125 0.443
vt 0.125 0.59
vt 0.125 0.738
vt 0.125 0.886
vt 0.063 0.148
vt 0.063 0
vt 0.063 0.295
vt 0.063 0.443
vt 0.063 0.59
vt 0.063 0.738
vt 0.063 0.886
vt 0 0.148
vt 0 0
vt 0 0.295
vt 0 0.443
vt 0 0.59
vt 0 0.738
vt 0 0.886
vt 1 0
vt 1 0.148
vt 0.938 0.148
vt 0.938 0
vt 1 0.295
vt 0.938 0.295
vt 1 0.443
vt 0.938 0.443
vt 1 0.59
vt 0.938 0.59
vt 1 0.738
vt 0.938 0.738
vt 1 0.886
vt 0.938 0.886
vt 0.875 0.148
vt 0.875 0
vt 0.875 0.295
vt 0.875 0.443
vt 0.875 0.59
vt 0.875 0.738
vt 0.875 0.886
vt 0.813 0.148
vt 0.813 0
vt 0.813 0.295
vt 0.813 0.443
vt 0.813 0.59
vt 0.813 0.738
vt 0.813 0.886
vt 0.578 0.479
vt 0.583 0.535
vt 0.471 0.526
vt 0.47 0.513
vt 0.566 0.588
vt 0.467 0.538
vt 0.529 0.631
vt 0.458 0.548
vt 0.478 0.657
vt 0.447 0.554
vt 0.421 0.661
vt 0.434 0.555
vt 0.367 0.644
vt 0.422 0.551
vt 0.31 0.449
vt 0.347 0.406
vt 0.417 0.497
vt 0.409 0.507
vt 0.323 0.608
vt 0.412 0.543
vt 0.397 0.38
vt 0.429 0.491
vt 0.297 0.558
vt 0.406 0.532
vt 0.454 0.375
vt 0.441 0.49
vt 0.292 0.502
vt 0.405 0.519
vt 0.508 0.393
vt 0.454 0.494
vt 0.552 0.429
vt 0.464 0.502
vt 0.438 0.522
vn -0.556 -0.831 0
vn -0.719 -0.695 0
vn -0.664 -0.695 -0.275
vn -0.513 -0.831 -0.213
vn -0.927 -0.374 0
vn -0.857 -0.374 -0.355
vn -1 0 0
vn -0.924 0 -0.383
vn -0.927 0.374 0
vn -0.857 0.374 -0.355
vn -0.719 0.695 0
vn -0.664 0.695 -0.275
vn -0.402 0.916 0
vn -0.372 0.916 -0.154
vn -0.508 -0.695 -0.508
vn -0.393 -0.831 -0.393
vn -0.656 -0.374 -0.656
vn -0.707 0 -0.707
vn -0.656 0.374 -0.656
vn -0.508 0.695 -0.508
vn -0.284 0.916 -0.284
vn -0.275 -0.695 -0.664
vn -0.213 -0.831 -0.513
vn -0.355 -0.374 -0.857
vn -0.383 0 -0.924
vn -0.355 0.374 -0.857
vn -0.275 0.695 -0.664
vn -0.154 0.916 -0.372
vn 0 -0.695 -0.719
vn 0 -0.831 -0.556
vn 0 -0.374 -0.927
vn 0 0 -1
vn 0 0.374 -0.927
vn 0 0.695 -0.719
vn 0 0.916 -0.402
vn 0.275 -0.695 -0.664
vn 0.213 -0.831 -0.513
vn 0.355 -0.374 -0.857
vn 0.383 0 -0.924
vn 0.355 0.374 -0.857
vn 0.275 0.695 -0.664
vn 0.154 0.916 -0.372
vn 0.508 -0.695 -0.508
vn 0.393 -0.831 -0.393
vn 0.656 -0.374 -0.656
vn 0.707 0 -0.707
vn 0.656 0.374 -0.656
vn 0.508 0.695 -0.508
vn 0.284 0.916 -0.284
vn 0.664 -0.695 -0.275
vn 0.513 -0.831 -0.213
vn 0.857 -0.374 -0.355
vn 0.924 0 -0.383
vn 0.857 0.374 -0.355
vn 0.664 0.695 -0.275
vn 0.372 0.916 -0.154
vn 0.719 -0.695 0
vn 0.556 -0.831 0
vn 0.927 -0.374 0
vn 1 0 0
vn 0.927 0.374 0
vn 0.719 0.695 0
vn 0.402 0.916 0
vn 0.664 -0.695 0.275
vn 0.513 -0.831 0.213
vn 0.857 -0.374 0.355
vn 0.924 0 0.383
vn 0.857 0.374 0.355
vn 0.664 0.695 0.275
vn 0.372 0.916 0.154
vn 0.508 -0.695 0.508
vn 0.393 -0.831 0.393
vn 0.656 -0.374 0.656
vn 0.707 0 0.707
vn 0.656 0.374 0.656
vn 0.508 0.695 0.508
vn 0.284 0.916 0.284
vn 0.275 -0.695 0.664
vn 0.213 -0.831 0.513
vn 0.355 -0.374 0.857
vn 0.383 0 0.924
vn 0.355 0.374 0.857
vn 0.275 0.695 0.664
vn 0.154 0.916 0.372
vn 0 -0.695 0.719
vn 0 -0.831 0.556
vn 0 -0.374 0.927
vn 0 0 1
vn 0 0.374 0.927
vn 0 0.695 0.719
vn 0 0.916 0.402
vn -0.275 -0.695 0.664
vn -0.213 -0.831 0.513
vn -0.355 -0.374 0.857
vn -0.383 0 0.924
vn -0.355 0.374 0.857
vn -0.275 0.695 0.664
vn -0.154 0.916 0.372
vn -0.508 -0.695 0.508
vn -0.393 -0.831 0.393
vn -0.656 -0.374 0.656
vn -0.707 0 0.707
vn -0.656 0.374 0.656
vn -0.508 0.695 0.508
vn -0.284 0.916 0.284
vn -0.664 -0.695 0.275
vn -0.513 -0.831 0.213
vn -0.857 -0.374 0.355
vn -0.924 0 0.383
vn -0.857 0.374 0.355
vn -0.664 0.695 0.275
vn -0.372 0.916 0.154
vn 0.109 0.994 0
vn 0.101 0.994 0.042
vn 0.101 0.994 -0.042
vn 0.077 0.994 -0.077
vn 0.042 0.994 -0.101
vn 0 0.994 -0.109
vn -0.042 0.994 -0.101
vn -0.077 0.994 0.077
vn -0.101 0.994 0.042
vn -0.077 0.994 -0.077
vn -0.042 0.994 0.101
vn -0.101 0.994 -0.042
vn 0 0.994 0.109
vn -0.109 0.994 0
vn 0.042 0.994 0.101
vn 0.077 0.994 0.077
vn 0 1 0
g 3
s 1
f 39/17/13 38/18/14 45/19/15 46/20/16
f 38/18/14 37/21/17 44/22/18 45/19/15
f 37/21/17 36/23/19 43/24/20 44/22/18
f 36/23/19 35/25/21 42/26/22 43/24/20
f 35/25/21 34/27/23 41/28/24 42/26/22
f 34/27/23 33/29/25 40/30/26 41/28/24
f 46/20/16 45/19/15 52/31/27 53/32/28
f 45/19/15 44/22/18 51/33/29 52/31/27
f 44/22/18 43/24/20 50/34/30 51/33/29
f 43/24/20 42/26/22 49/35/31 50/34/30
f 42/26/22 41/28/24 48/36/32 49/35/31
f 41/28/24 40/30/26 47/37/33 48/36/32
f 53/32/28 52/31/27 59/38/34 60/39/35
f 52/31/27 51/33/29 58/40/36 59/38/34
f 51/33/29 50/34/30 57/41/37 58/40/36
f 50/34/30 49/35/31 56/42/38 57/41/37
f 49/35/31 48/36/32 55/43/39 56/42/38
f 48/36/32 47/37/33 54/44/40 55/43/39
f 60/39/35 59/38/34 66/45/41 67/46/42
f 59/38/34 58/40/36 65/47/43 66/45/41
f 58/40/36 57/41/37 64/48/44 65/47/43
f 57/41/37 56/42/38 63/49/45 64/48/44
f 56/42/38 55/43/39 62/50/46 63/49/45
f 55/43/39 54/44/40 61/51/47 62/50/46
f 67/46/42 66/45/41 73/52/48 74/53/49
f 66/45/41 65/47/43 72/54/50 73/52/48
f 65/47/43 64/48/44 71/55/51 72/54/50
f 64/48/44 63/49/45 70/56/52 71/55/51
f 63/49/45 62/50/46 69/57/53 70/56/52
f 62/50/46 61/51/47 68/58/54 69/57/53
f 74/53/49 73/52/48 80/59/55 81/60/56
f 73/52/48 72/54/50 79/61/57 80/59/55
f 72/54/50 71/55/51 78/62/58 79/61/57
f 71/55/51 70/56/52 77/63/59 78/62/58
f 70/56/52 69/57/53 76/64/60 77/63/59
f 69/57/53 68/58/54 75/65/61 76/64/60
f 81/60/56 80/59/55 87/66/62 88/67/63
f 80/59/55 79/61/57 86/68/64 87/66/62
f 79/61/57 78/62/58 85/69/65 86/68/64
f 78/62/58 77/63/59 84/70/66 85/69/65
f 77/63/59 76/64/60 83/71/67 84/70/66
f 76/64/60 75/65/61 82/72/68 83/71/67
f 88/67/63 87/66/62 94/73/69 95/74/70
f 87/66/62 86/68/64 93/75/71 94/73/69
f 86/68/64 85/69/65 92/76/72 93/75/71
f 85/69/65 84/70/66 91/77/73 92/76/72
f 84/70/66 83/71/67 90/78/74 91/77/73
f 83/71/67 82/72/68 89/79/75 90/78/74
f 95/74/70 94/73/69 101/80/76 102/81/77
f 94/73/69 93/75/71 100/82/78 101/80/76
f 93/75/71 92/76/72 99/83/79 100/82/78
f 92/76/72 91/77/73 98/84/80 99/83/79
f 91/77/73 90/78/74 97/85/81 98/84/80
f 90/78/74 89/79/75 96/86/82 97/85/81
f 102/81/77 101/80/76 108/87/83 109/88/84
f 101/80/76 100/82/78 107/89/85 108/87/83
f 100/82/78 99/83/79 106/90/86 107/89/85
f 99/83/79 98/84/80 105/91/87 106/90/86
f 98/84/80 97/85/81 104/92/88 105/91/87
f 97/85/81 96/86/82 103/93/89 104/92/88
f 109/88/84 108/87/83 115/94/90 116/95/91
f 108/87/83 107/89/85 114/96/92 115/94/90
f 107/89/85 106/90/86 113/97/93 114/96/92
f 106/90/86 105/91/87 112/98/94 113/97/93
f 105/91/87 104/92/88 111/99/95 112/98/94
f 104/92/88 103/93/89 110/100/96 111/99/95
f 116/95/91 115/94/90 122/101/97 123/102/98
f 115/94/90 114/96/92 121/103/99 122/101/97
f 114/96/92 113/97/93 120/104/100 121/103/99
f 113/97/93 112/98/94 119/105/101 120/104/100
f 112/98/94 111/99/95 118/106/102 119/105/101
f 111/99/95 110/100/96 117/107/103 118/106/102
f 123/108/98 122/109/97 129/110/104 130/111/105
f 122/109/97 121/112/99 128/113/106 129/110/104
f 121/112/99 120/114/100 127/115/107 128/113/106
f 120/114/100 119/116/101 126/117/108 127/115/107
f 119/116/101 118/118/102 125/119/109 126/117/108
f 118/118/102 117/120/103 124/121/110 125/119/109
f 130/111/105 129/110/104 136/122/111 137/123/112
f 129/110/104 128/113/106 135/124/113 136/122/111
f 128/113/106 127/115/107 134/125/114 135/124/113
f 127/115/107 126/117/108 133/126/115 134/125/114
f 126/117/108 125/119/109 132/127/116 133/126/115
f 125/119/109 124/121/110 131/128/117 132/127/116
f 137/123/112 136/122/111 143/129/118 144/130/119
f 136/122/111 135/124/113 142/131/120 143/129/118
f 135/124/113 134/125/114 141/132/121 142/131/120
f 134/125/114 133/126/115 140/133/122 141/132/121
f 133/126/115 132/127/116 139/134/123 140/133/122
f 132/127/116 131/128/117 138/135/124 139/134/123
f 144/130/119 143/129/118 38/18/14 39/17/13
f 143/129/118 142/131/120 37/21/17 38/18/14
f 142/131/120 141/132/121 36/23/19 37/21/17
f 141/132/121 140/133/122 35/25/21 36/23/19
f 140/133/122 139/134/123 34/27/23 35/25/21
f 139/134/123 138/135/124 33/29/25 34/27/23
f 96/136/82 89/137/75 153/138/125 154/139/126
f 89/137/75 82/140/68 152/141/127 153/138/125
f 82/140/68 75/142/61 151/143/128 152/141/127
f 75/142/61 68/144/54 150/145/129 151/143/128
f 68/144/54 61/146/47 149/147/130 150/145/129
f 61/146/47 54/148/40 148/149/131 149/147/130
f 138/150/124 131/151/117 159/152/132 160/153/133
f 54/148/40 47/154/33 147/155/134 148/149/131
f 131/151/117 124/156/110 158/157/135 159/152/132
f 47/154/33 40/158/26 146/159/136 147/155/134
f 124/156/110 117/160/103 157/161/137 158/157/135
f 33/162/25 138/150/124 160/153/133 145/163/138
f 40/158/26 33/162/25 145/163/138 146/159/136
f 117/160/103 110/164/96 156/165/139 157/161/137
f 110/164/96 103/166/89 155/167/140 156/165/139
f 103/166/89 96/136/82 154/139/126 155/167/140
f 145/163/138 160/153/133 161/168/141
f 160/153/133 159/152/132 161/168/141
f 159/152/132 158/157/135 161/168/141
f 158/157/135 157/161/137 161/168/141
f 157/161/137 156/165/139 161/168/141
f 156/165/139 155/167/140 161/168/141
f 155/167/140 154/139/126 161/168/141
f 154/139/126 153/138/125 161/168/141
f 153/138/125 152/141/127 161/168/141
f 152/141/127 151/143/128 161/168/141
f 151/143/128 150/145/129 161/168/141
f 150/145/129 149/147/130 161/168/141
f 149/147/130 148/149/131 161/168/141
f 148/149/131 147/155/134 161/168/141
f 147/155/134 146/159/136 161/168/141
f 146/159/136 145/163/138 161/168/141
