v 0.5 0.083 0.326
v 0.5 0.204 0.348
v 0.5 0.199 0.375
v 0.5 0.079 0.352
v -1.5 0.204 0.348
v -1.5 0.199 0.375
v -1.5 0.083 0.326
v -1.5 0.079 0.352
v 0.5 0.229 0.353
v 0.5 0.35 0.375
v 0.5 0.345 0.402
v 0.5 0.225 0.379
v -1.5 0.35 0.375
v -1.5 0.345 0.402
v -1.5 0.229 0.353
v -1.5 0.225 0.379
v 0.5 0.378 0.38
v 0.5 0.498 0.402
v 0.5 0.494 0.429
v 0.5 0.373 0.407
v -1.5 0.498 0.402
v -1.5 0.494 0.429
v -1.5 0.378 0.38
v -1.5 0.373 0.407
v 0.5 -0.013 0.162
v 0.5 -0.013 0.289
v 0.5 -0.039 0.289
v 0.5 -0.039 0.162
v -1.5 -0.013 0.289
v -1.5 -0.039 0.289
v -1.5 -0.013 0.162
v -1.5 -0.039 0.162
v 0.5 -0.013 0.006
v 0.5 -0.013 0.132
v 0.5 -0.039 0.132
v 0.5 -0.039 0.006
v -1.5 -0.013 0.132
v -1.5 -0.039 0.132
v -1.5 -0.013 0.006
v -1.5 -0.039 0.006
v 0.5 -0.013 -0.149
v 0.5 -0.013 -0.022
v 0.5 -0.039 -0.022
v 0.5 -0.039 -0.149
v -1.5 -0.013 -0.022
v -1.5 -0.039 -0.022
v -1.5 -0.013 -0.149
v -1.5 -0.039 -0.149
v 0.32 -0.038 0.337
v 0.32 -0.005 0.337
v 0.371 -0.005 0.337
v 0.371 -0.038 0.337
v 0.32 0.477 0.426
v 0.371 0.477 0.426
v 0.32 0.477 0.46
v 0.371 0.477 0.46
v 0.32 -0.5 0.46
v 0.371 -0.5 0.46
v 0.371 -0.118 0.003
v 0.371 -0.118 0.337
v 0.32 -0.118 -0.098
v 0.32 -0.038 -0.098
v 0.371 -0.038 -0.098
v 0.371 -0.118 -0.098
v 0.371 -0.5 -0.186
v 0.32 -0.5 -0.186
v 0.371 -0.5 0.337
v -1.375 -0.118 -0.098
v -1.324 -0.118 -0.098
v -1.324 -0.5 -0.186
v -1.375 -0.5 -0.186
v -1.324 -0.038 -0.098
v -1.375 -0.038 -0.098
v -1.324 -0.5 0.46
v -1.324 -0.5 0.337
v -1.324 -0.118 0.337
v -1.324 -0.118 0.003
v -1.324 -0.038 0.337
v -1.324 0.477 0.46
v -1.375 0.477 0.46
v -1.375 -0.5 0.46
v -1.375 -0.118 0.003
v -1.375 -0.5 -0.085
v -1.324 -0.5 -0.085
v -1.375 -0.118 0.337
v -1.324 -0.005 0.337
v -1.375 -0.005 0.337
v -1.375 0.477 0.426
v -1.324 0.477 0.426
v -1.375 -0.038 0.337
v -1.375 -0.5 0.337
v 0.32 -0.5 0.337
v 0.32 -0.118 0.337
v 0.32 -0.118 0.003
v 0.32 -0.5 -0.085
v 0.371 -0.5 -0.085
v -0.5 0.083 0.326
v -0.5 -0.013 0.006
v -0.5 0.498 0.402
v -0.5 0.494 0.429
v -0.5 -0.039 -0.149
v -0.5 0.373 0.407
v -0.5 -0.013 0.289
v -0.5 -0.039 0.289
v -0.5 -0.039 0.162
v -0.5 0.35 0.375
v -0.5 -0.013 -0.022
v -0.5 0.345 0.402
v -0.5 -0.039 0.006
v -0.5 0.225 0.379
v -0.5 0.378 0.38
v -0.5 -0.013 0.162
v -0.5 -0.039 -0.022
v -0.5 0.204 0.348
v -0.5 -0.013 0.132
v -0.5 0.199 0.375
v -0.5 0.079 0.352
v -0.5 0.229 0.353
v -0.5 -0.013 -0.149
v -0.5 -0.039 0.132
vt 0.063 0.125
vt 0.063 0.25
vt 0 0.25
vt 0 0.125
vt 1 0.813
vt 0 0.813
vt 0 0.75
vt 1 0.75
vt 0.938 0.25
vt 0.938 0.125
vt 1 0.125
vt 1 0.25
vt 1 0.875
vt 0 0.875
vt 1 0
vt 0 0
vt 0 0.625
vt 0 0.5
vt 1 0.5
vt 1 0.625
vt 0.063 0.313
vt 0.063 0.438
vt 0 0.438
vt 0 0.313
vt 0 0.688
vt 1 0.688
vt 0.938 0.438
vt 0.938 0.313
vt 1 0.313
vt 1 0.438
vt 1 0.938
vt 0 0.938
vt 1 0.188
vt 0 0.188
vt 0.063 0.5
vt 0.063 0.625
vt 0.938 0.625
vt 0.938 0.5
vt 1 1
vt 0 1
vt 1 0.375
vt 0 0.375
vt 0.25 0.063
vt 0.125 0.063
vt 0.125 0
vt 0.25 0
vt 0 0.063
vt 1 0.063
vt 0.875 0.063
vt 0.75 0.063
vt 0.75 0
vt 0.875 0
vt 0.438 0.063
vt 0.313 0.063
vt 0.313 0
vt 0.438 0
vt 0.688 0.063
vt 0.563 0.063
vt 0.563 0
vt 0.688 0
vt 0.625 0.063
vt 0.5 0.063
vt 0.5 0
vt 0.625 0
vt 0.375 0.063
vt 0.375 0
vt 1 0.563
vt 0 0.563
vt 0.125 0.375
vt 0.125 0.438
vt 0.063 0.375
vt 0.125 1
vt 0.063 1
vt 0.875 1
vt 0.875 0.938
vt 0.938 0.938
vt 0.938 1
vt 0.063 0
vt 0 0.998
vt 0 0
vt 0.126 0
vt 0.126 0.39
vt 0.126 0.471
vt 0.126 0.506
vt 0.035 0.998
vt 0.938 0.375
vt 0.875 0.375
vt 0.938 0
vt 0.938 0.688
vt 0.875 0.688
vt 0.875 0.25
vt 0.875 0.438
vt 0.874 0.39
vt 0.874 0.471
vt 0.43 0.471
vt 0.43 0.39
vt 0.533 0.39
vt 0.125 0.125
vt 0.063 0.938
vt 0.125 0.938
vt 0.875 0.125
vt 0.57 0.39
vt 0.467 0.39
vt 0.557 0
vt 0.66 0
vt 0.443 0
vt 0.34 0
vt 0.874 0.506
vt 0.874 0
vt 1 0
vt 1 0.998
vt 0.965 0.998
vt 0.875 0.5
vt 0.57 0.471
vt 0.125 0.5
vt 0.125 0.25
vt 0.125 0.688
vt 0.063 0.688
vn 1 0 0
vn 0 0.986 0.169
vn -1 0 0
vn 0 -0.986 -0.169
vn 0 -0.182 0.983
vn 0 0.182 -0.983
vn 0 0.986 0.169
vn 0 0 1
vn 0 0 -1
vn 0 -1 0
vn 0 1 0
vn 0 0.182 -0.983
vn 0 0.224 -0.974
vn 0 -0.224 0.975
g 1
s off
f 1/1/1 2/2/1 3/3/1 4/4/1
f 114/5/2 5/6/2 6/7/2 116/8/2
f 5/9/3 7/10/3 8/11/3 6/12/3
f 97/6/4 1/5/4 4/13/4 117/14/4
f 117/15/5 116/11/5 6/4/5 8/16/5
f 114/17/6 97/18/6 7/19/6 5/20/6
f 9/21/1 10/22/1 11/23/1 12/24/1
f 106/8/7 13/7/7 14/25/7 108/26/7
f 13/27/3 15/28/3 16/29/3 14/30/3
f 118/14/4 9/13/4 12/31/4 110/32/4
f 110/33/5 108/29/5 14/24/5 16/34/5
f 118/26/6 106/5/6 10/6/6 9/25/6
f 17/35/1 18/36/1 19/17/1 20/18/1
f 99/26/2 21/25/2 22/17/2 100/20/2
f 21/37/3 23/38/3 24/19/3 22/20/3
f 111/32/4 17/31/4 20/39/4 102/40/4
f 102/41/5 100/19/5 22/18/5 24/42/5
f 111/13/6 99/39/6 18/40/6 17/14/6
f 25/43/1 26/44/1 27/45/1 28/46/1
f 103/11/8 29/4/8 30/47/8 104/48/8
f 29/49/3 31/50/3 32/51/3 30/52/3
f 112/48/9 25/47/9 28/16/9 105/15/9
f 105/13/10 104/39/10 30/40/10 32/14/10
f 112/4/11 103/16/11 26/15/11 25/11/11
f 33/53/1 34/54/1 35/55/1 36/56/1
f 115/11/8 37/4/8 38/47/8 120/48/8
f 37/57/3 39/58/3 40/59/3 38/60/3
f 98/48/9 33/47/9 36/16/9 109/15/9
f 109/26/10 120/5/10 38/6/10 40/25/10
f 98/24/11 115/34/11 34/33/11 33/29/11
f 41/61/1 42/62/1 43/63/1 44/64/1
f 107/11/8 45/4/8 46/47/8 113/48/8
f 45/62/3 47/65/3 48/66/3 46/63/3
f 119/48/9 41/47/9 44/16/9 101/15/9
f 101/30/10 113/67/10 46/68/10 48/23/10
f 119/18/11 107/42/11 42/41/11 41/19/11
f 47/18/11 45/42/11 107/41/11 119/19/11
f 44/19/10 43/20/10 113/17/10 101/18/10
f 47/48/9 119/47/9 101/16/9 48/15/9
f 42/11/8 107/4/8 113/47/8 43/48/8
f 39/24/11 37/34/11 115/33/11 98/29/11
f 36/26/10 35/5/10 120/6/10 109/25/10
f 39/48/9 98/47/9 109/16/9 40/15/9
f 34/11/8 115/4/8 120/47/8 35/48/8
f 31/4/11 29/16/11 103/15/11 112/11/11
f 28/13/10 27/39/10 104/40/10 105/14/10
f 31/48/9 112/47/9 105/16/9 32/15/9
f 26/11/8 103/4/8 104/47/8 27/48/8
f 23/13/6 21/39/6 99/40/6 111/14/6
f 20/41/5 19/19/5 100/18/5 102/42/5
f 23/32/4 111/31/4 102/39/4 24/40/4
f 18/26/2 99/25/2 100/17/2 19/20/2
f 15/26/6 13/5/6 106/6/6 118/25/6
f 12/33/5 11/29/5 108/24/5 110/34/5
f 15/14/4 118/13/4 110/31/4 16/32/4
f 10/8/7 106/7/7 108/25/7 11/26/7
f 2/17/6 1/18/6 97/19/6 114/20/6
f 4/15/5 3/11/5 116/4/5 117/16/5
f 7/6/4 97/5/4 117/13/4 8/14/4
f 2/5/2 114/6/2 116/7/2 3/8/2
g 2
f 49/69/9 50/70/9 51/22/9 52/71/9
f 51/22/12 50/70/12 53/72/12 54/73/12
f 53/74/11 55/75/11 56/76/11 54/77/11
f 61/69/9 62/70/9 63/22/9 64/71/9
f 61/69/13 64/71/13 65/78/13 66/45/13
f 79/79/1 74/80/1 75/81/1 76/82/1 78/83/1 86/84/1 89/85/1
f 68/86/13 69/87/13 70/52/13 71/88/13
f 52/9/11 63/89/11 62/90/11 49/91/11
f 68/86/9 73/27/9 72/92/9 69/87/9
f 93/93/3 49/94/3 62/95/3 61/96/3 94/97/3
f 82/22/14 83/78/14 84/45/14 77/70/14
f 85/71/10 82/1/10 77/98/10 76/69/10
f 86/92/12 87/27/12 88/77/12 89/74/12
f 90/86/9 87/27/9 86/92/9 78/87/9
f 88/73/11 80/99/11 79/100/11 89/72/11
f 76/87/9 75/52/9 91/88/9 85/86/9
f 60/71/9 67/78/9 92/45/9 93/69/9
f 93/87/10 94/101/10 59/10/10 60/86/10
f 94/92/14 95/52/14 96/88/14 59/27/14
f 64/102/1 59/103/1 96/104/1 65/105/1
f 95/106/3 94/97/3 61/96/3 66/107/3
f 85/93/3 90/94/3 73/95/3 68/96/3 82/97/3
f 50/108/3 49/94/3 93/93/3 92/109/3 57/110/3 55/111/3 53/112/3
f 58/80/1 67/81/1 60/82/1 52/83/1 51/84/1 54/85/1 56/79/1
f 65/88/10 96/10/10 95/101/10 66/52/10
f 58/38/10 57/113/10 92/87/10 67/86/10
f 80/111/3 88/112/3 87/108/3 90/94/3 85/93/3 91/109/3 81/110/3
f 69/102/1 77/103/1 84/104/1 70/105/1
f 83/106/3 82/97/3 68/96/3 71/107/3
f 59/103/1 64/102/1 63/114/1 52/83/1 60/82/1
f 70/45/10 84/98/10 83/1/10 71/78/10
f 74/115/10 81/35/10 91/71/10 75/69/10
f 81/78/8 74/45/8 79/72/8 80/73/8
f 55/74/8 57/52/8 58/88/8 56/77/8
f 77/103/1 69/102/1 72/114/1 78/83/1 76/82/1
f 90/2/11 78/116/11 72/117/11 73/118/11
