v -0.187 -0.312 -0.125
v -0.187 0.313 -0.125
v 0.313 -0.312 -0.5
v 0.188 -0.312 -0.5
v 0.188 -0.187 -0.5
v 0.313 -0.187 -0.5
v 0.313 -0.312 -0.125
v 0.188 -0.312 -0.125
v 0.188 -0.187 -0.125
v 0.313 -0.187 -0.125
v 0.313 0.188 -0.5
v 0.188 0.188 -0.5
v 0.188 0.313 -0.5
v 0.313 0.188 -0.125
v 0.188 0.188 -0.125
v 0.188 0.313 -0.125
v 0.313 0.313 -0.125
v -0.187 -0.312 -0.062
v 0.313 -0.312 -0.062
v 0.313 0.313 -0.062
v -0.187 -0.312 0
v -0.187 0.313 0
v 0.313 -0.312 0
v 0.313 0.313 0
v -0.312 -0.312 0.5
v -0.187 -0.312 0.5
v -0.187 -0.187 0.5
v -0.312 -0.187 0.5
v -0.312 0.188 0.5
v -0.187 0.188 0.5
v -0.187 0.313 0.5
v -0.312 0.313 0.5
v -0.187 0.313 -0.062
v -0.258 -0.187 0.438
v -0.258 0.188 0.438
v -0.258 -0.187 0.063
v -0.258 0.188 0.063
v -0.242 -0.187 0.438
v -0.242 0.188 0.438
v -0.242 -0.187 0.063
v -0.242 0.188 0.063
v 0.313 0.188 -0.5
v 0.188 0.188 -0.5
v 0.188 0.313 -0.5
v 0.313 0.313 -0.5
v 0.313 0.188 -0.125
v 0.188 0.313 -0.125
v 0.313 0.313 -0.125
v -0.187 -0.312 -0.5
v -0.312 -0.187 -0.5
v -0.187 -0.187 -0.5
v -0.187 -0.312 0.5
v -0.312 -0.187 0.5
v -0.187 -0.187 0.5
v -0.187 0.188 0.5
v -0.187 0.313 -0.5
v -0.312 -0.312 0.5
v -0.187 -0.312 0.5
v -0.187 -0.187 -0.5
v -0.312 -0.187 -0.5
v -0.312 -0.312 -0.5
v -0.187 -0.312 -0.5
v -0.312 0.313 -0.5
v -0.312 0.188 -0.5
v -0.187 0.188 -0.5
v -0.312 -0.187 0.5
v -0.312 0.188 0.5
v -0.312 0.313 0.5
v -0.187 0.313 0.5
v -0.187 0.188 -0.125
v -0.187 0.188 0
v -0.187 -0.187 -0.125
v -0.187 -0.187 0
v -0.312 0.188 -0.125
v -0.312 0.188 0
v -0.312 -0.187 -0.125
v -0.312 -0.187 -0.062
v -0.312 -0.187 0
v -0.312 0.188 -0.062
vt 0.125 0.375
vt 0.625 0.375
vt 0.625 0.438
vt 0.125 0.438
vt 0.188 0.375
vt 0.813 0.375
vt 0.813 0.438
vt 0.188 0.438
vt 0.5 0.375
vt 0.5 0
vt 0.625 0
vt 0.688 0.375
vt 0.688 0
vt 0.813 0
vt 0.375 0.375
vt 0.375 0
vt 0.313 0.375
vt 0.188 0
vt 0.313 0
vt 0.188 0.813
vt 0.188 0.688
vt 0.313 0.688
vt 0.313 0.813
vt 0.813 0.813
vt 0.188 0.188
vt 0.813 0.188
vt 0.188 1
vt 0.188 0.875
vt 0.313 0.875
vt 0.313 1
vt 0.688 1
vt 0.688 0.875
vt 0.813 0.875
vt 0.813 1
vt 0.313 0.563
vt 0.688 0.563
vt 0.688 0.938
vt 0.313 0.938
vt 0.313 0.969
vt 0.313 0.906
vt 0.688 0.906
vt 0.688 0.969
vt 0.688 0.813
vt 0.688 0.688
vt 0.813 0.688
vt 0.875 0.375
vt 0.875 0.438
vt 0.375 0.438
vt 1 1
vt 0.875 1
vt 0.875 0
vt 1 0
vt 0.125 1
vt 0 1
vt 0 0
vt 0.125 0
vt 0.188 0.313
vt 0.313 0.188
vt 0.313 0.313
vt 0.688 0.313
vt 0.688 0.188
vt 0.813 0.313
vt 0.688 0.438
vt 0.313 0.438
vt 0.233 0
vt 0.25 0.938
vt 0.75 0.938
vt 0.75 1
vt 0.25 1
vt 0.25 0.688
vt 0.75 0.688
vt 0.75 0.75
vt 0.25 0.75
vt 0.313 0.625
vt 0.688 0.625
vn 0 -1 0
vn 1 0 0
vn -1 0 0
vn 0 1 0
vn 0 0 -1
vn 0 0 1
g 1
s off
f 1/1/1 7/2/1 19/3/1 18/4/1
f 7/5/2 17/6/2 20/7/2 19/8/2
f 7/2/1 8/9/1 4/10/1 3/11/1
f 8/6/3 9/12/3 5/13/3 4/14/3
f 9/9/4 10/15/4 6/16/4 5/10/4
f 10/17/2 7/5/2 3/18/2 6/19/2
f 3/20/5 4/21/5 5/22/5 6/23/5
f 14/2/1 15/9/1 12/10/1 11/11/1
f 15/17/3 16/5/3 13/18/3 12/19/3
f 17/24/5 7/20/5 1/25/5 2/26/5
f 25/27/6 26/28/6 27/29/6 28/30/6
f 29/31/6 30/32/6 31/33/6 32/34/6
f 37/35/3 36/36/3 34/37/3 35/38/3
f 41/36/2 39/37/2 38/38/2 40/35/2
f 34/39/6 38/40/6 39/41/6 35/42/6
f 37/40/5 41/41/5 40/42/5 36/39/5
f 42/43/5 43/44/5 44/45/5 45/24/5
f 48/6/2 46/12/2 42/13/2 45/14/2
f 17/15/4 2/46/4 33/47/4 20/48/4
f 47/9/4 48/15/4 45/16/4 44/10/4
f 53/49/4 54/50/4 51/51/4 50/52/4
f 54/30/2 52/27/2 49/18/2 51/19/2
f 55/53/1 67/54/1 64/55/1 65/56/1
f 62/57/5 61/25/5 60/58/5 59/59/5
f 65/60/5 64/61/5 63/26/5 56/62/5
f 57/34/3 66/31/3 60/13/3 61/14/3
f 58/53/1 57/54/1 61/55/1 62/56/1
f 69/34/2 55/31/2 65/13/2 56/14/2
f 68/49/4 69/50/4 56/51/4 63/52/4
f 67/30/3 68/27/3 63/18/3 64/19/3
f 77/63/3 79/64/3 74/17/3 76/12/3
f 70/65/5 72/65/5 76/65/5 74/65/5
f 72/65/2 70/65/2 71/65/2 73/65/2
g 2
f 19/20/2 20/24/2 24/33/2 23/28/2
f 24/20/6 22/57/6 21/62/6 23/24/6
f 18/66/1 19/67/1 23/68/1 21/69/1
f 20/70/4 33/71/4 22/72/4 24/73/4
f 77/74/3 78/35/3 75/36/3 79/75/3
f 73/60/6 71/59/6 75/58/6 78/61/6
