v -0.312 -0.465 0.234
v -0.465 0.5 0.461
v 0.438 0.313 0.188
v -0.316 -0.5 0.422
v -0.496 -0.5 0.422
v -0.312 -0.312 -0.078
v 0.5 -0.312 -0.078
v 0.5 -0.496 0.188
v -0.312 -0.5 0.188
v -0.312 -0.312 0.188
v 0.5 -0.316 0.188
v -0.348 0.5 0.461
v -0.406 0.5 0.477
v -0.25 0.313 -0.062
v -0.312 0.348 0.234
v -0.5 0.438 0.438
v -0.312 0.438 0.438
v -0.312 0.313 -0.078
v 0.5 -0.465 0.219
v -0.312 -0.348 0.234
v 0.5 -0.348 0.219
v 0.438 0.313 -0.062
v 0.5 -0.406 0.234
v -0.312 -0.406 0.25
v -0.406 -0.5 0.477
v -0.406 0.438 0.5
v -0.465 -0.5 0.461
v -0.348 0.438 0.484
v -0.348 -0.5 0.461
v -0.465 0.438 0.484
v -0.312 0 -0.039
v 0.5 0 -0.039
v 0.5 0.313 -0.078
v 0.5 0.348 0.219
v 0.5 -0.25 -0.047
v -0.312 -0.25 -0.047
v 0.438 0 0
v 0.438 -0.312 -0.062
v 0.438 -0.25 -0.016
v -0.25 0 0
v -0.25 -0.312 -0.062
v -0.25 -0.25 -0.016
v -0.229 2.426 -0.153
v 0.438 -0.5 0.188
v 0.438 -0.312 0.188
v -0.316 0.5 0.422
v -0.312 0.313 0.188
v 0.438 -0.465 0.234
v -0.496 0.5 0.422
v 0.438 -0.348 0.234
v 0.5 0.316 0.188
v 0.438 -0.406 0.25
v -0.312 0.313 -0.078
v -0.312 -0.437 0.438
v -0.5 -0.437 0.438
v -0.312 0 0.438
v -0.406 -0.437 0.5
v -0.348 -0.437 0.484
v -0.465 -0.437 0.484
v -0.5 0.5 -0.187
v 0.5 0 -0.187
v -0.5 -0.5 -0.187
v 0.5 0.313 -0.078
v 0.5 0.5 -0.187
v 0.5 -0.5 -0.187
v 0.438 0.465 0.234
v 0.438 0.348 0.234
v -0.5 -0.5 -0.375
v 0.5 -0.5 -0.375
v 0.438 -0.437 -0.5
v 0.375 -0.437 -0.5
v 0.375 -0.375 -0.5
v 0.438 -0.375 -0.5
v 0.438 -0.437 -0.375
v 0.375 -0.437 -0.375
v 0.375 -0.375 -0.375
v 0.438 -0.375 -0.375
v 0.438 0.5 0.188
v -0.465 0.5 0.461
v -0.348 0.5 0.461
v -0.406 0.5 0.477
v -0.312 0.406 0.25
v 0.5 0.406 0.234
v -0.312 0.465 0.234
v 0.5 0.496 0.188
v -0.375 -0.437 -0.5
v -0.437 -0.437 -0.5
v -0.437 -0.375 -0.5
v -0.375 -0.375 -0.5
v -0.375 -0.437 -0.375
v -0.437 -0.437 -0.375
v -0.437 -0.375 -0.375
v -0.375 -0.375 -0.375
v -0.312 0.5 0.188
v 0.5 0.316 0.188
v 0.5 0.313 -0.078
v -0.316 0.5 0.422
v -0.496 0.5 0.422
v 0.5 0.465 0.219
v -0.312 0.348 0.234
v 0.5 0.348 0.219
v -0.5 0.5 -0.375
v 0.5 0.5 -0.375
v -0.5 0.5 -0.187
v 0.5 0.5 -0.187
v 0.5 0.5 -0.375
v -0.5 0.5 -0.375
v 0.438 0.375 -0.5
v 0.375 0.375 -0.5
v 0.375 0.438 -0.5
v 0.438 0.438 -0.5
v 0.438 0.375 -0.375
v 0.375 0.375 -0.375
v 0.375 0.438 -0.375
v 0.438 0.438 -0.375
v -0.375 0.375 -0.5
v -0.437 0.375 -0.5
v -0.437 0.438 -0.5
v -0.375 0.438 -0.5
v -0.375 0.375 -0.375
v -0.437 0.375 -0.375
v -0.437 0.438 -0.375
v -0.375 0.438 -0.375
v 0.438 0.406 0.25
v -0.5 0.5 -0.187
v 0.5 0.5 -0.187
v 0.438 0.348 0.234
v -0.5 0.438 0.438
v -0.312 0.438 0.438
v -0.406 0.438 0.5
v -0.348 0.438 0.484
v -0.465 0.438 0.484
v -0.312 0 -0.039
v 0.5 0 -0.039
v 0.5 0.25 -0.047
v -0.312 0.25 -0.047
v 0.438 0 0
v 0.438 0.313 -0.062
v 0.438 0.25 -0.016
v -0.25 0 0
v -0.25 0.25 -0.016
v -0.25 0.313 -0.062
v -0.5 0 0.438
v -0.406 0 0.5
v -0.348 0 0.484
v -0.465 0 0.484
v -0.5 0 -0.187
vt 0.14 0.235
vt 0.14 0.272
vt 0.078 0.27
vt 0.062 0.262
vt 0.016 0.235
vt 0.703 0.563
vt 0.703 0.547
vt 0.719 0.547
vt 0.719 0.563
vt 0.75 0.203
vt 0.75 0.191
vt 0.766 0.187
vt 0.766 0.197
vt 0.305 0.885
vt 0.477 0.822
vt 0.493 0.885
vt 0.249 0.918
vt 0.063 0.918
vt 0.063 0.906
vt 0.249 0.906
vt 0.305 0.822
vt 0.517 0.906
vt 0.532 0.906
vt 0.532 0.918
vt 0.517 0.914
vt 0.031 0.563
vt 0.031 0.75
vt 0.016 0.75
vt 0.016 0.563
vt 0.063 0.563
vt 0.063 0.75
vt 0.047 0.75
vt 0.047 0.563
vt 0.75 0.504
vt 0.75 0.516
vt 0.641 0.516
vt 0.641 0.504
vt 0.727 0.453
vt 0.742 0.457
vt 0.765 0.5
vt 0.016 0.5
vt 0.039 0.457
vt 0.031 0.504
vt 0.063 0.734
vt 0.078 0.734
vt 0.078 0.75
vt 0.172 0.734
vt 0.172 0.75
vt 0.024 0.453
vt 0.493 0.818
vt 0.016 0.441
vt 0.641 0.235
vt 0.703 0.27
vt 0.641 0.272
vt 0.719 0.262
vt 0.29 0.885
vt 0.29 0.818
vt 0.148 0.766
vt 0.148 0.78
vt 0.031 0.78
vt 0.031 0.766
vt 0.016 0.197
vt 0.016 0.187
vt 0.032 0.191
vt 0.032 0.203
vt 0.728 0.974
vt 0.742 0.978
vt 0.742 0.984
vt 0.728 0.98
vt 0.757 0.974
vt 0.757 0.98
vt 0.054 0.98
vt 0.039 0.984
vt 0.039 0.978
vt 0.054 0.974
vt 0.031 0.516
vt 0.016 0.51
vt 0.025 0.98
vt 0.025 0.974
vt 0.609 0.563
vt 0.609 0.547
vt 0.757 0.453
vt 0.078 0.547
vt 0.172 0.547
vt 0.172 0.563
vt 0.078 0.563
vt 0.063 0.547
vt 0.054 0.453
vt 0.765 0.441
vt 0.719 0.441
vt 0.047 0.547
vt 0.031 0.547
vt 0.016 0.547
vt 0.765 0.51
vt 0.265 0.914
vt 0.265 0.906
vt 0.017 0.329
vt 0.024 0.336
vt 0.039 0.34
vt 0.054 0.336
vt 0.061 0.329
vt 0.148 0.75
vt 0.638 0.203
vt 0.638 0.191
vt 0.017 0.965
vt 0.062 0.965
vt 0.765 0.235
vt 0.016 0.813
vt 0.265 0.813
vt 0.062 0.441
vt 0.14 0.504
vt 0.477 0.977
vt 0.305 0.914
vt 0.477 0.914
vt 0.734 0.563
vt 0.734 0.75
vt 0.719 0.75
vt 0.734 0.547
vt 0.493 0.977
vt 0.493 0.911
vt 0.29 0.911
vt 0.29 0.977
vt 0.766 0.031
vt 0.766 0.547
vt 0.766 0.563
vt 0.75 0.563
vt 0.75 0.547
vt 0.72 0.329
vt 0.727 0.336
vt 0.742 0.34
vt 0.757 0.336
vt 0.764 0.329
vt 0.72 0.965
vt 0.719 0.906
vt 0.766 0.75
vt 0.75 0.75
vt 0.719 0.918
vt 0.764 0.965
vt 0.517 0.813
vt 0.765 0.813
vt 0.016 0.031
vt 0.703 0.734
vt 0.719 0.734
vt 0.609 0.734
vt 0.609 0.75
vt 0.703 0.75
vt 0.062 0.375
vt 0.078 0.383
vt 0.703 0.383
vt 0.719 0.375
vt 0.14 0.385
vt 0.641 0.385
vt 0.143 0.191
vt 0.143 0.203
vt 0.734 0.766
vt 0.617 0.766
vt 0.617 0.75
vt 0.734 0.78
vt 0.617 0.78
vt 0.14 0.516
vt 0.143 0.031
vt 0.638 0.031
vt 0 0.125
vt 1 0.125
vt 1 0.313
vt 0.5 0.313
vt 0 0.313
vt 0.938 0.125
vt 0.875 0.125
vt 0.875 0
vt 0.938 0
vt 0.125 0.125
vt 0.063 0.125
vt 0.063 0
vt 0.125 0
vt 0.063 0.938
vt 0.063 0.875
vt 0.125 0.875
vt 0.125 0.938
vt 0 1
vt 0 0
vt 1 0
vt 1 1
vt 0.063 0.063
vt 0.125 0.063
vt 0.875 0.938
vt 0.875 0.875
vt 0.938 0.875
vt 0.938 0.938
vt 0.875 0.063
vt 0.938 0.063
vn 1 0 0
vn 0.207 0.31 0.928
vn 0.806 0.193 0.56
vn 0.303 0.505 0.808
vn 0.16 0.558 0.815
vn -0.536 -0.147 0.831
vn -0.938 -0.076 0.339
vn -0.694 -0.69 0.205
vn -0.392 -0.746 0.538
vn 0.036 0.943 0.33
vn 0 1 0
vn 0.786 0.587 0.196
vn 0.091 -0.535 0.84
vn 0.78 -0.352 0.518
vn 0.106 -0.982 0.157
vn 0.042 -0.943 0.33
vn 0.017 1 0.004
vn 0.662 0.701 0.266
vn 0.042 0.943 0.33
vn 0.091 0.536 0.84
vn 0.718 0.387 0.578
vn 0.12 0 0.993
vn 0.768 -0.006 0.641
vn 0.789 0.344 0.509
vn 0.8 0 0.6
vn 0.56 0 0.829
vn 0.949 0 0.316
vn 0.924 -0.098 0.368
vn 0.768 0.006 0.641
vn 1 0.031 -0.005
vn 0.577 0.817 -0.001
vn 0.698 -0.687 0.202
vn 0.939 -0.078 0.336
vn -0.16 -0.557 0.815
vn -0.207 -0.31 0.928
vn -0.403 -0.297 0.865
vn -0.303 -0.505 0.808
vn -0.25 -0.053 0.967
vn -0.49 -0.041 0.871
vn 0.641 0.768 0
vn 0.859 0.024 0.512
vn 0.655 0.707 0.266
vn 0.849 0.529 0.004
vn 0 0 1
vn -0.56 0 0.829
vn 0 -0.173 0.985
vn -0.566 0.283 0.775
vn -0.773 0.211 0.598
vn -0.499 0.299 0.813
vn 0.566 0.283 0.775
vn 0 0.351 0.936
vn 0.499 0.299 0.813
vn 0.537 -0.147 0.831
vn 0 -0.779 0.627
vn 0.393 -0.746 0.538
vn 0.251 0.054 0.967
vn 0.78 0.352 0.518
vn 0.403 -0.297 0.865
vn 0.49 -0.041 0.871
vn 0.251 -0.053 0.967
vn 0.207 -0.31 0.928
vn 0.303 -0.505 0.808
vn 0.16 -0.557 0.815
vn 0.106 0.982 0.157
vn 0.786 -0.587 0.196
vn 0.741 0 0.671
vn 0.718 -0.387 0.578
vn 0.774 0.211 0.598
vn 0.662 -0.701 0.266
vn -0.949 0 0.316
vn 0.707 0.707 0.001
vn -0.707 -0.707 0
vn 0.553 -0.833 0.001
vn 0.036 -0.943 0.33
vn 0 -1 0
vn 0.017 -1 0.004
vn 0.049 -0.782 0.622
vn 0 -0.8 0.6
vn 0.104 -0.758 0.644
vn 0.073 -0.933 0.352
vn 0.032 -0.999 0.008
vn 0.641 -0.768 0
vn 0.897 -0.114 0.428
vn 0.121 -0.256 0.959
vn -0.573 0.819 0.004
vn -0.707 0.707 0
vn -1 0.027 0.003
vn -0.207 0.31 0.928
vn -0.16 0.558 0.815
vn -0.25 0.054 0.967
vn -0.49 0.041 0.871
vn -0.403 0.298 0.865
vn -0.303 0.505 0.808
vn -0.8 0 0.6
vn -1 0 0
vn 0 0 -1
g 1
s off
f 61/1/1 134/2/1 35/3/1
f 7/4/1 61/1/1 35/3/1
f 7/4/1 65/5/1 61/1/1
s 1
f 139/6/2 135/7/3 33/8/4 138/9/5
f 59/10/6 55/11/7 5/12/8 27/13/9
f 45/14/10 41/15/11 10/16/12
f 48/17/13 1/18/14 9/19/15 44/20/16
f 41/15/11 45/14/10 38/21/17
f 85/22/18 78/23/19 66/24/20 99/25/21
f 52/26/22 24/27/23 1/28/14 48/29/13
f 45/30/10 10/31/12 20/32/24 50/33/20
f 17/34/25 28/35/26 145/36/26 56/37/27
f 100/38/28 82/39/29 129/34/30
f 97/40/31 129/34/30 82/39/29
f 4/41/32 24/42/23 54/43/33
f 41/44/34 42/45/35 36/46/36 6/31/37
f 42/45/35 40/47/38 31/48/39 36/46/36
f 50/33/20 20/32/24 24/27/23 52/26/22
f 4/41/32 1/49/14 24/42/23
f 6/50/40 10/16/12 41/15/11
f 1/49/14 4/41/32 9/51/15
f 61/52/1 135/53/3 134/54/41
f 96/55/1 135/53/3 61/52/1
f 45/14/10 11/56/42 7/57/43 38/21/17
f 144/58/44 146/59/45 59/60/6 57/61/46
f 2/62/47 49/63/48 128/64/48 132/65/49
f 12/66/50 13/67/51 130/68/51 131/69/52
f 13/67/51 2/70/47 132/71/49 130/68/51
f 58/72/53 57/73/46 25/74/54 29/75/55
f 54/43/33 58/76/53 29/77/55 4/41/32
f 57/73/46 59/78/6 27/79/9 25/74/54
f 137/80/56 134/81/41 135/7/3 139/6/2
f 82/39/29 84/82/57 97/40/31
f 35/83/58 32/84/59 37/85/60 39/86/61
f 7/87/62 35/83/58 39/86/61 38/30/63
f 20/88/24 54/43/33 24/42/23
f 84/82/57 94/89/64 97/40/31
f 47/90/65 100/38/28 56/37/27
f 39/86/61 37/85/60 40/47/38 42/45/35
f 38/30/63 39/86/61 42/45/35 41/44/34
f 21/91/21 50/33/20 52/26/22 23/92/66
f 11/87/42 45/30/10 50/33/20 21/91/21
f 23/92/66 52/26/22 48/29/13 19/93/67
f 46/40/68 12/94/50 131/35/52 129/34/68
f 19/95/67 48/17/13 44/20/16 8/96/69
f 8/97/69 7/4/43 19/98/67
f 19/98/67 7/4/43 23/99/66
f 21/100/21 23/99/66 7/4/43
f 7/4/43 11/101/42 21/100/21
f 145/102/26 144/58/44 57/61/46 58/27/53
f 146/103/45 143/104/70 55/11/7 59/10/6
f 5/105/8 9/19/15 27/79/9
f 27/79/9 9/19/15 25/74/54
f 25/74/54 9/19/15 29/75/55
f 9/19/15 4/106/32 29/75/55
f 126/107/71 96/55/1 61/52/1
f 62/108/72 65/109/73 9/19/15
f 9/19/15 65/109/73 44/20/16
f 44/20/16 65/109/73 8/96/69
f 7/4/43 8/97/69 65/5/73
f 100/38/28 129/34/30 56/37/27
f 10/110/12 56/111/27 20/88/24
f 3/112/74 14/113/75 22/114/76
f 127/115/77 15/116/78 47/117/65 3/9/74
f 54/43/33 20/88/24 56/111/27
f 34/118/79 127/115/77 3/9/74 51/8/80
f 51/119/80 3/112/74 22/114/76 63/120/81
f 53/121/82 14/113/75 47/122/65
f 47/122/65 14/113/75 3/112/74
f 5/105/8 62/108/72 9/19/15
f 55/11/7 62/123/72 5/12/8
f 99/124/21 66/125/20 124/126/22 83/127/66
f 95/128/1 96/55/1 101/129/83
f 101/129/83 96/55/1 83/130/66
f 83/130/66 96/55/1 99/131/21
f 99/131/21 96/55/1 85/132/18
f 97/133/31 94/134/64 80/66/11
f 80/66/11 94/134/64 81/67/11
f 66/125/20 84/135/57 82/136/29 124/126/22
f 78/23/19 94/134/64 84/137/57 66/24/20
f 124/126/22 82/136/29 100/116/28 67/115/84
f 83/127/66 124/126/22 67/115/84 101/118/83
f 81/67/11 94/134/64 79/70/11
f 94/134/64 98/138/85 79/70/11
f 96/55/1 126/107/71 85/132/18
f 85/22/18 126/139/71 78/23/19
f 78/23/19 126/139/71 94/134/64
f 126/139/71 125/140/86 94/134/64
f 94/134/64 125/140/86 98/138/85
f 128/64/87 98/63/85 125/141/86
f 141/142/88 139/6/2 138/9/5 142/143/89
f 140/144/90 137/80/56 139/6/2 141/142/88
f 133/145/91 140/144/90 141/142/88 136/146/92
f 136/146/92 141/142/88 142/143/89 18/117/93
f 6/147/40 36/148/1 10/110/12
f 136/149/1 53/150/82 47/90/65
f 47/90/65 56/37/27 136/149/1
f 56/111/27 10/110/12 36/148/1
f 36/148/1 133/151/1 56/111/27
f 136/149/1 56/37/27 133/152/1
f 30/65/45 16/64/94 143/153/70 146/154/45
f 28/116/26 26/155/44 144/156/44 145/157/26
f 26/155/44 30/158/45 146/159/45 144/156/44
f 56/111/27 145/160/26 58/76/53 54/43/33
f 143/153/70 128/64/87 125/141/86
f 62/123/72 55/11/7 143/104/70
f 125/141/86 147/161/95 143/153/70
f 143/104/70 147/162/95 62/123/72
g 2
s off
f 69/163/1 103/164/1 64/165/1 61/166/1 65/167/1
f 68/163/75 69/164/75 65/165/75 62/167/75
f 68/164/95 62/165/95 60/167/95 102/163/95
f 74/168/75 75/169/75 71/170/75 70/171/75
f 75/168/95 76/169/95 72/170/95 71/171/95
f 76/172/11 77/173/11 73/174/11 72/175/11
f 77/172/1 74/173/1 70/174/1 73/175/1
f 70/176/96 71/177/96 72/178/96 73/179/96
f 69/180/96 68/181/96 102/182/96 103/183/96
f 90/172/75 91/173/75 87/174/75 86/175/75
f 91/168/95 92/169/95 88/170/95 87/171/95
f 92/168/11 93/169/11 89/170/11 88/171/11
f 93/172/1 90/173/1 86/174/1 89/175/1
f 86/173/96 87/184/96 88/185/96 89/172/96
f 106/163/11 107/164/11 104/165/11 105/167/11
f 112/168/75 113/169/75 109/170/75 108/171/75
f 113/172/95 114/173/95 110/174/95 109/175/95
f 114/172/11 115/173/11 111/174/11 110/175/11
f 115/168/1 112/169/1 108/170/1 111/171/1
f 108/186/96 109/187/96 110/188/96 111/189/96
f 120/172/75 121/173/75 117/174/75 116/175/75
f 121/172/95 122/173/95 118/174/95 117/175/95
f 122/168/11 123/169/11 119/170/11 118/171/11
f 123/168/1 120/169/1 116/170/1 119/171/1
f 116/169/96 117/190/96 118/191/96 119/168/96
