v 0.465 -0.312 0.234
v -1.348 0.5 0.219
v -1.348 -0.312 0.234
v -1.465 0.5 0.219
v 0.5 -0.316 0.422
v 0.5 -0.496 0.422
v -1.5 -0.496 0.422
v -1.5 -0.316 0.422
v 0.313 -0.312 -0.078
v 0.313 0.5 -0.078
v 0.496 0.5 0.188
v 0.5 -0.312 0.188
v 0.313 -0.312 0.188
v 0.316 0.5 0.188
v -1.312 0.5 -0.078
v -1.312 -0.312 -0.078
v -1.316 0.5 0.188
v -1.312 -0.312 0.188
v -1.5 -0.312 0.188
v -1.496 0.5 0.188
v -0.5 0.5 -0.078
v -0.5 -0.5 0.438
v -0.5 -0.312 0.438
v -0.5 -0.312 -0.078
v -1.465 -0.312 0.234
v 0.465 0.5 0.219
v 0.348 -0.312 0.234
v 0.348 0.5 0.219
v -1.406 0.5 0.234
v -1.406 -0.312 0.25
v 0.406 0.5 0.234
v 0.406 -0.312 0.25
v 0.5 -0.406 0.477
v -1.5 -0.406 0.477
v -0.5 -0.406 0.5
v 0.5 -0.465 0.461
v -1.5 -0.348 0.461
v -0.5 -0.348 0.484
v 0.5 -0.348 0.461
v -1.5 -0.465 0.461
v -0.5 -0.465 0.484
v -0.906 -0.312 -0.039
v -0.094 -0.312 -0.039
v -0.094 0.5 -0.039
v -0.906 0.5 -0.039
v -0.562 -0.312 -0.047
v -1.25 0.5 -0.047
v -0.437 -0.312 -0.047
v -0.437 0.5 -0.047
v 0.25 0.5 -0.047
v 0.25 -0.312 -0.047
v -1.25 -0.312 -0.047
v -0.562 0.5 -0.047
v -0.094 0.438 0
v -0.906 0.438 0
v 0.313 0.438 -0.062
v -1.312 0.438 -0.062
v -0.5 0.438 -0.062
v -0.562 0.438 -0.016
v 0.25 0.438 -0.016
v -1.25 0.438 -0.016
v -0.437 0.438 -0.016
v -0.094 -0.25 0
v -0.906 -0.25 0
v 0.313 -0.25 -0.062
v -0.562 -0.25 -0.016
v 0.25 -0.25 -0.016
v -1.25 -0.25 -0.016
v -0.437 -0.25 -0.016
v -1.312 -0.25 -0.062
v -0.5 -0.25 -0.062
v -2.426 -0.229 -0.153
v 0.5 0.438 0.188
v 0.313 0.438 0.188
v -1.312 0.438 0.188
v -1.5 0.438 0.188
v 0.465 0.438 0.234
v -1.348 0.438 0.234
v 0.348 0.438 0.234
v -1.465 0.438 0.234
v 0.406 0.438 0.25
v -1.406 0.438 0.25
v 0.438 -0.312 0.438
v -1.437 -0.5 0.438
v 0.438 -0.5 0.438
v -1.437 -0.312 0.438
v -1.437 -0.406 0.5
v 0.438 -0.406 0.5
v 0.438 -0.348 0.484
v -1.437 -0.348 0.484
v -1.437 -0.465 0.484
v 0.438 -0.465 0.484
v -0.5 -0.5 -0.187
v -1.5 -0.5 -0.187
v 0.5 -0.5 -0.187
v -1.5 0.5 -0.187
v -0.5 0.5 -0.187
v 0.5 0.5 -0.187
v -1.5 0.5 -0.375
v -1.5 -0.5 -0.375
v 0.5 -0.5 -0.375
v 0.5 0.5 -0.375
v 0.438 0.438 -0.5
v 0.438 0.375 -0.5
v 0.375 0.375 -0.5
v 0.375 0.438 -0.5
v 0.438 0.438 -0.375
v 0.438 0.375 -0.375
v 0.375 0.375 -0.375
v 0.375 0.438 -0.375
v -1.375 0.438 -0.5
v -1.375 0.375 -0.5
v -1.437 0.375 -0.5
v -1.437 0.438 -0.5
v -1.375 0.438 -0.375
v -1.375 0.375 -0.375
v -1.437 0.375 -0.375
v -1.437 0.438 -0.375
v 0.438 -0.375 -0.5
v 0.438 -0.437 -0.5
v 0.375 -0.437 -0.5
v 0.375 -0.375 -0.5
v 0.438 -0.375 -0.375
v 0.438 -0.437 -0.375
v 0.375 -0.437 -0.375
v 0.375 -0.375 -0.375
v -1.375 -0.375 -0.5
v -1.375 -0.437 -0.5
v -1.437 -0.437 -0.5
v -1.437 -0.375 -0.5
v -1.375 -0.375 -0.375
v -1.375 -0.437 -0.375
v -1.437 -0.437 -0.375
v -1.437 -0.375 -0.375
v -0.5 -0.5 -0.375
v -0.5 0.5 -0.375
vt 0.25 0.383
vt 0.266 0.376
vt 0.266 0.503
vt 0.75 0.201
vt 0.75 0.188
vt 0.766 0.188
vt 0.305 0.885
vt 0.477 0.822
vt 0.493 0.885
vt 0.249 0.918
vt 0.063 0.918
vt 0.063 0.906
vt 0.249 0.906
vt 0.305 0.822
vt 0.734 0.563
vt 0.734 0.75
vt 0.719 0.75
vt 0.719 0.563
vt 0.172 0.734
vt 0.25 0.734
vt 0.25 0.75
vt 0.172 0.75
vt 0.266 0.734
vt 0.266 0.75
vt 0.609 0.563
vt 0.609 0.547
vt 0.703 0.547
vt 0.703 0.563
vt 0.031 0.563
vt 0.031 0.75
vt 0.016 0.75
vt 0.016 0.563
vt 0.719 0.547
vt 0.75 0.563
vt 0.75 0.75
vt 0.063 0.563
vt 0.063 0.75
vt 0.047 0.75
vt 0.047 0.563
vt 0.266 0.515
vt 0.031 0.515
vt 0.031 0.503
vt 0.054 0.453
vt 0.063 0.441
vt 0.016 0.499
vt 0.532 0.906
vt 0.719 0.906
vt 0.719 0.918
vt 0.532 0.918
vt 0.063 0.734
vt 0.078 0.734
vt 0.078 0.75
vt 0.742 0.457
vt 0.766 0.499
vt 0.728 0.453
vt 0.766 0.441
vt 0.757 0.453
vt 0.531 0.563
vt 0.531 0.547
vt 0.766 0.563
vt 0.766 0.75
vt 0.016 0.441
vt 0.024 0.453
vt 0.493 0.818
vt 0.039 0.457
vt 0.29 0.885
vt 0.29 0.818
vt 0.728 0.974
vt 0.742 0.978
vt 0.72 0.965
vt 0.766 0.509
vt 0.75 0.515
vt 0.75 0.503
vt 0.757 0.974
vt 0.757 0.98
vt 0.742 0.984
vt 0.266 0.766
vt 0.266 0.78
vt 0.031 0.78
vt 0.031 0.766
vt 0.477 0.977
vt 0.305 0.914
vt 0.477 0.914
vt 0.29 0.977
vt 0.29 0.911
vt 0.493 0.977
vt 0.493 0.911
vt 0.757 0.338
vt 0.719 0.264
vt 0.765 0.33
vt 0.742 0.342
vt 0.728 0.338
vt 0.72 0.33
vt 0.054 0.98
vt 0.039 0.984
vt 0.039 0.978
vt 0.054 0.974
vt 0.016 0.509
vt 0.025 0.98
vt 0.025 0.974
vt 0.164 0.385
vt 0.078 0.383
vt 0.531 0.734
vt 0.609 0.734
vt 0.078 0.547
vt 0.172 0.547
vt 0.172 0.563
vt 0.078 0.563
vt 0.063 0.547
vt 0.703 0.734
vt 0.719 0.734
vt 0.25 0.547
vt 0.266 0.547
vt 0.266 0.563
vt 0.25 0.563
vt 0.063 0.376
vt 0.719 0.376
vt 0.719 0.441
vt 0.703 0.383
vt 0.609 0.75
vt 0.703 0.75
vt 0.531 0.75
vt 0.516 0.237
vt 0.766 0.237
vt 0.703 0.272
vt 0.617 0.274
vt 0.531 0.272
vt 0.766 0.547
vt 0.75 0.547
vt 0.047 0.547
vt 0.031 0.547
vt 0.517 0.906
vt 0.517 0.914
vt 0.734 0.547
vt 0.016 0.547
vt 0.265 0.914
vt 0.265 0.906
vt 0.017 0.33
vt 0.063 0.264
vt 0.024 0.338
vt 0.039 0.342
vt 0.054 0.338
vt 0.062 0.33
vt 0.728 0.98
vt 0.016 0.188
vt 0.031 0.188
vt 0.031 0.201
vt 0.516 0.201
vt 0.516 0.188
vt 0.764 0.965
vt 0.017 0.965
vt 0.062 0.965
vt 0.016 0.031
vt 0.516 0.264
vt 0.016 0.813
vt 0.265 0.813
vt 0.016 0.237
vt 0.078 0.272
vt 0.266 0.237
vt 0.164 0.274
vt 0.25 0.272
vt 0.266 0.264
vt 0.266 0.188
vt 0.266 0.031
vt 0.516 0.503
vt 0.516 0.75
vt 0.516 0.734
vt 0.517 0.813
vt 0.765 0.813
vt 0.766 0.031
vt 0.516 0.031
vt 0.516 0.563
vt 0.617 0.385
vt 0.531 0.383
vt 0.516 0.376
vt 0.75 0.766
vt 0.75 0.78
vt 0.516 0.78
vt 0.516 0.766
vt 0.516 0.515
vt 0.516 0.547
vt 0.266 0.201
vt 0 0.125
vt 1 0.125
vt 1 0.313
vt 0 0.313
vt 0 1
vt 0 0
vt 1 0
vt 1 1
vt 0.938 0.125
vt 0.875 0.125
vt 0.875 0
vt 0.938 0
vt 0.125 0.125
vt 0.063 0.125
vt 0.063 0
vt 0.125 0
vt 0.063 0.938
vt 0.063 0.875
vt 0.125 0.875
vt 0.125 0.938
vt 0.875 0.938
vt 0.875 0.875
vt 0.938 0.875
vt 0.938 0.938
vt 0.063 0.063
vt 0.125 0.063
vt 0.875 0.063
vt 0.938 0.063
vn 0 1 0
vn 0 0.949 0.316
vn 0.147 -0.536 0.831
vn 0.076 -0.938 0.339
vn 0.69 -0.694 0.205
vn 0.746 -0.392 0.538
vn -0.943 0.036 0.33
vn -1 0 0
vn -0.587 0.786 0.196
vn 0.536 0.091 0.84
vn 0.352 0.78 0.518
vn 0.982 0.106 0.157
vn 0.943 0.042 0.33
vn -1 0.017 0.004
vn 0.342 0.788 0.511
vn 0.587 0.786 0.196
vn 0.943 0.036 0.33
vn 0 -0.251 0.968
vn -0.303 -0.207 0.93
vn -0.292 -0.404 0.867
vn 0 -0.49 0.872
vn 0 -0.193 0.981
vn 0 -0.351 0.936
vn 0 0.252 0.968
vn 0 0.86 0.51
vn -0.189 0.805 0.562
vn -0.303 0.207 0.93
vn 0 0.12 0.993
vn -0.002 0.761 0.649
vn 0.101 0.973 0.205
vn -0.557 0.16 0.815
vn 0.002 0.761 0.649
vn -0.342 0.788 0.511
vn -0.535 0.091 0.84
vn 0 0.56 0.829
vn 0.147 0.537 0.831
vn 0.079 0.94 0.331
vn 0.686 0.7 0.201
vn -0.943 0.042 0.33
vn -0.982 0.106 0.157
vn -0.352 0.78 0.518
vn 0.558 -0.16 0.815
vn 0.304 -0.207 0.93
vn 0.292 -0.404 0.867
vn 0.505 -0.303 0.808
vn -0.685 0.7 0.201
vn 0.304 0.207 0.93
vn 0.189 0.805 0.562
vn -0.768 0.641 0
vn -0.707 0.655 0.266
vn -0.101 0.973 0.205
vn -0.746 0.393 0.538
vn -0.779 0 0.627
vn -0.147 0.537 0.831
vn -0.079 0.94 0.331
vn -0.746 -0.392 0.538
vn -0.147 -0.536 0.831
vn -0.173 0 0.985
vn 0 0 1
vn 0 -0.56 0.829
vn 0.174 0 0.985
vn 1 0 0
vn 1 0.017 0.004
vn 0.768 0.641 0
vn 0.707 0.655 0.266
vn -0.387 0.718 0.578
vn -0.701 0.662 0.266
vn 0 0.741 0.671
vn 0.387 0.718 0.578
vn 0.779 0 0.627
vn 0.746 0.393 0.538
vn 0.558 0.16 0.815
vn -0.557 -0.16 0.815
vn 0 0.903 0.431
vn 0 0.193 0.981
vn -0.505 -0.303 0.808
vn -0.707 0.707 0.001
vn 0.701 0.662 0.266
vn -0.69 -0.694 0.205
vn -0.076 -0.938 0.339
vn 0 -0.949 0.316
vn -0.707 -0.707 0
vn 0.707 -0.707 0
vn 0.707 0.707 0.001
vn 0 -1 0
vn 0 0 -1
g 1
s 1
f 48/1/1 24/2/1 23/3/2
f 92/4/3 85/5/4 6/6/5 36/6/6
f 74/7/7 65/8/8 13/9/9
f 77/10/10 1/11/11 12/12/12 73/13/13
f 65/8/8 74/7/7 56/14/14
f 78/15/10 3/16/15 18/17/16 75/18/17
f 63/19/18 69/20/19 48/21/20 43/22/21
f 69/20/19 71/23/22 24/24/23 48/21/20
f 55/25/24 45/26/25 47/27/26 61/28/27
f 81/29/28 32/30/29 1/31/11 77/32/10
f 61/28/27 47/27/26 15/33/30 57/18/31
f 82/34/28 30/35/32 3/16/15 78/15/10
f 74/36/7 13/37/9 27/38/33 79/39/34
f 23/3/2 38/40/35 89/41/36 83/42/37
f 27/43/33 23/3/2 83/42/37
f 13/44/9 23/3/2 27/43/33
f 5/45/38 27/43/33 83/42/37
f 76/46/39 19/47/40 25/48/41 80/49/34
f 65/50/42 67/51/43 51/52/44 9/37/45
f 30/53/32 8/54/46 3/55/15
f 67/51/43 63/19/18 43/22/21 51/52/44
f 79/39/34 27/38/33 32/30/29 81/29/28
f 19/56/40 8/54/46 25/57/41
f 59/58/47 53/59/48 45/26/25 55/25/24
f 80/60/34 25/61/41 30/35/32 82/34/28
f 12/62/12 1/63/11 5/45/38
f 9/64/49 13/9/9 65/8/8
f 32/65/29 5/45/38 1/63/11
f 5/45/38 32/65/29 27/43/33
f 8/54/46 30/53/32 25/57/41
f 74/7/7 14/66/50 10/67/51 56/14/14
f 37/68/52 19/47/40 34/69/53
f 8/70/46 19/47/40 37/68/52
f 8/54/46 37/71/52 90/72/54 86/73/55
f 34/69/53 40/74/56 91/75/57 87/76/58
f 35/77/59 41/78/60 92/79/3 88/80/61
f 75/81/17 70/82/62 57/83/63
f 18/84/16 70/82/62 75/81/17
f 16/85/64 70/82/62 18/84/16
f 17/86/65 75/81/17 57/83/63 15/87/30
f 4/88/66 15/89/30 20/90/67
f 29/91/68 15/89/30 4/88/66
f 2/92/69 15/89/30 29/91/68
f 17/93/65 15/89/30 2/92/69
f 89/94/36 88/95/61 33/96/70 39/97/71
f 83/42/37 89/41/36 39/98/71 5/45/38
f 88/95/61 92/99/3 36/100/6 33/96/70
f 48/1/1 23/3/2 43/101/1
f 43/101/1 23/3/2 51/102/1
f 66/103/43 59/58/47 55/25/24 64/104/18
f 50/105/48 44/106/25 54/107/24 60/108/47
f 10/109/51 50/105/48 60/108/47 56/36/72
f 68/110/19 61/28/27 57/18/31 70/111/73
f 64/104/18 55/25/24 61/28/27 68/110/19
f 49/112/26 21/113/74 58/114/75 62/115/27
f 44/106/25 49/112/26 62/115/27 54/107/24
f 9/116/49 51/102/1 13/44/9
f 23/3/2 13/44/9 51/102/1
f 16/117/64 18/118/16 52/119/1
f 42/120/21 64/104/18 68/110/19 52/121/20
f 52/121/20 68/110/19 70/111/73 16/17/76
f 46/122/44 66/103/43 64/104/18 42/120/21
f 60/108/47 54/107/24 63/19/18 67/51/43
f 97/123/1 96/124/77 15/89/30
f 56/36/72 60/108/47 67/51/43 65/50/42
f 47/125/26 97/123/1 15/89/30
f 62/115/27 58/114/75 71/23/22 69/20/19
f 54/107/24 62/115/27 69/20/19 63/19/18
f 45/126/25 97/123/1 47/125/26
f 53/127/48 97/123/1 45/126/25
f 4/128/66 80/60/34 82/34/28 29/129/68
f 28/130/66 79/39/34 81/29/28 31/131/68
f 20/132/67 76/46/39 80/49/34 4/133/66
f 14/109/50 74/36/7 79/39/34 28/130/66
f 29/129/68 82/34/28 78/15/10 2/134/69
f 31/131/68 81/29/28 77/32/10 26/135/69
f 2/134/69 78/15/10 75/18/17 17/33/65
f 26/136/69 77/10/10 73/13/13 11/137/78
f 11/138/78 10/139/51 26/140/69
f 26/140/69 10/139/51 31/141/68
f 28/142/66 31/141/68 10/139/51
f 10/139/51 14/143/50 28/142/66
f 38/24/35 35/77/59 88/80/61 89/30/36
f 37/68/52 34/69/53 87/76/58 90/144/54
f 40/145/56 7/145/79 84/146/80 91/147/57
f 41/148/60 22/149/81 85/5/4 92/4/3
f 34/69/53 19/47/40 40/74/56
f 19/47/40 7/150/79 40/74/56
f 6/151/5 12/12/12 36/100/6
f 36/100/6 12/12/12 33/96/70
f 33/96/70 12/12/12 39/97/71
f 12/12/12 5/152/38 39/97/71
f 3/55/15 8/54/46 86/73/55
f 7/145/79 94/153/82 84/146/80
f 21/154/74 97/123/1 53/127/48
f 95/155/83 98/156/84 12/12/12
f 12/12/12 98/156/84 73/13/13
f 73/13/13 98/156/84 11/137/78
f 10/139/51 11/138/78 98/157/84
f 50/158/48 10/139/51 97/159/1
f 50/158/48 97/159/1 44/160/25
f 44/160/25 97/159/1 49/161/26
f 49/161/26 97/159/1 21/162/74
f 98/157/84 97/159/1 10/139/51
f 22/163/81 84/146/80 94/153/82
f 93/164/85 22/163/81 94/153/82
f 86/73/55 23/165/2 3/55/15
f 24/166/23 71/167/22 66/103/43 46/122/44
f 23/165/2 52/119/1 18/118/16
f 15/89/30 96/124/77 20/90/67
f 20/132/67 96/168/77 76/46/39
f 76/46/39 96/168/77 19/47/40
f 96/168/77 94/169/82 19/47/40
f 19/47/40 94/169/82 7/150/79
f 6/151/5 95/155/83 12/12/12
f 85/5/4 95/170/83 6/6/5
f 22/149/81 95/170/83 85/5/4
f 22/149/81 93/171/85 95/170/83
f 71/167/22 58/172/75 59/58/47 66/103/43
f 42/173/1 52/119/1 23/165/2
f 46/174/1 42/173/1 23/165/2
f 24/175/1 46/174/1 23/165/2
f 87/176/58 91/177/57 41/178/60 35/179/59
f 86/73/55 90/72/54 38/180/35 23/165/2
f 90/35/54 87/176/58 35/179/59 38/166/35
f 3/55/15 23/165/2 18/118/16
f 58/172/75 21/181/74 53/59/48 59/58/47
f 91/147/57 84/146/80 22/163/81 41/182/60
g 2
s off
f 102/183/1 136/184/1 97/185/1 98/186/1
f 99/183/8 100/184/8 94/185/8 96/186/8
f 101/183/62 102/184/62 98/185/62 95/186/62
f 136/187/86 135/188/86 100/189/86 99/190/86
f 101/184/85 95/185/85 93/186/85 135/183/85
f 100/183/85 135/184/85 93/185/85 94/186/85
f 107/191/62 108/192/62 104/193/62 103/194/62
f 108/191/85 109/192/85 105/193/85 104/194/85
f 109/195/8 110/196/8 106/197/8 105/198/8
f 110/195/1 107/196/1 103/197/1 106/198/1
f 103/199/86 104/200/86 105/201/86 106/202/86
f 115/191/62 116/192/62 112/193/62 111/194/62
f 116/195/85 117/196/85 113/197/85 112/198/85
f 117/195/8 118/196/8 114/197/8 113/198/8
f 118/191/1 115/192/1 111/193/1 114/194/1
f 111/203/86 112/204/86 113/205/86 114/206/86
f 102/187/86 101/188/86 135/189/86 136/190/86
f 123/195/62 124/196/62 120/197/62 119/198/62
f 124/191/85 125/192/85 121/193/85 120/194/85
f 125/191/8 126/192/8 122/193/8 121/194/8
f 126/195/1 123/196/1 119/197/1 122/198/1
f 119/196/86 120/207/86 121/208/86 122/195/86
f 131/195/62 132/196/62 128/197/62 127/198/62
f 132/195/85 133/196/85 129/197/85 128/198/85
f 133/191/8 134/192/8 130/193/8 129/194/8
f 134/191/1 131/192/1 127/193/1 130/194/1
f 127/192/86 128/209/86 129/210/86 130/191/86
f 136/183/1 99/184/1 96/185/1 97/186/1
