v 0.5 0.5 0.063
v -0.5 0.5 0.063
v -0.5 0.5 0
v 0.5 0.5 0
v 0.5 0.5 0.063
v -0.5 0.5 0.063
v -0.5 0.5 0
v 0.5 0.5 0
v -0.437 0.5 0.063
v -0.437 0.5 0
v 0.438 0.5 0.063
v 0.438 0.5 0
v -0.437 -0.477 0.047
v -0.437 -0.477 0.016
v 0.438 -0.477 0.047
v 0.438 -0.477 0.016
v -0.254 -0.477 0.047
v -0.254 -0.477 0.016
v -0.254 0.477 0.047
v -0.254 0.477 0.016
v -0.207 -0.477 0.047
v -0.207 -0.477 0.016
v -0.207 0.477 0.047
v -0.207 0.477 0.016
v -0.023 -0.477 0.047
v -0.023 -0.477 0.016
v -0.023 0.477 0.047
v -0.023 0.477 0.016
v 0.023 -0.477 0.047
v 0.023 -0.477 0.016
v 0.023 0.477 0.047
v 0.023 0.477 0.016
v -0.437 0.5 0.031
v 0.438 0.5 0.031
v -0.5 -0.5 0.063
v 0.5 -0.5 0.063
v 0.5 -0.5 0
v -0.5 -0.5 0
v -0.5 -0.5 0.063
v -0.437 -0.5 0.063
v -0.5 -0.5 0
v -0.437 -0.5 0
v 0.5 -0.5 0.063
v 0.438 -0.5 0.063
v 0.5 -0.5 0
v 0.438 -0.5 0
v 0.438 -0.5 0.047
v -0.437 -0.5 0.047
v 0.438 -0.5 0.016
v -0.437 -0.5 0.016
v -0.437 -0.5 0.031
v 0.438 -0.5 0.031
v 0.207 -0.477 0.047
v 0.207 -0.477 0.016
v 0.207 0.477 0.047
v 0.207 0.477 0.016
v 0.254 -0.477 0.047
v 0.254 -0.477 0.016
v 0.254 0.477 0.047
v 0.254 0.477 0.016
v 0.438 -0.273 0.047
v 0.438 -0.273 0.016
v 0.254 -0.273 0.047
v 0.254 -0.273 0.016
v 0.438 -0.227 0.047
v 0.438 -0.227 0.016
v 0.254 -0.227 0.047
v 0.254 -0.227 0.016
v 0.438 -0.023 0.047
v 0.438 -0.023 0.016
v 0.254 -0.023 0.047
v 0.254 -0.023 0.016
v 0.438 0.023 0.047
v 0.438 0.023 0.016
v 0.254 0.023 0.047
v 0.254 0.023 0.016
v 0.438 0.227 0.047
v 0.438 0.227 0.016
v 0.254 0.227 0.047
v 0.254 0.227 0.016
v 0.438 0.273 0.047
v 0.438 0.273 0.016
v 0.254 0.273 0.047
v 0.254 0.273 0.016
v 0.207 -0.273 0.047
v 0.207 -0.273 0.016
v 0.023 -0.273 0.047
v 0.023 -0.273 0.016
v 0.207 -0.227 0.047
v 0.207 -0.227 0.016
v 0.023 -0.227 0.047
v 0.023 -0.227 0.016
v 0.207 -0.023 0.047
v 0.207 -0.023 0.016
v 0.023 -0.023 0.047
v 0.023 -0.023 0.016
v 0.207 0.023 0.047
v 0.207 0.023 0.016
v 0.023 0.023 0.047
v 0.023 0.023 0.016
v 0.207 0.227 0.047
v 0.207 0.227 0.016
v 0.023 0.227 0.047
v 0.023 0.227 0.016
v 0.207 0.273 0.047
v 0.207 0.273 0.016
v 0.023 0.273 0.047
v 0.023 0.273 0.016
v -0.023 -0.273 0.047
v -0.023 -0.273 0.016
v -0.207 -0.273 0.047
v -0.207 -0.273 0.016
v -0.023 -0.227 0.047
v -0.023 -0.227 0.016
v -0.207 -0.227 0.047
v -0.207 -0.227 0.016
v -0.023 -0.023 0.047
v -0.023 -0.023 0.016
v -0.207 -0.023 0.047
v -0.207 -0.023 0.016
v -0.023 0.023 0.047
v -0.023 0.023 0.016
v -0.207 0.023 0.047
v -0.207 0.023 0.016
v -0.023 0.227 0.047
v -0.023 0.227 0.016
v -0.207 0.227 0.047
v -0.207 0.227 0.016
v -0.023 0.273 0.047
v -0.023 0.273 0.016
v -0.207 0.273 0.047
v -0.207 0.273 0.016
v -0.254 -0.273 0.047
v -0.254 -0.273 0.016
v -0.437 -0.273 0.047
v -0.437 -0.273 0.016
v -0.254 -0.227 0.047
v -0.254 -0.227 0.016
v -0.437 -0.227 0.047
v -0.437 -0.227 0.016
v -0.254 -0.023 0.047
v -0.254 -0.023 0.016
v -0.437 -0.023 0.047
v -0.437 -0.023 0.016
v -0.254 0.023 0.047
v -0.254 0.023 0.016
v -0.437 0.023 0.047
v -0.437 0.023 0.016
v -0.254 0.227 0.047
v -0.254 0.227 0.016
v -0.437 0.227 0.047
v -0.437 0.227 0.016
v -0.254 0.273 0.047
v -0.254 0.273 0.016
v -0.437 0.273 0.047
v -0.437 0.273 0.016
v 0.438 0.477 0.047
v 0.438 0.477 0.016
v -0.437 0.477 0.047
v -0.437 0.477 0.016
v -0.437 0.5 0.047
v 0.438 0.5 0.047
v -0.437 0.5 0.016
v 0.438 0.5 0.016
v -0.437 0.5 0.033
v 0.438 0.5 0.033
v -0.437 -0.5 0.033
v 0.438 -0.5 0.033
vt 0 0
vt 0.063 0
vt 0.063 1
vt 0 1
vt 0.938 1
vt 0.063 0.977
vt 0.938 0.977
vt 0.938 0
vt 1 0
vt 1 1
vt 0.938 0.023
vt 0.063 0.023
vt 0.063 0.953
vt 0.938 0.953
vt 0.938 0.984
vt 0.063 0.984
vt 0.293 0.977
vt 0.246 0.977
vt 0.246 0.023
vt 0.293 0.023
vt 0.707 0.977
vt 0.707 0.023
vt 0.754 0.023
vt 0.754 0.977
vt 0.984 0.023
vt 0.984 0.977
vt 0.953 0.977
vt 0.953 0.023
vt 0.016 0.977
vt 0.016 0.023
vt 0.047 0.023
vt 0.047 0.977
vt 0.523 0.977
vt 0.477 0.977
vt 0.477 0.023
vt 0.523 0.023
vt 0.754 0.273
vt 0.754 0.227
vt 0.938 0.227
vt 0.938 0.273
vt 0.246 0.273
vt 0.063 0.273
vt 0.063 0.227
vt 0.246 0.227
vt 0.938 0.047
vt 0.754 0.047
vt 0.754 0.016
vt 0.938 0.016
vt 0.754 0.953
vt 0.754 0.984
vt 0.754 0.523
vt 0.754 0.477
vt 0.938 0.477
vt 0.938 0.523
vt 0.246 0.523
vt 0.063 0.523
vt 0.063 0.477
vt 0.246 0.477
vt 0.754 0.773
vt 0.754 0.727
vt 0.938 0.727
vt 0.938 0.773
vt 0.246 0.773
vt 0.063 0.773
vt 0.063 0.727
vt 0.246 0.727
vt 0.523 0.273
vt 0.523 0.227
vt 0.707 0.227
vt 0.707 0.273
vt 0.477 0.273
vt 0.293 0.273
vt 0.293 0.227
vt 0.477 0.227
vt 0.707 0.047
vt 0.523 0.047
vt 0.523 0.016
vt 0.707 0.016
vt 0.523 0.953
vt 0.707 0.953
vt 0.707 0.984
vt 0.523 0.984
vt 0.523 0.523
vt 0.523 0.477
vt 0.707 0.477
vt 0.707 0.523
vt 0.477 0.523
vt 0.293 0.523
vt 0.293 0.477
vt 0.477 0.477
vt 0.523 0.773
vt 0.523 0.727
vt 0.707 0.727
vt 0.707 0.773
vt 0.477 0.773
vt 0.293 0.773
vt 0.293 0.727
vt 0.477 0.727
vt 0.477 0.047
vt 0.293 0.047
vt 0.293 0.016
vt 0.477 0.016
vt 0.293 0.953
vt 0.477 0.953
vt 0.477 0.984
vt 0.293 0.984
vt 0.246 0.047
vt 0.063 0.047
vt 0.063 0.016
vt 0.246 0.016
vt 0.246 0.953
vt 0.246 0.984
vt 0.938 0.063
vt 1 0.063
vt 0.063 0.063
vt 0 0.063
vt 0.938 0.938
vt 1 0.938
vt 0.063 0.938
vt 0 0.938
vn 1 0 0
vn 0 0 -1
vn 0 0 1
vn 0 1 0
vn -1 0 0
vn 0 -1 0
g 1
s off
f 36/1/1 37/2/1 4/3/1 1/4/1
f 163/5/2 164/3/2 158/6/2 160/7/2
f 40/2/3 9/3/3 6/4/3 39/1/3
f 42/8/2 41/9/2 7/10/2 10/5/2
f 44/8/3 43/9/3 5/10/3 11/5/3
f 46/2/2 12/3/2 8/4/2 45/1/2
f 47/8/3 15/11/3 13/12/3 48/2/3
f 49/2/2 50/8/2 14/11/2 16/12/2
f 13/13/4 15/14/4 16/15/4 14/16/4
f 161/3/3 159/6/3 157/7/3 162/5/3
f 23/17/3 19/18/3 17/19/3 21/20/3
f 24/21/2 22/22/2 18/23/2 20/24/2
f 17/25/5 19/26/5 20/27/5 18/28/5
f 23/29/1 21/30/1 22/31/1 24/32/1
f 31/33/3 27/34/3 25/35/3 29/36/3
f 32/34/2 30/35/2 26/36/2 28/33/2
f 25/25/5 27/26/5 28/27/5 26/28/5
f 31/29/1 29/30/1 30/31/1 32/32/1
f 11/10/5 12/5/5 46/8/5 44/9/5
f 9/4/1 40/1/1 42/2/1 10/3/1
f 2/10/5 3/5/5 38/8/5 35/9/5
f 59/24/3 55/21/3 53/22/3 57/23/3
f 60/18/2 58/19/2 54/20/2 56/17/2
f 53/25/5 55/26/5 56/27/5 54/28/5
f 59/29/1 57/30/1 58/31/1 60/32/1
f 67/37/3 63/38/3 61/39/3 65/40/3
f 68/41/2 66/42/2 62/43/2 64/44/2
f 61/45/6 63/46/6 64/47/6 62/48/6
f 67/49/4 65/14/4 66/15/4 68/50/4
f 75/51/3 71/52/3 69/53/3 73/54/3
f 76/55/2 74/56/2 70/57/2 72/58/2
f 69/45/6 71/46/6 72/47/6 70/48/6
f 75/49/4 73/14/4 74/15/4 76/50/4
f 83/59/3 79/60/3 77/61/3 81/62/3
f 84/63/2 82/64/2 78/65/2 80/66/2
f 77/45/6 79/46/6 80/47/6 78/48/6
f 83/49/4 81/14/4 82/15/4 84/50/4
f 91/67/3 87/68/3 85/69/3 89/70/3
f 92/71/2 90/72/2 86/73/2 88/74/2
f 85/75/6 87/76/6 88/77/6 86/78/6
f 91/79/4 89/80/4 90/81/4 92/82/4
f 99/83/3 95/84/3 93/85/3 97/86/3
f 100/87/2 98/88/2 94/89/2 96/90/2
f 93/75/6 95/76/6 96/77/6 94/78/6
f 99/79/4 97/80/4 98/81/4 100/82/4
f 107/91/3 103/92/3 101/93/3 105/94/3
f 108/95/2 106/96/2 102/97/2 104/98/2
f 101/75/6 103/76/6 104/77/6 102/78/6
f 107/79/4 105/80/4 106/81/4 108/82/4
f 115/72/3 111/73/3 109/74/3 113/71/3
f 116/70/2 114/67/2 110/68/2 112/69/2
f 109/99/6 111/100/6 112/101/6 110/102/6
f 115/103/4 113/104/4 114/105/4 116/106/4
f 123/88/3 119/89/3 117/90/3 121/87/3
f 124/86/2 122/83/2 118/84/2 120/85/2
f 117/99/6 119/100/6 120/101/6 118/102/6
f 123/103/4 121/104/4 122/105/4 124/106/4
f 131/96/3 127/97/3 125/98/3 129/95/3
f 132/94/2 130/91/2 126/92/2 128/93/2
f 125/99/6 127/100/6 128/101/6 126/102/6
f 131/103/4 129/104/4 130/105/4 132/106/4
f 139/42/3 135/43/3 133/44/3 137/41/3
f 140/40/2 138/37/2 134/38/2 136/39/2
f 133/107/6 135/108/6 136/109/6 134/110/6
f 139/13/4 137/111/4 138/112/4 140/16/4
f 147/56/3 143/57/3 141/58/3 145/55/3
f 148/54/2 146/51/2 142/52/2 144/53/2
f 141/107/6 143/108/6 144/109/6 142/110/6
f 147/13/4 145/111/4 146/112/4 148/16/4
f 155/64/3 151/65/3 149/66/3 153/63/3
f 156/62/2 154/59/2 150/60/2 152/61/2
f 149/107/6 151/108/6 152/109/6 150/110/6
f 155/13/4 153/111/4 154/112/4 156/16/4
f 44/113/6 46/8/6 45/9/6 43/114/6
f 50/109/6 49/48/6 47/45/6 48/108/6
f 40/115/6 39/116/6 41/1/6 42/2/6
f 161/13/4 162/14/4 164/15/4 163/16/4
f 11/117/4 5/118/4 8/10/4 12/5/4
f 157/45/6 159/108/6 160/109/6 158/48/6
f 9/119/4 10/3/4 7/4/4 6/120/4
g 2
f 51/8/2 33/5/2 34/3/2 52/2/2
f 167/2/3 168/8/3 166/5/3 165/3/3
