v 0.421 1.531 0.5
v -0.579 0.531 0.5
v -0.516 0.469 0.5
v 0.484 1.469 0.5
v 0.421 1.531 0.312
v 0.484 1.469 0.312
v -0.516 0.469 0.312
v -0.579 0.531 0.312
v 0.203 0.25 0.437
v 0.265 0.25 0.437
v 0.265 1.25 0.437
v 0.203 1.188 0.437
v 0.203 0.25 0.375
v 0.203 1.188 0.375
v 0.265 1.25 0.375
v 0.265 0.25 0.375
v 0.265 0.25 0.5
v 0.203 0.25 0.5
v -0.297 -0.187 0.437
v -0.235 -0.187 0.437
v -0.235 0.813 0.437
v -0.297 0.75 0.437
v -0.297 -0.187 0.375
v -0.297 0.75 0.375
v -0.235 0.813 0.375
v -0.235 -0.187 0.375
v -0.235 -0.187 0.5
v -0.297 -0.187 0.5
v -0.297 -0.125 0.5
v -0.297 -0.125 0.437
v -0.235 -0.125 0.437
v -0.235 -0.125 0.5
v 0.203 0.313 0.437
v 0.203 0.313 0.5
v 0.265 0.313 0.5
v 0.265 0.313 0.437
vt -0.312 0.5
vt -0.312 0.438
vt 0.625 0.438
vt 0.563 0.5
vt 0.125 0.688
vt 1 0.688
vt 1.063 0.75
vt 0.125 0.75
vt 1 0.125
vt 1 0.063
vt 1.125 0.063
vt 1.125 0.125
vt 0.125 0.625
vt 0.125 0.563
vt 1.063 0.563
vt 1 0.625
vt 1.063 0.688
vt 1.188 0.125
vt 1.188 0.063
vt 1.313 0.063
vt 1.313 0.125
vt 0.875 0.875
vt -0.062 0.875
vt -0.062 0.813
vt 0.875 0.813
vt -0.312 0.375
vt 0.563 0.375
vt 0.563 0.438
vt 0.875 1
vt -0.062 1
vt -0.062 0.938
vt 0.875 0.938
vt 0.438 0.188
vt 1.313 0.188
vt 1.313 0.25
vt 0.438 0.25
vt 0.438 0.125
vt 0.5 0.125
vt 0.5 0.188
vt -0.375 0.813
vt -0.312 0.813
vt -0.312 0.875
vt -0.375 0.875
vt 0.813 0.125
vt 0.75 0.125
vt 0.75 0.063
vt 0.813 0.063
vt 0.938 0.125
vt 0.875 0.125
vt 0.875 0.063
vt 0.938 0.063
vt -0.25 0.875
vt -0.25 0.938
vt -0.312 0.938
vt -0.25 0.375
vt -0.312 0.313
vt -0.25 0.313
vt -0.125 0.938
vt -0.125 0.875
vt -0.125 1
vt -0.187 0.625
vt -0.375 0.625
vt -0.375 0.563
vt -0.187 0.563
vt -0.125 0.625
vt -0.125 0.563
vt 0.063 0.563
vt 0.063 0.625
vt 1.375 0.25
vt 0.375 0.25
vt 0.375 0.063
vt 1.375 0.063
vt -0.375 0.313
vt 0.625 0.313
vt 0.625 0.5
vt -0.375 0.5
vn -0.707 0 0.707
vn 0.707 0 0.707
vn 0.894 0 0.447
vn -0.555 0 0.832
vn -0.577 -0.577 -0.577
vn -0.555 0 -0.832
vn 0.894 0 -0.447
vn 0.577 -0.577 -0.577
vn 0.577 -0.577 0.577
vn -0.577 -0.577 0.577
vn -0.555 0 0.832
vn -0.577 -0.577 -0.577
vn 0.577 -0.577 -0.577
vn -0.577 -0.577 0.577
vn -0.577 0.577 0.577
vn -0.707 0.707 0
vn -1 0 0
vn 1 0 0
vn 0.707 0.707 0
vn 0.577 0.577 0.577
vn 0 0.817 0.577
vn -0.816 0 0.577
vn 0 -0.816 0.577
vn 0.817 0 0.577
vn 0 0.817 -0.577
vn 0.817 0 -0.577
vn 0 -0.816 -0.577
vn -0.816 0 -0.577
g 1
s 1
f 9/1/1 10/2/2 11/3/3 12/4/4
f 13/5/5 14/6/6 15/7/7 16/8/8
f 13/9/5 16/10/8 17/11/9 18/12/10
f 19/13/1 20/14/2 21/15/3 22/16/11
f 23/13/12 24/16/6 25/17/7 26/5/13
f 23/18/12 26/19/13 27/20/9 28/21/14
f 11/22/3 10/23/2 16/24/8 15/25/7
f 9/26/1 12/27/4 14/28/6 13/2/5
f 21/29/3 20/30/2 26/31/13 25/32/7
f 19/33/1 22/34/11 24/35/6 23/36/12
f 28/37/14 29/38/15 30/39/16 19/33/17
f 20/40/18 31/41/19 32/42/20 27/43/9
f 33/44/16 34/45/15 35/46/20 36/47/19
f 30/48/16 29/49/15 32/50/20 31/51/19
f 10/42/18 36/52/19 35/53/20 17/54/9
f 33/55/16 9/26/17 18/56/10 34/57/15
f 17/42/9 35/52/20 34/53/15 18/54/10
f 27/40/9 32/41/20 29/42/15 28/43/14
g 2
f 1/32/21 2/58/22 3/59/23 4/22/24
f 5/32/25 6/29/26 7/60/27 8/58/28
f 1/61/21 4/62/24 6/63/26 5/64/25
f 2/65/22 8/66/28 7/67/27 3/68/23
f 4/69/24 3/70/23 7/71/27 6/72/26
f 2/73/22 1/74/21 5/75/25 8/76/28
