v 0.098 0.375 -0.49
v 0 0.375 -0.5
v 0 0.5 -0.5
v 0.098 0.5 -0.49
v -0.098 0.375 -0.49
v -0.098 0.5 -0.49
v 0.191 0.375 -0.462
v 0.191 0.5 -0.462
v -0.191 0.375 -0.462
v -0.191 0.5 -0.462
v 0.278 0.375 -0.416
v 0.278 0.5 -0.416
v -0.278 0.375 -0.416
v -0.278 0.5 -0.416
v 0.354 0.375 -0.354
v 0.354 0.5 -0.354
v -0.354 0.375 -0.354
v -0.354 0.5 -0.354
v 0.416 0.375 -0.278
v 0.416 0.5 -0.278
v -0.416 0.375 -0.278
v -0.416 0.5 -0.278
v 0.462 0.375 -0.191
v 0.462 0.5 -0.191
v -0.462 0.375 -0.191
v -0.462 0.5 -0.191
v 0.49 0.375 -0.098
v 0.49 0.5 -0.098
v -0.49 0.375 -0.098
v -0.49 0.5 -0.098
v 0.5 0.375 0
v 0.5 0.5 0
v -0.5 0.375 0
v -0.5 0.5 0
v 0.49 0.375 0.098
v 0.49 0.5 0.098
v -0.49 0.375 0.098
v -0.49 0.5 0.098
v 0.462 0.375 0.191
v 0.462 0.5 0.191
v -0.462 0.375 0.191
v -0.462 0.5 0.191
v -0.085 0.5 0.429
v 0 0.5 0.438
v -0.167 0.5 0.404
v 0.085 0.5 0.429
v -0.243 0.5 0.364
v 0.416 0.375 0.278
v 0.416 0.5 0.278
v -0.416 0.375 0.278
v -0.416 0.5 0.278
v 0.167 0.5 0.404
v -0.309 0.5 0.309
v 0.243 0.5 0.364
v -0.364 0.5 0.243
v 0.309 0.5 0.309
v -0.404 0.5 0.167
v 0.354 0.375 0.354
v 0.354 0.5 0.354
v -0.354 0.375 0.354
v -0.354 0.5 0.354
v 0.364 0.5 0.243
v -0.429 0.5 0.085
v 0.404 0.5 0.167
v -0.437 0.5 0
v 0.429 0.5 0.085
v -0.429 0.5 -0.085
v 0.278 0.375 0.416
v 0.278 0.5 0.416
v -0.278 0.375 0.416
v -0.278 0.5 0.416
v 0.438 0.5 0
v -0.404 0.5 -0.167
v 0.429 0.5 -0.085
v -0.364 0.5 -0.243
v 0.404 0.5 -0.167
v -0.309 0.5 -0.309
v 0.364 0.5 -0.243
v 0.191 0.375 0.462
v 0.191 0.5 0.462
v -0.191 0.375 0.462
v -0.191 0.5 0.462
v -0.243 0.5 -0.364
v 0.309 0.5 -0.309
v 0 0.5 -0.437
v 0.085 0.5 -0.429
v -0.167 0.5 -0.404
v 0.243 0.5 -0.364
v -0.085 0.5 -0.429
v 0.167 0.5 -0.404
v 0.098 0.375 0.49
v 0.098 0.5 0.49
v -0.098 0.375 0.49
v -0.098 0.5 0.49
v 0 0.375 0.5
v 0 0.5 0.5
v 0.049 -0.5 -0.245
v 0 -0.5 -0.25
v -0.049 -0.5 -0.245
v 0.096 -0.5 -0.231
v -0.096 -0.5 -0.231
v 0.139 -0.5 -0.208
v -0.139 -0.5 -0.208
v 0.177 -0.5 -0.177
v -0.177 -0.5 -0.177
v 0.208 -0.5 -0.139
v -0.208 -0.5 -0.139
v 0.231 -0.5 -0.096
v -0.231 -0.5 -0.096
v 0.245 -0.5 -0.049
v -0.245 -0.5 -0.049
v 0.25 -0.5 0
v -0.25 -0.5 0
v 0.245 -0.5 0.049
v -0.245 -0.5 0.049
v 0.231 -0.5 0.096
v -0.231 -0.5 0.096
v 0.208 -0.5 0.139
v -0.208 -0.5 0.139
v 0.177 -0.5 0.177
v -0.177 -0.5 0.177
v 0.139 -0.5 0.208
v -0.243 0.375 0.364
v -0.139 -0.5 0.208
v 0.096 -0.5 0.231
v -0.096 -0.5 0.231
v 0.049 -0.5 0.245
v -0.049 -0.5 0.245
v 0 -0.5 0.25
v 0.085 0.438 -0.429
v 0 0.438 -0.437
v 0.167 0.438 -0.404
v 0 0.438 0
v -0.085 0.438 -0.429
v 0.243 0.438 -0.364
v -0.167 0.438 -0.404
v 0.309 0.438 -0.309
v -0.243 0.438 -0.364
v 0.364 0.438 -0.243
v -0.309 0.438 -0.309
v 0.404 0.438 -0.167
v -0.364 0.438 -0.243
v 0.429 0.438 -0.085
v -0.404 0.438 -0.167
v 0.438 0.438 0
v -0.429 0.438 -0.085
v 0.429 0.438 0.085
v -0.437 0.438 0
v 0.404 0.438 0.167
v -0.429 0.438 0.085
v 0.364 0.438 0.243
v -0.404 0.438 0.167
v 0.309 0.438 0.309
v -0.364 0.438 0.243
v 0.243 0.438 0.364
v -0.309 0.438 0.309
v 0.167 0.438 0.404
v -0.243 0.438 0.364
v 0.085 0.438 0.429
v -0.167 0.438 0.404
v 0 0.438 0.438
v -0.085 0.438 0.429
v 0 -0.5 0
v -0.085 0.375 0.429
v 0 0.375 0.438
v -0.167 0.375 0.404
v 0.085 0.375 0.429
v 0.167 0.375 0.404
v -0.309 0.375 0.309
v 0.243 0.375 0.364
v -0.364 0.375 0.243
v 0.309 0.375 0.309
v -0.404 0.375 0.167
v 0.364 0.375 0.243
v -0.429 0.375 0.085
v 0.404 0.375 0.167
v -0.437 0.375 0
v 0.429 0.375 0.085
v -0.429 0.375 -0.085
v 0.438 0.375 0
v -0.404 0.375 -0.167
v 0.429 0.375 -0.085
v -0.364 0.375 -0.243
v 0.404 0.375 -0.167
v -0.309 0.375 -0.309
v 0.364 0.375 -0.243
v -0.243 0.375 -0.364
v 0.309 0.375 -0.309
v 0 0.375 -0.437
v 0.085 0.375 -0.429
v -0.167 0.375 -0.404
v 0.243 0.375 -0.364
v -0.085 0.375 -0.429
v 0.167 0.375 -0.404
vt 0.469 0.438
vt 0.5 0.438
vt 0.5 0.5
vt 0.469 0.5
vt 0.438 0.438
vt 0.438 0.5
vt 0.406 0.5
vt 0.406 0.438
vt 0.375 0.5
vt 0.375 0.438
vt 0.344 0.5
vt 0.344 0.438
vt 0.313 0.5
vt 0.313 0.438
vt 0.281 0.5
vt 0.281 0.438
vt 0.25 0.5
vt 0.25 0.438
vt 0.219 0.5
vt 0.219 0.438
vt 0.188 0.5
vt 0.188 0.438
vt 0.156 0.5
vt 0.156 0.438
vt 0.125 0.5
vt 0.125 0.438
vt 0.094 0.5
vt 0.094 0.438
vt 0.063 0.5
vt 0.063 0.438
vt 0.031 0.5
vt 0.031 0.438
vt 0 0.5
vt 0 0.438
vt 1 0.5
vt 0.969 0.5
vt 0.969 0.438
vt 1 0.438
vt 0.938 0.5
vt 0.938 0.438
vt 0.906 0.5
vt 0.906 0.438
vt 0.875 0.5
vt 0.875 0.438
vt 0.844 0.5
vt 0.844 0.438
vt 0.813 0.5
vt 0.813 0.438
vt 0.781 0.5
vt 0.781 0.438
vt 0.75 0.5
vt 0.75 0.438
vt 0.719 0.5
vt 0.719 0.438
vt 0.688 0.5
vt 0.688 0.438
vt 0.656 0.5
vt 0.656 0.438
vt 0.625 0.5
vt 0.625 0.438
vt 0.594 0.5
vt 0.594 0.438
vt 0.563 0.5
vt 0.563 0.438
vt 0.531 0.438
vt 0.531 0.5
vt 0.866 0.724
vt 0.872 0.744
vt 0.766 0.766
vt 0.689 0.842
vt 0.675 0.826
vt 0.826 0.675
vt 0.842 0.689
vt 0.826 0.856
vt 0.807 0.866
vt 0.657 0.766
vt 0.659 0.744
vt 0.724 0.866
vt 0.705 0.856
vt 0.675 0.705
vt 0.689 0.689
vt 0.744 0.872
vt 0.705 0.675
vt 0.724 0.665
vt 0.787 0.872
vt 0.766 0.874
vt 0.665 0.724
vt 0.874 0.766
vt 0.872 0.787
vt 0.856 0.826
vt 0.842 0.842
vt 0.856 0.705
vt 0.659 0.787
vt 0.807 0.665
vt 0.866 0.807
vt 0.744 0.659
vt 0.766 0.657
vt 0.665 0.807
vt 0.594 0.531
vt 0.563 0.531
vt 0.813 0.531
vt 0.781 0.531
vt 0.656 0.531
vt 0.625 0.531
vt 0.469 0.531
vt 0.438 0.531
vt 0.25 0.531
vt 0.219 0.531
vt 0.156 0.531
vt 0.125 0.531
vt 0.75 0.531
vt 0.719 0.531
vt 0.875 0.531
vt 0.844 0.531
vt 0.531 0.531
vt 0.5 0.531
vt 0.375 0.531
vt 0.344 0.531
vt 0.688 0.531
vt 0.969 0.531
vt 0.938 0.531
vt 0.188 0.531
vt 0.313 0.531
vt 0.281 0.531
vt 0.063 0.531
vt 0.031 0.531
vt 0.906 0.531
vt 0.406 0.531
vt 0 0.531
vt 1 0.531
vt 0.094 0.531
vt 0.787 0.659
vt 0.234 0.956
vt 0.271 0.952
vt 0.277 0.979
vt 0.234 0.983
vt 0.114 0.946
vt 0.129 0.924
vt 0.162 0.941
vt 0.151 0.966
vt 0.197 0.952
vt 0.192 0.979
vt 0.197 0.579
vt 0.192 0.553
vt 0.234 0.549
vt 0.234 0.576
vt 0.808 0.553
vt 0.849 0.565
vt 0.838 0.59
vt 0.803 0.579
vt 0.355 0.946
vt 0.34 0.924
vt 0.369 0.9
vt 0.388 0.919
vt 0.392 0.66
vt 0.415 0.645
vt 0.435 0.683
vt 0.41 0.693
vt 0.317 0.966
vt 0.307 0.941
vt 0.081 0.919
vt 0.1 0.9
vt 0.054 0.886
vt 0.076 0.871
vt 0.392 0.871
vt 0.415 0.886
vt 0.034 0.849
vt 0.059 0.838
vt 0.41 0.838
vt 0.435 0.849
vt 0.021 0.808
vt 0.048 0.803
vt 0.421 0.803
vt 0.447 0.808
vt 0.017 0.766
vt 0.044 0.766
vt 0.271 0.579
vt 0.277 0.553
vt 0.317 0.565
vt 0.307 0.59
vt 0.021 0.723
vt 0.048 0.729
vt 0.421 0.729
vt 0.447 0.723
vt 0.451 0.766
vt 0.424 0.766
vt 0.034 0.683
vt 0.059 0.693
vt 0.162 0.59
vt 0.151 0.565
vt 0.081 0.612
vt 0.1 0.631
vt 0.076 0.66
vt 0.054 0.645
vt 0.369 0.631
vt 0.388 0.612
vt 0.114 0.585
vt 0.129 0.608
vt 0.34 0.608
vt 0.355 0.585
vt 0.469 0
vt 0.5 0
vt 0.438 0
vt 0.406 0
vt 0.375 0
vt 0.344 0
vt 0.313 0
vt 0.281 0
vt 0.25 0
vt 0.219 0
vt 0.188 0
vt 0.156 0
vt 0.125 0
vt 0.094 0
vt 0.063 0
vt 0.031 0
vt 0 0
vt 0.969 0
vt 1 0
vt 0.938 0
vt 0.906 0
vt 0.875 0
vt 0.844 0
vt 0.813 0
vt 0.781 0
vt 0.75 0
vt 0.719 0
vt 0.688 0
vt 0.656 0
vt 0.625 0
vt 0.594 0
vt 0.563 0
vt 0.531 0
vt 0.766 0.576
vt 0.766 0.548
vt 0.693 0.59
vt 0.66 0.608
vt 0.645 0.585
vt 0.683 0.565
vt 0.729 0.579
vt 0.723 0.553
vt 0.729 0.952
vt 0.766 0.955
vt 0.766 0.983
vt 0.723 0.978
vt 0.886 0.585
vt 0.919 0.612
vt 0.9 0.631
vt 0.871 0.608
vt 0.966 0.849
vt 0.946 0.886
vt 0.924 0.871
vt 0.941 0.838
vt 0.631 0.631
vt 0.612 0.612
vt 0.608 0.66
vt 0.585 0.645
vt 0.924 0.66
vt 0.946 0.645
vt 0.59 0.693
vt 0.565 0.682
vt 0.941 0.693
vt 0.966 0.682
vt 0.579 0.728
vt 0.553 0.723
vt 0.952 0.728
vt 0.979 0.723
vt 0.576 0.766
vt 0.549 0.766
vt 0.803 0.952
vt 0.838 0.941
vt 0.849 0.966
vt 0.808 0.978
vt 0.579 0.803
vt 0.553 0.808
vt 0.952 0.803
vt 0.956 0.766
vt 0.983 0.766
vt 0.979 0.808
vt 0.565 0.849
vt 0.59 0.838
vt 0.693 0.941
vt 0.683 0.966
vt 0.612 0.919
vt 0.585 0.886
vt 0.608 0.871
vt 0.631 0.9
vt 0.919 0.919
vt 0.9 0.9
vt 0.645 0.946
vt 0.66 0.923
vt 0.886 0.946
vt 0.871 0.923
vt 0.5 0.938
vt 0.585 0.929
vt 0.667 0.904
vt 0.743 0.864
vt 0.809 0.809
vt 0.864 0.743
vt 0.904 0.667
vt 0.929 0.585
vt 0.929 0.415
vt 0.904 0.333
vt 0.864 0.257
vt 0.809 0.191
vt 0.743 0.136
vt 0.667 0.096
vt 0.585 0.071
vt 0.5 0.063
vt 0.415 0.071
vt 0.333 0.096
vt 0.257 0.136
vt 0.191 0.191
vt 0.136 0.257
vt 0.096 0.333
vt 0.071 0.415
vt 0.071 0.585
vt 0.096 0.667
vt 0.136 0.743
vt 0.191 0.809
vt 0.257 0.864
vt 0.333 0.904
vt 0.415 0.929
vn 0.142 -0.686 -0.714
vn 0 -0.686 -0.728
vn 0 0 -1
vn 0.195 0 -0.981
vn 0.279 -0.686 -0.672
vn 0.383 0 -0.924
vn 0.556 0 -0.831
vn 0.404 -0.686 -0.605
vn 0.707 0 -0.707
vn 0.515 -0.686 -0.515
vn 0.832 0 -0.556
vn 0.605 -0.686 -0.404
vn 0.924 0 -0.383
vn 0.673 -0.686 -0.278
vn 0.981 0 -0.195
vn 0.714 -0.686 -0.142
vn 1 0 0
vn 0.728 -0.686 0
vn 0.981 0 0.195
vn 0.714 -0.686 0.142
vn 0.924 0 0.383
vn 0.673 -0.686 0.279
vn 0.832 0 0.556
vn 0.605 -0.686 0.404
vn 0.707 0 0.707
vn 0.515 -0.686 0.515
vn 0.556 0 0.832
vn 0.404 -0.686 0.605
vn 0.383 0 0.924
vn 0.279 -0.686 0.673
vn 0.195 0 0.981
vn 0.142 -0.686 0.714
vn 0 0 1
vn 0 -0.686 0.728
vn -0.195 0 0.981
vn -0.142 -0.686 0.714
vn -0.383 0 0.924
vn -0.278 -0.686 0.673
vn -0.556 0 0.832
vn -0.404 -0.686 0.605
vn -0.707 0 0.707
vn -0.515 -0.686 0.515
vn -0.831 0 0.556
vn -0.605 -0.686 0.404
vn -0.924 0 0.383
vn -0.672 -0.686 0.279
vn -0.981 0 0.195
vn -0.714 -0.686 0.142
vn -1 0 0
vn -0.728 -0.686 0
vn -0.981 0 -0.195
vn -0.714 -0.686 -0.142
vn -0.924 0 -0.383
vn -0.672 -0.686 -0.278
vn -0.831 0 -0.556
vn -0.605 -0.686 -0.404
vn -0.707 0 -0.707
vn -0.515 -0.686 -0.515
vn -0.556 0 -0.831
vn -0.404 -0.686 -0.605
vn -0.383 0 -0.924
vn -0.278 -0.686 -0.672
vn -0.142 -0.686 -0.714
vn -0.195 0 -0.981
vn 0 -1 0
vn -0.38 0.73 0.568
vn -0.262 0.73 0.632
vn -0.632 0.73 -0.262
vn -0.67 0.73 -0.133
vn -0.568 0.73 0.38
vn -0.483 0.73 0.483
vn 0.133 0.73 0.671
vn 0.262 0.73 0.632
vn 0.684 0.73 0
vn 0.671 0.73 -0.133
vn 0.568 0.73 -0.38
vn 0.483 0.73 -0.483
vn -0.684 0.73 0
vn -0.67 0.73 0.133
vn -0.483 0.73 -0.483
vn -0.568 0.73 -0.38
vn -0.133 0.73 0.671
vn 0 0.73 0.684
vn 0.483 0.73 0.483
vn 0.568 0.73 0.38
vn -0.632 0.73 0.262
vn -0.133 0.73 -0.67
vn -0.262 0.73 -0.632
vn 0.632 0.73 -0.262
vn 0.632 0.73 0.262
vn 0.671 0.73 0.133
vn 0.262 0.73 -0.632
vn 0.133 0.73 -0.67
vn -0.38 0.73 -0.568
vn 0.38 0.73 0.568
vn 0 0.73 -0.684
vn 0.38 0.73 -0.568
vn 0 1 0
vn 0.231 -0.797 -0.558
vn 0.118 -0.797 -0.592
vn 0 -0.797 -0.604
vn 0.191 -0.209 -0.959
vn 0 -0.209 -0.978
vn 0.374 -0.209 -0.903
vn 0.335 -0.797 -0.502
vn 0.543 -0.209 -0.813
vn 0.427 -0.797 -0.427
vn 0.691 -0.209 -0.691
vn 0.502 -0.797 -0.335
vn 0.813 -0.209 -0.543
vn 0.558 -0.797 -0.231
vn 0.903 -0.209 -0.374
vn 0.592 -0.797 -0.118
vn 0.959 -0.209 -0.191
vn 0.604 -0.797 0
vn 0.978 -0.209 0
vn 0.592 -0.797 0.118
vn 0.959 -0.209 0.191
vn 0.558 -0.797 0.231
vn 0.903 -0.209 0.374
vn 0.502 -0.797 0.335
vn 0.813 -0.209 0.543
vn 0.427 -0.797 0.427
vn 0.691 -0.209 0.691
vn 0.335 -0.797 0.502
vn 0.543 -0.209 0.813
vn 0.231 -0.797 0.558
vn 0.374 -0.209 0.903
vn 0.118 -0.797 0.592
vn 0.191 -0.209 0.959
vn 0 -0.797 0.604
vn 0 -0.209 0.978
vn -0.118 -0.797 0.592
vn -0.191 -0.209 0.959
vn -0.231 -0.797 0.558
vn -0.374 -0.209 0.903
vn -0.335 -0.797 0.502
vn -0.543 -0.209 0.813
vn -0.427 -0.797 0.427
vn -0.691 -0.209 0.691
vn -0.502 -0.797 0.335
vn -0.813 -0.209 0.543
vn -0.558 -0.797 0.231
vn -0.903 -0.209 0.374
vn -0.592 -0.797 0.118
vn -0.959 -0.209 0.191
vn -0.604 -0.797 0
vn -0.978 -0.209 0
vn -0.592 -0.797 -0.118
vn -0.959 -0.209 -0.191
vn -0.558 -0.797 -0.231
vn -0.903 -0.209 -0.374
vn -0.502 -0.797 -0.335
vn -0.813 -0.209 -0.543
vn -0.427 -0.797 -0.427
vn -0.691 -0.209 -0.691
vn -0.335 -0.797 -0.502
vn -0.543 -0.209 -0.813
vn -0.231 -0.797 -0.558
vn -0.374 -0.209 -0.903
vn -0.191 -0.209 -0.959
vn -0.118 -0.797 -0.592
g 1
s 1
f 1/1/1 2/2/2 3/3/3 4/4/4
f 7/5/5 1/1/1 4/4/4 8/6/6
f 8/6/6 12/7/7 11/8/8 7/5/5
f 12/7/7 16/9/9 15/10/10 11/8/8
f 16/9/9 20/11/11 19/12/12 15/10/10
f 20/11/11 24/13/13 23/14/14 19/12/12
f 24/13/13 28/15/15 27/16/16 23/14/14
f 28/15/15 32/17/17 31/18/18 27/16/16
f 32/17/17 36/19/19 35/20/20 31/18/18
f 36/19/19 40/21/21 39/22/22 35/20/20
f 40/21/21 49/23/23 48/24/24 39/22/22
f 49/23/23 59/25/25 58/26/26 48/24/24
f 59/25/25 69/27/27 68/28/28 58/26/26
f 69/27/27 80/29/29 79/30/30 68/28/28
f 80/29/29 92/31/31 91/32/32 79/30/30
f 92/31/31 96/33/33 95/34/34 91/32/32
f 96/35/33 94/36/35 93/37/36 95/38/34
f 94/36/35 82/39/37 81/40/38 93/37/36
f 82/39/37 71/41/39 70/42/40 81/40/38
f 71/41/39 61/43/41 60/44/42 70/42/40
f 61/43/41 51/45/43 50/46/44 60/44/42
f 51/45/43 42/47/45 41/48/46 50/46/44
f 42/47/45 38/49/47 37/50/48 41/48/46
f 38/49/47 34/51/49 33/52/50 37/50/48
f 34/51/49 30/53/51 29/54/52 33/52/50
f 30/53/51 26/55/53 25/56/54 29/54/52
f 26/55/53 22/57/55 21/58/56 25/56/54
f 22/57/55 18/59/57 17/60/58 21/58/56
f 18/59/57 14/61/59 13/62/60 17/60/58
f 14/61/59 10/63/61 9/64/62 13/62/60
f 2/2/2 5/65/63 6/66/64 3/3/3
f 10/63/61 6/66/64 5/65/63 9/64/62
f 108/67/65 110/68/65 163/69/65
f 121/70/65 119/71/65 163/69/65
f 102/72/65 104/73/65 163/69/65
f 122/74/65 125/75/65 163/69/65
f 113/76/65 111/77/65 163/69/65
f 126/78/65 124/79/65 163/69/65
f 107/80/65 105/81/65 163/69/65
f 128/82/65 126/78/65 163/69/65
f 103/83/65 101/84/65 163/69/65
f 127/85/65 129/86/65 163/69/65
f 111/77/65 109/87/65 163/69/65
f 112/88/65 114/89/65 163/69/65
f 105/81/65 103/83/65 163/69/65
f 125/75/65 127/85/65 163/69/65
f 118/90/65 120/91/65 163/69/65
f 104/73/65 106/92/65 163/69/65
f 115/93/65 113/76/65 163/69/65
f 100/94/65 102/72/65 163/69/65
f 124/79/65 121/70/65 163/69/65
f 116/95/65 118/90/65 163/69/65
f 106/92/65 108/67/65 163/69/65
f 101/84/65 99/96/65 163/69/65
f 129/86/65 128/82/65 163/69/65
f 99/96/65 98/97/65 163/69/65
f 120/91/65 122/74/65 163/69/65
f 117/98/65 115/93/65 163/69/65
f 110/68/65 112/88/65 163/69/65
f 119/71/65 117/98/65 163/69/65
f 109/87/65 107/80/65 163/69/65
f 132/63/37 135/61/39 88/99/66 90/100/67
f 147/49/51 149/47/53 64/101/68 66/102/69
f 137/59/41 139/57/43 78/103/70 84/104/71
f 136/6/29 134/4/31 89/105/72 87/106/73
f 150/19/15 148/17/17 65/107/74 63/108/75
f 156/25/9 154/23/11 55/109/76 53/110/77
f 143/53/47 145/51/49 72/111/78 74/112/79
f 151/45/55 153/43/57 56/113/80 62/114/81
f 131/3/33 130/66/35 86/115/82 85/116/83
f 142/11/23 140/9/25 77/117/84 75/118/85
f 139/57/43 141/55/45 76/119/86 78/103/70
f 157/39/61 159/36/64 46/120/87 52/121/88
f 130/66/35 132/63/37 90/100/67 86/115/82
f 149/47/53 151/45/55 62/114/81 64/101/68
f 152/21/13 150/19/15 63/108/75 57/122/89
f 146/15/19 144/13/21 73/123/90 67/124/91
f 145/51/49 147/49/51 66/102/69 72/111/78
f 154/23/11 152/21/13 57/122/89 55/109/76
f 162/31/4 160/29/6 45/125/92 43/126/93
f 155/41/59 157/39/61 52/121/88 54/127/94
f 140/9/25 138/7/27 83/128/95 77/117/84
f 141/55/45 143/53/47 74/112/79 76/119/86
f 144/13/21 142/11/23 75/118/85 73/123/90
f 161/33/3 162/31/4 43/126/93 44/129/96
f 148/17/17 146/15/19 67/124/91 65/107/74
f 135/61/39 137/59/41 84/104/71 88/99/66
f 159/36/64 161/35/3 44/130/96 46/120/87
f 138/7/27 136/6/29 87/106/73 83/128/95
f 158/27/7 156/25/9 53/110/77 47/131/97
f 134/4/31 131/3/33 85/116/83 89/105/72
f 153/43/57 155/41/59 54/127/94 56/113/80
f 160/29/6 158/27/7 47/131/97 45/125/92
f 114/89/65 116/95/65 163/69/65
f 98/97/65 97/132/65 163/69/65
f 97/132/65 100/94/65 163/69/65
f 85/133/83 86/134/82 4/135/98 3/136/98
f 14/137/98 83/138/95 87/139/73 10/140/98
f 10/140/98 87/139/73 89/141/72 6/142/98
f 43/143/93 94/144/98 96/145/98 44/146/96
f 1/147/1 7/148/5 194/149/99 190/150/100
f 6/142/98 89/141/72 85/133/83 3/136/98
f 12/151/98 88/152/66 84/153/71 16/154/98
f 62/155/81 49/156/98 40/157/98 64/158/68
f 8/159/98 90/160/67 88/152/66 12/151/98
f 18/161/98 77/162/84 83/138/95 14/137/98
f 22/163/98 75/164/85 77/162/84 18/161/98
f 78/165/70 20/166/98 16/154/98 84/153/71
f 26/167/98 73/168/90 75/164/85 22/163/98
f 76/169/86 24/170/98 20/166/98 78/165/70
f 30/171/98 67/172/91 73/168/90 26/167/98
f 74/173/79 28/174/98 24/170/98 76/169/86
f 34/175/98 65/176/74 67/172/91 30/171/98
f 46/177/87 92/178/98 80/179/98 52/180/88
f 38/181/98 63/182/75 65/176/74 34/175/98
f 66/183/69 36/184/98 32/185/98 72/186/78
f 42/187/98 57/188/89 63/182/75 38/181/98
f 94/144/98 43/143/93 45/189/92 82/190/98
f 44/146/96 96/145/98 92/178/98 46/177/87
f 40/157/98 36/184/98 66/183/69 64/158/68
f 61/191/98 53/192/77 55/193/76 51/194/98
f 56/195/80 59/196/98 49/156/98 62/155/81
f 71/197/98 47/198/97 53/192/77 61/191/98
f 54/199/94 69/200/98 59/196/98 56/195/80
f 71/197/98 82/190/98 45/189/92 47/198/97
f 52/180/88 80/179/98 69/200/98 54/199/94
f 51/194/98 55/193/76 57/188/89 42/187/98
f 74/173/79 72/186/78 32/185/98 28/174/98
f 189/2/101 190/1/100 97/201/102 98/202/103
f 190/1/100 194/5/99 100/203/104 97/201/102
f 194/5/99 192/8/105 102/204/106 100/203/104
f 192/8/105 188/10/107 104/205/108 102/204/106
f 104/205/108 188/10/107 186/12/109 106/206/110
f 106/206/110 186/12/109 184/14/111 108/207/112
f 108/207/112 184/14/111 182/16/113 110/208/114
f 110/208/114 182/16/113 180/18/115 112/209/116
f 180/18/115 178/20/117 114/210/118 112/209/116
f 178/20/117 176/22/119 116/211/120 114/210/118
f 176/22/119 174/24/121 118/212/122 116/211/120
f 174/24/121 172/26/123 120/213/124 118/212/122
f 120/213/124 172/26/123 170/28/125 122/214/126
f 122/214/126 170/28/125 168/30/127 125/215/128
f 125/215/128 168/30/127 167/32/129 127/216/130
f 127/216/130 167/32/129 165/34/131 129/217/132
f 165/38/131 164/37/133 128/218/134 129/219/132
f 164/37/133 166/40/135 126/220/136 128/218/134
f 166/40/135 123/42/137 124/221/138 126/220/136
f 123/42/137 169/44/139 121/222/140 124/221/138
f 121/222/140 169/44/139 171/46/141 119/223/142
f 119/223/142 171/46/141 173/48/143 117/224/144
f 117/224/144 173/48/143 175/50/145 115/225/146
f 115/225/146 175/50/145 177/52/147 113/226/148
f 177/52/147 179/54/149 111/227/150 113/226/148
f 179/54/149 181/56/151 109/228/152 111/227/150
f 181/56/151 183/58/153 107/229/154 109/228/152
f 183/58/153 185/60/155 105/230/156 107/229/154
f 105/230/156 185/60/155 187/62/157 103/231/158
f 103/231/158 187/62/157 191/64/159 101/232/160
f 99/233/161 193/65/162 189/2/101 98/202/103
f 101/232/160 191/64/159 193/65/162 99/233/161
f 1/147/1 190/150/100 189/234/101 2/235/2
f 191/236/159 187/237/157 13/238/60 9/239/62
f 193/240/162 191/236/159 9/239/62 5/241/63
f 164/242/133 165/243/131 95/244/34 93/245/36
f 189/234/101 193/240/162 5/241/63 2/235/2
f 11/246/8 15/247/10 188/248/107 192/249/105
f 39/250/22 48/251/24 174/252/121 176/253/119
f 192/249/105 194/149/99 7/148/5 11/246/8
f 187/237/157 185/254/155 17/255/58 13/238/60
f 185/254/155 183/256/153 21/257/56 17/255/58
f 186/258/109 188/248/107 15/247/10 19/259/12
f 183/256/153 181/260/151 25/261/54 21/257/56
f 184/262/111 186/258/109 19/259/12 23/263/14
f 181/260/151 179/264/149 29/265/52 25/261/54
f 182/266/113 184/262/111 23/263/14 27/267/16
f 179/264/149 177/268/147 33/269/50 29/265/52
f 167/270/129 168/271/127 79/272/30 91/273/32
f 177/268/147 175/274/145 37/275/48 33/269/50
f 178/276/117 180/277/115 31/278/18 35/279/20
f 41/280/46 37/275/48 175/274/145 173/281/143
f 166/282/135 164/242/133 93/245/36 81/283/38
f 91/273/32 95/244/34 165/243/131 167/270/129
f 178/276/117 35/279/20 39/250/22 176/253/119
f 60/284/42 50/285/44 171/286/141 169/287/139
f 48/251/24 58/288/26 172/289/123 174/252/121
f 70/290/40 60/284/42 169/287/139 123/291/137
f 58/288/26 68/292/28 170/293/125 172/289/123
f 166/282/135 81/283/38 70/290/40 123/291/137
f 68/292/28 79/272/30 168/271/127 170/293/125
f 173/281/143 171/286/141 50/285/44 41/280/46
f 182/266/113 27/267/16 31/278/18 180/277/115
f 4/135/98 86/134/82 90/160/67 8/159/98
g 2
s off
f 131/294/98 133/3/98 130/295/98
f 130/295/98 133/3/98 132/296/98
f 132/296/98 133/3/98 135/297/98
f 135/297/98 133/3/98 137/298/98
f 137/298/98 133/3/98 139/299/98
f 139/299/98 133/3/98 141/300/98
f 141/300/98 133/3/98 143/301/98
f 143/301/98 133/3/98 145/39/98
f 145/39/98 133/3/98 147/302/98
f 147/302/98 133/3/98 149/303/98
f 149/303/98 133/3/98 151/304/98
f 151/304/98 133/3/98 153/305/98
f 153/305/98 133/3/98 155/306/98
f 155/306/98 133/3/98 157/307/98
f 157/307/98 133/3/98 159/308/98
f 159/308/98 133/3/98 161/309/98
f 161/309/98 133/3/98 162/310/98
f 162/310/98 133/3/98 160/311/98
f 160/311/98 133/3/98 158/312/98
f 158/312/98 133/3/98 156/313/98
f 156/313/98 133/3/98 154/314/98
f 154/314/98 133/3/98 152/315/98
f 152/315/98 133/3/98 150/316/98
f 150/316/98 133/3/98 148/29/98
f 148/29/98 133/3/98 146/317/98
f 146/317/98 133/3/98 144/318/98
f 144/318/98 133/3/98 142/319/98
f 142/319/98 133/3/98 140/320/98
f 140/320/98 133/3/98 138/321/98
f 138/321/98 133/3/98 136/322/98
f 136/322/98 133/3/98 134/323/98
f 134/323/98 133/3/98 131/294/98
