v 0.5 0.5 0.375
v 0.5 0.5 0.5
v 0.5 -0.5 0.375
v 0.5 -0.5 0.5
v -0.5 0.5 0.375
v -0.5 0.5 0.5
v -0.5 -0.5 0.375
v -0.5 -0.5 0.5
v 0.5 0.375 0.375
v 0.5 -0.375 0.5
v -0.5 -0.375 0.375
v -0.5 0.375 0.5
v 0.5 -0.375 0.375
v 0.5 0.375 0.5
v -0.5 0.375 0.375
v -0.5 -0.375 0.5
v -0.125 0.125 0.406
v 0.125 0.125 0.469
v -0.125 0.125 0.469
v -0.375 0.375 0.5
v -0.375 -0.375 0.5
v 0.375 -0.375 0.5
v 0.125 -0.125 0.469
v 0.125 0.125 0.406
v 0.375 0.375 0.375
v 0.375 -0.375 0.375
v -0.375 -0.375 0.375
v -0.125 -0.125 0.406
v 0.125 -0.125 0.406
v -0.125 -0.125 0.469
v 0.375 0.375 0.5
v -0.375 0.375 0.375
v 0.5 -0.062 0.375
v 0.5 0.063 0.5
v -0.5 0.063 0.375
v -0.5 -0.062 0.5
v 0.5 0.063 0.375
v 0.5 -0.062 0.5
v -0.5 -0.062 0.375
v -0.5 0.063 0.5
v -0.375 0.063 0.375
v -0.312 0.125 0.406
v -0.125 0.313 0.406
v -0.062 0.375 0.375
v 0.375 0.063 0.5
v 0.313 0.125 0.469
v 0.125 0.313 0.469
v 0.063 0.375 0.5
v -0.375 0.063 0.5
v -0.312 0.125 0.469
v -0.125 -0.312 0.469
v -0.062 -0.375 0.5
v -0.375 -0.062 0.5
v -0.312 -0.125 0.469
v 0.125 -0.312 0.469
v 0.063 -0.375 0.5
v 0.375 0.063 0.375
v 0.313 0.125 0.406
v 0.125 -0.312 0.406
v 0.063 -0.375 0.375
v 0.375 -0.062 0.375
v 0.313 -0.125 0.406
v -0.125 -0.312 0.406
v -0.062 -0.375 0.375
v -0.375 -0.062 0.375
v -0.312 -0.125 0.406
v 0.125 0.313 0.406
v 0.063 0.375 0.375
v 0.375 -0.062 0.5
v 0.313 -0.125 0.469
v -0.125 0.313 0.469
v -0.062 0.375 0.5
v -0.312 0.313 0.406
v 0.313 0.313 0.469
v -0.062 -0.062 0.375
v -0.312 -0.312 0.406
v 0.313 0.313 0.406
v 0.063 0.063 0.375
v 0.063 -0.062 0.5
v 0.313 -0.312 0.469
v -0.312 0.313 0.469
v -0.062 0.063 0.5
v 0.063 0.063 0.5
v -0.062 0.063 0.375
v -0.312 -0.312 0.469
v 0.313 -0.312 0.406
v 0.063 -0.062 0.375
v -0.062 -0.062 0.5
vt 0 0
vt 0 0.125
vt 0.125 0.125
vt 0.438 0.125
vt 0.563 0.125
vt 0.875 0.125
vt 1 0.125
vt 1 0
vt 0.563 0.438
vt 0.875 0.438
vt 0.813 0.375
vt 0.625 0.375
vt 0.375 0.375
vt 0.375 0.188
vt 0.438 0.125
vt 0.438 0.438
vt 0.563 0.438
vt 0.625 0.375
vt 0.813 0.375
vt 0.875 0.438
vt 0.125 0.438
vt 0 0.438
vt 0 0.125
vt 0.125 0.125
vt 0.125 0.438
vt 0.438 0.438
vt 0.375 0.375
vt 0.188 0.375
vt 0.875 0.563
vt 0.813 0.625
vt 0.813 0.813
vt 0.875 0.875
vt 0.625 0.625
vt 0.563 0.563
vt 0.563 0.875
vt 0.625 0.813
vt 1 0.563
vt 1 0.438
vt 0 0.438
vt 0 0.563
vt 0.125 0.563
vt 0.438 0.563
vt 0.813 0.188
vt 0.875 0.125
vt 0.375 0.188
vt 0.188 0.188
vt 0.188 0.188
vt 0.188 0.375
vt 0.563 0.875
vt 0.563 0.563
vt 0.625 0.625
vt 0.625 0.813
vt 0.875 0.563
vt 0.813 0.625
vt 0.375 0.625
vt 0.188 0.625
vt 0.125 0.563
vt 0.438 0.563
vt 0.375 0.625
vt 0.375 0.813
vt 0.438 0.875
vt 0.625 0.188
vt 0.563 0.125
vt 0.188 0.625
vt 0.125 0.875
vt 0.188 0.813
vt 0.875 0.875
vt 0.813 0.813
vt 0 0.875
vt 0.813 0.188
vt 0.625 0.188
vt 0.375 0.813
vt 0.438 0.875
vt 0.125 0.875
vt 1 0.875
vt 1 1
vt 0 1
vt 0 0.875
vt 1 0.438
vt 1 0.125
vt 0 0.563
vt 1 0.563
vt 0 1
vt 1 1
vt 1 0.875
vt 1 0
vt 0 0
vt 0.188 0.813
vt 1 0.125
vt 1 0
vt 0 0
vt 0 0.125
vt 1 0.125
vt 1 0
vt 1 0
vt 1 0
vt 1 0
vt 1 0.125
vt 1 0.125
vt 1 0.125
vt 0 0
vt 0 0
vt 0 0
vt 0 0
vt 0 0.125
vt 0 0.125
vt 0 0.125
vt 0 0.125
vt 0.188 0.125
vt 0.188 0.063
vt 0.188 0.063
vt 0.188 0.125
vt 0.375 0.125
vt 0.375 0.063
vt 0.375 0.125
vt 0.375 0.063
vt 0.813 0.063
vt 0.813 0.125
vt 0.625 0.125
vt 0.625 0.063
vt 0.625 0.125
vt 0.625 0.063
vt 0.813 0.063
vt 0.813 0.125
vt 0.625 0.063
vt 0.625 0.063
vt 0.625 0.125
vt 0.625 0.125
vt 0.813 0.063
vt 0.813 0.125
vt 0.813 0.063
vt 0.813 0.125
vt 0.188 0.125
vt 0.188 0.063
vt 0.188 0.063
vt 0.188 0.125
vt 0.375 0.063
vt 0.375 0.125
vt 0.375 0.125
vt 0.375 0.063
vn 0 0 -1
vn 0 0.447 -0.894
vn 0.447 0 0.894
vn 0 0.447 0.894
vn 0 0 1
vn 0.447 0 -0.894
vn -0.447 0 -0.894
vn 0 -0.447 -0.894
vn -0.447 0 0.894
vn 0 -0.447 0.894
vn 0 -1 0
vn -1 0 0
vn 1 0 0
vn 0 1 0
g 1
s off
f 1/1/1 9/2/1 25/3/1 68/4/1 44/5/1 32/6/1 15/7/1 5/8/1
f 84/9/2 41/10/2 42/11/2 17/12/2
f 18/13/3 47/14/3 48/15/3 83/16/3
f 82/17/4 19/18/4 50/19/4 49/20/4
f 45/21/5 34/22/5 14/23/5 31/24/5
f 57/25/2 78/26/2 24/27/2 58/28/2
f 65/29/6 66/30/6 76/31/6 27/32/6
f 28/33/7 75/34/7 64/35/7 63/36/7
f 65/29/1 39/37/1 35/38/1 41/10/1 84/9/1 78/26/1 57/25/1 37/39/1 33/40/1 61/41/1 87/42/1 75/34/1
f 81/43/3 20/44/3 49/20/3 50/19/3
f 67/45/8 68/4/8 25/3/8 77/46/8
f 45/21/9 31/24/9 74/47/9 46/48/9
f 47/14/10 74/47/10 31/24/10 48/15/10
f 52/49/9 88/50/9 30/51/9 51/52/9
f 30/51/10 88/50/10 53/53/10 54/54/10
f 23/55/10 70/56/10 69/57/10 79/58/10
f 87/42/6 29/59/6 59/60/6 60/61/6
f 75/34/8 28/33/8 66/30/8 65/29/8
f 81/43/10 71/62/10 72/63/10 20/44/10
f 62/64/7 61/41/7 26/65/7 86/66/7
f 29/59/8 87/42/8 61/41/8 62/64/8
f 54/54/3 53/53/3 21/67/3 85/68/3
f 60/61/1 64/35/1 75/34/1 87/42/1
f 52/49/4 51/52/4 85/68/4 21/67/4
f 33/40/1 13/69/1 26/65/1 61/41/1
f 26/65/2 60/61/2 59/60/2 86/66/2
f 73/70/8 32/6/8 44/5/8 43/71/8
f 77/46/7 25/3/7 57/25/7 58/28/7
f 55/72/3 23/55/3 79/58/3 56/73/3
f 22/74/5 56/73/5 52/49/5 21/67/5 16/75/5 8/76/5 4/77/5 10/78/5
f 40/79/5 49/20/5 20/44/5 12/80/5
f 10/78/5 38/81/5 69/57/5 22/74/5
f 48/15/5 72/63/5 82/17/5 83/16/5
f 83/16/5 82/17/5 49/20/5 40/79/5 36/82/5 53/53/5 88/50/5 79/58/5 69/57/5 38/81/5 34/22/5 45/21/5
f 17/12/7 43/71/7 44/5/7 84/9/7
f 88/50/5 52/49/5 56/73/5 79/58/5
f 15/7/1 32/6/1 41/10/1 35/38/1
f 83/16/4 45/21/4 46/48/4 18/13/4
f 64/35/2 27/32/2 76/31/2 63/36/2
f 26/65/1 13/69/1 3/83/1 7/84/1 11/85/1 27/32/1 64/35/1 60/61/1
f 44/5/1 68/4/1 78/26/1 84/9/1
f 57/25/1 25/3/1 9/2/1 37/39/1
f 39/37/1 65/29/1 27/32/1 11/85/1
f 6/86/5 12/80/5 20/44/5 72/63/5 48/15/5 31/24/5 14/23/5 2/87/5
f 53/53/5 36/82/5 16/75/5 21/67/5
f 56/73/4 22/74/4 80/88/4 55/72/4
f 72/63/9 71/62/9 19/18/9 82/17/9
f 22/74/9 69/57/9 70/56/9 80/88/9
f 41/10/6 32/6/6 73/70/6 42/11/6
f 68/4/6 67/45/6 24/27/6 78/26/6
g 2
f 8/89/11 7/90/11 3/91/11 4/92/11
f 6/93/12 5/8/12 15/94/12 35/95/12 39/96/12 11/97/12 7/90/12 8/89/12 16/98/12 36/99/12 40/100/12 12/80/12
f 3/91/13 13/101/13 33/102/13 37/103/13 9/104/13 1/1/13 2/105/13 14/23/13 34/106/13 38/107/13 10/108/13 4/92/13
f 1/1/14 5/8/14 6/93/14 2/105/14
f 70/109/12 62/110/12 86/111/12 80/112/12
f 23/113/11 29/114/11 62/110/11 70/109/11
f 55/115/13 59/116/13 29/114/13 23/113/13
f 59/116/14 55/115/14 80/112/14 86/111/14
f 76/117/14 85/118/14 51/119/14 63/120/14
f 51/119/12 30/121/12 28/122/12 63/120/12
f 66/123/13 54/124/13 85/118/13 76/117/13
f 28/122/11 30/121/11 54/124/11 66/123/11
f 43/125/12 17/126/12 19/127/12 71/128/12
f 42/129/14 50/130/14 19/127/14 17/126/14
f 73/131/13 81/132/13 50/130/13 42/129/13
f 73/131/11 43/125/11 71/128/11 81/132/11
f 74/133/12 77/134/12 58/135/12 46/136/12
f 46/136/14 58/135/14 24/137/14 18/138/14
f 47/139/13 18/138/13 24/137/13 67/140/13
f 74/133/11 47/139/11 67/140/11 77/134/11
