v -0.5 -0.5 0.5
v -0.5 -0.5 -0.437
v 0.5 -0.5 -0.437
v 0.5 -0.5 0.5
v -0.5 0.5 0.5
v -0.5 0.5 -0.437
v 0.5 0.5 -0.437
v 0.5 0.5 0.5
v -0.437 -0.437 -0.437
v 0.438 -0.437 -0.437
v -0.437 0.438 -0.437
v 0.438 0.438 -0.437
v -0.437 -0.437 -0.5
v 0.438 -0.437 -0.5
v -0.437 0.438 -0.5
v 0.438 0.438 -0.5
vt 1 1
vt 0 1
vt 0 0
vt 1 0
vt 0.938 0.938
vt 0.063 0.938
vt 0.063 0.063
vt 0.938 0.063
vt 0.938 0.125
vt 0.063 0.125
vt 0.125 0.063
vt 0.125 0.938
vt 0.063 0.875
vt 0.938 0.875
vt 0.875 0.938
vt 0.875 0.063
vn -1 0 0
vn 0 0 -1
vn 1 0 0
vn 0 0 1
vn 0 1 0
vn 0 -1 0
g 1
s off
f 5/1/1 6/2/1 2/3/1 1/4/1
f 6/1/2 7/2/2 3/3/2 2/4/2
f 7/1/3 8/2/3 4/3/3 3/4/3
f 8/1/4 5/2/4 1/3/4 4/4/4
f 8/2/5 7/3/5 6/4/5 5/1/5
g 2
f 15/5/2 16/6/2 14/7/2 13/8/2
f 10/7/6 9/8/6 13/9/6 14/10/6
f 12/6/3 10/7/3 14/11/3 16/12/3
f 11/5/5 12/6/5 16/13/5 15/14/5
f 9/8/1 11/5/1 15/15/1 13/16/1
g 3
f 1/4/6 2/1/6 3/2/6 4/3/6
