# Blender v2.83.5 OBJ File: 'kitchen_sink.blend'
# www.blender.org
o Cube_Cube.001
v 0.500000 -0.500000 -0.500000
v 0.500000 -0.500000 0.500000
v -0.500000 -0.500000 -0.500000
v -0.500000 -0.500000 0.500000
v 0.500000 0.500000 -0.500000
v 0.500000 0.500000 0.500000
v -0.500000 0.500000 -0.500000
v -0.500000 0.500000 0.500000
v 0.000000 -0.500000 0.500000
v 0.000000 0.500000 0.500000
v 0.000000 0.062500 0.437500
v -0.062500 0.062500 0.375000
v 0.062500 0.062500 0.375000
v 0.062500 -0.062500 0.437500
v 0.000000 -0.062500 0.437500
v 0.062500 -0.062500 0.375000
v -0.062500 -0.062500 0.437500
v -0.062500 0.062500 0.437500
v -0.062500 -0.062500 0.375000
v 0.000000 0.375000 0.437500
v 0.062500 0.062500 0.437500
v 0.000000 -0.375000 0.437500
v -0.375000 -0.375000 0.437500
v -0.375000 0.375000 0.500000
v -0.375000 0.375000 0.437500
v 0.375000 0.375000 0.437500
v 0.000000 0.375000 0.500000
v 0.375000 0.375000 0.500000
v 0.000000 -0.375000 0.500000
v 0.375000 -0.375000 0.500000
v 0.375000 -0.375000 0.437500
v -0.375000 -0.375000 0.500000
vt 0.437500 0.375000
vt 0.562500 0.437500
vt 0.437500 0.437500
vt 0.125000 0.875000
vt 0.875000 0.875000
vt 1.000000 1.000000
vt 0.625000 0.500000
vt 0.625000 0.562500
vt 0.562500 0.562500
vt 0.875000 0.062500
vt 0.125000 0.125000
vt 0.125000 0.062500
vt 0.875000 0.875000
vt 0.437500 0.562500
vt 0.562500 0.562500
vt 0.875000 0.125000
vt 0.125000 0.125000
vt 0.000000 0.000000
vt 0.375000 0.500000
vt 0.375000 0.437500
vt 0.437500 0.625000
vt 0.437500 0.562500
vt 0.875000 0.500000
vt 0.875000 0.125000
vt 0.937500 0.500000
vt 0.125000 0.500000
vt 0.125000 0.875000
vt 0.062500 0.875000
vt 0.562500 0.437500
vt 0.437500 0.437500
vt 0.125000 0.937500
vt 0.875000 0.937500
vt 0.937500 0.125000
vt 0.937500 0.875000
vt 0.062500 0.500000
vt 0.062500 0.125000
vt 0.562500 0.375000
vt 0.625000 0.437500
vt 0.375000 0.562500
vt 0.562500 0.625000
vt 0.562500 0.500000
vt 0.437500 0.500000
vt 0.000000 1.000000
vt 0.000000 0.500000
vt 0.125000 0.500000
vt 0.875000 0.500000
vt 1.000000 0.500000
vt 1.000000 0.000000
vt 1.000000 1.000000
vt 0.000000 1.000000
vt 0.000000 0.000000
vt 1.000000 0.000000
vt 0.500000 1.000000
vt 0.000000 1.000000
vt 0.000000 0.000000
vt 0.500000 1.000000
vt 1.000000 -0.000000
vt 1.000000 1.000000
vt -0.000000 0.000000
vt 1.000000 -0.000000
vt 1.000000 1.000000
vt 0.000000 1.000000
vt -0.000000 0.000000
vt 1.000000 -0.000000
vt 1.000000 1.000000
vt 0.000000 1.000000
vn -1.0000 0.0000 0.0000
vn 0.0000 0.0000 1.0000
vn -0.0000 -1.0000 0.0000
vn 0.0000 1.0000 -0.0000
vn 1.0000 0.0000 0.0000
vn 0.0000 0.0000 -1.0000
g Cube_Cube.001_top
s off
f 14/1/1 13/2/1 16/3/1
f 32/4/2 24/5/2 8/6/2
f 11/7/3 18/8/3 12/9/3
f 28/10/1 31/11/1 30/12/1
f 25/13/2 17/14/2 18/15/2
f 28/16/2 30/17/2 2/18/2
f 15/19/4 14/20/4 16/3/4
f 12/9/5 17/21/5 19/22/5
f 20/23/3 26/24/3 27/25/3
f 22/26/4 23/27/4 32/28/4
f 26/24/2 21/29/2 14/30/2
f 32/31/5 25/13/5 24/32/5
f 12/9/2 19/22/2 16/3/2 13/2/2
f 28/10/1 26/24/1 31/11/1
f 26/24/3 28/33/3 27/25/3
f 27/25/3 24/34/3 20/23/3
f 24/34/3 25/13/3 20/23/3
f 32/28/4 29/35/4 22/26/4
f 29/35/4 30/36/4 22/26/4
f 30/36/4 31/11/4 22/26/4
f 32/31/5 23/27/5 25/13/5
f 14/1/1 21/37/1 13/2/1
f 12/9/3 13/2/3 11/7/3
f 13/2/3 21/38/3 11/7/3
f 16/3/4 19/22/4 15/19/4
f 19/22/4 17/39/4 15/19/4
f 12/9/5 18/40/5 17/21/5
f 11/41/2 20/23/2 18/15/2
f 20/23/2 25/13/2 18/15/2
f 25/13/2 23/27/2 17/14/2
f 23/27/2 22/26/2 17/14/2
f 22/26/2 15/42/2 17/14/2
f 14/30/2 15/42/2 22/26/2
f 22/26/2 31/11/2 14/30/2
f 31/11/2 26/24/2 14/30/2
f 26/24/2 20/23/2 21/29/2
f 20/23/2 11/41/2 21/29/2
f 4/43/2 9/44/2 32/4/2
f 9/44/2 29/45/2 32/4/2
f 27/46/2 10/47/2 24/5/2
f 10/47/2 8/6/2 24/5/2
f 4/43/2 32/4/2 8/6/2
f 6/48/2 10/47/2 28/16/2
f 10/47/2 27/46/2 28/16/2
f 29/45/2 9/44/2 30/17/2
f 9/44/2 2/18/2 30/17/2
f 6/48/2 28/16/2 2/18/2
g Cube_Cube.001_bottom
f 5/49/6 1/50/6 3/51/6 7/52/6
g Cube_Cube.001_right
f 8/6/4 10/53/4 6/54/4 5/55/4 7/52/4
g Cube_Cube.001_left
f 9/56/3 4/43/3 3/51/3 1/57/3 2/58/3
g Cube_Cube.001_back
f 7/59/1 3/60/1 4/61/1 8/62/1
g Cube_Cube.001_front
f 1/63/5 5/64/5 6/65/5 2/66/5
