v -0.124 -0.499 0.263
v -0.148 0.204 0.31
v -0.247 0.204 0.239
v -0.208 -0.499 0.202
v -0.315 0.204 0.138
v -0.267 -0.499 0.116
v -0.345 0.204 0.02
v -0.292 -0.499 0.016
v -0.333 0.204 -0.102
v -0.282 -0.499 -0.087
v -0.28 0.204 -0.212
v -0.237 -0.499 -0.18
v -0.192 0.204 -0.297
v -0.162 -0.499 -0.253
v -0.081 0.204 -0.347
v -0.068 -0.499 -0.295
v 0.041 0.204 -0.356
v 0.035 -0.499 -0.303
v 0.158 0.204 -0.322
v 0.135 -0.499 -0.275
v 0.257 0.204 -0.251
v 0.219 -0.499 -0.214
v 0.326 0.204 -0.15
v 0.277 -0.499 -0.128
v 0.356 0.204 -0.032
v 0.303 -0.499 -0.028
v 0.344 0.204 0.09
v 0.292 -0.499 0.075
v 0.29 0.204 0.2
v 0.247 -0.499 0.168
v 0.203 0.204 0.285
v 0.173 -0.499 0.241
v 0.092 0.204 0.335
v 0.079 -0.499 0.283
v -0.03 0.204 0.344
v -0.025 -0.499 0.291
v -0.033 0.218 0.372
v -0.16 0.218 0.336
v 0.099 0.218 0.362
v 0.219 0.218 0.308
v 0.313 0.218 0.216
v 0.371 0.218 0.097
v 0.384 0.218 -0.034
v 0.352 0.218 -0.162
v 0.278 0.218 -0.271
v 0.171 0.218 -0.348
v 0.044 0.218 -0.384
v -0.088 0.218 -0.374
v -0.208 0.218 -0.32
v -0.303 0.218 -0.228
v -0.36 0.218 -0.109
v -0.373 0.218 0.022
v -0.341 0.218 0.15
v -0.267 0.218 0.259
v -0.166 0.193 0.349
v -0.277 0.193 0.269
v -0.354 0.193 0.156
v -0.388 0.193 0.023
v -0.374 0.193 -0.113
v -0.315 0.193 -0.237
v -0.216 0.193 -0.332
v -0.091 0.193 -0.388
v 0.045 0.193 -0.399
v 0.177 0.193 -0.361
v 0.288 0.193 -0.281
v 0.365 0.193 -0.168
v 0.399 0.193 -0.035
v 0.385 0.193 0.101
v 0.325 0.193 0.225
v 0.227 0.193 0.32
v 0.102 0.193 0.376
v -0.034 0.193 0.387
v -0.034 0.258 0.387
v -0.166 0.258 0.349
v 0.102 0.258 0.376
v 0.227 0.258 0.32
v 0.325 0.258 0.225
v 0.385 0.258 0.101
v 0.399 0.258 -0.035
v 0.365 0.258 -0.168
v 0.288 0.258 -0.281
v 0.177 0.258 -0.361
v 0.045 0.258 -0.399
v -0.091 0.258 -0.388
v -0.216 0.258 -0.332
v -0.315 0.258 -0.237
v -0.374 0.258 -0.113
v -0.388 0.258 0.023
v -0.354 0.258 0.156
v -0.277 0.258 0.269
v -0.144 0.258 0.303
v -0.24 0.258 0.233
v -0.307 0.258 0.135
v -0.336 0.258 0.019
v -0.324 0.258 -0.099
v -0.273 0.258 -0.206
v -0.187 0.258 -0.289
v -0.079 0.258 -0.338
v 0.04 0.258 -0.347
v 0.154 0.258 -0.315
v 0.251 0.258 -0.245
v 0.318 0.258 -0.147
v 0.347 0.258 -0.031
v 0.335 0.258 0.087
v 0.283 0.258 0.194
v 0.198 0.258 0.277
v 0.09 0.258 0.326
v -0.029 0.258 0.335
v -0.027 0.314 0.315
v -0.135 0.314 0.284
v 0.084 0.314 0.306
v 0.186 0.314 0.26
v 0.267 0.314 0.182
v 0.315 0.314 0.082
v 0.327 0.314 -0.03
v 0.299 0.314 -0.138
v 0.236 0.314 -0.231
v 0.038 0.314 -0.327
v 0.146 0.314 -0.296
v -0.074 0.314 -0.318
v -0.176 0.314 -0.272
v -0.256 0.314 -0.194
v -0.305 0.314 -0.094
v -0.316 0.314 0.018
v -0.288 0.314 0.126
v -0.226 0.314 0.219
v 0.052 0.314 -0.103
v 0.082 0.314 -0.081
v 0.082 0.355 -0.081
v 0.052 0.355 -0.103
v -0.041 0.314 0.091
v -0.072 0.314 0.069
v -0.072 0.355 0.069
v -0.041 0.355 0.091
v -0.072 0.386 0.069
v -0.041 0.386 0.091
v 0.082 0.386 -0.081
v 0.052 0.386 -0.103
v 0.176 0.314 -0.274
v 0.206 0.314 -0.252
v -0.195 0.314 0.24
v -0.165 0.314 0.262
v 0.088 0.314 -0.121
v 0.077 0.314 -0.122
v 0.077 0.355 -0.122
v 0.088 0.355 -0.121
v 0.092 0.314 -0.111
v 0.092 0.355 -0.111
v -0.077 0.314 0.109
v -0.067 0.314 0.11
v -0.067 0.355 0.11
v -0.077 0.355 0.109
v -0.082 0.314 0.099
v -0.082 0.355 0.099
v -0.082 0.386 0.099
v -0.077 0.386 0.109
v -0.067 0.386 0.11
v 0.092 0.386 -0.111
v 0.088 0.386 -0.121
v 0.077 0.386 -0.122
vt 0.322 0.461
vt 0 0.457
vt 0.001 0.404
vt 0.323 0.416
vt 0.003 0.361
vt 0.324 0.379
vt 0.679 0.652
vt 1 0.642
vt 0.999 0.694
vt 0.679 0.697
vt 0.999 0.75
vt 0.679 0.744
vt 0.999 0.802
vt 0.679 0.789
vt 1 0.845
vt 0.679 0.825
vt 0.003 0.626
vt 0.324 0.607
vt 0.323 0.649
vt 0.003 0.661
vt 0.323 0.701
vt 0.002 0.705
vt 0.323 0.756
vt 0.002 0.753
vt 0.323 0.809
vt 0.003 0.798
vt 0.324 0.853
vt 0.003 0.835
vt 0.679 0.832
vt 0.357 0.848
vt 0.356 0.801
vt 0.677 0.792
vt 0.355 0.746
vt 0.677 0.746
vt 0.356 0.691
vt 0.677 0.699
vt 0.357 0.642
vt 0.679 0.657
vt 0.324 0.588
vt 0.003 0.607
vt 0.001 0.565
vt 0.323 0.552
vt 0 0.513
vt 0.322 0.508
vt 0.387 0.093
vt 0.368 0.146
vt 0.355 0.143
vt 0.376 0.087
vt 0.368 0.201
vt 0.355 0.204
vt 0.387 0.254
vt 0.376 0.26
vt 0.423 0.297
vt 0.414 0.306
vt 0.471 0.324
vt 0.467 0.337
vt 0.526 0.334
vt 0.526 0.347
vt 0.581 0.324
vt 0.585 0.337
vt 0.629 0.297
vt 0.638 0.306
vt 0.665 0.254
vt 0.676 0.26
vt 0.684 0.201
vt 0.697 0.204
vt 0.684 0.146
vt 0.697 0.143
vt 0.665 0.093
vt 0.676 0.087
vt 0.629 0.051
vt 0.638 0.041
vt 0.581 0.023
vt 0.585 0.01
vt 0.526 0.013
vt 0.526 0
vt 0.471 0.023
vt 0.467 0.01
vt 0.423 0.05
vt 0.414 0.041
vt 0.914 0.571
vt 0.913 0.514
vt 0.925 0.515
vt 0.925 0.574
vt 0.915 0.618
vt 0.926 0.623
vt 0.899 0.179
vt 0.9 0.23
vt 0.888 0.235
vt 0.887 0.182
vt 0.898 0.12
vt 0.887 0.12
vt 0.899 0.061
vt 0.887 0.058
vt 0.9 0.007
vt 0.888 0.003
vt 0.885 0.296
vt 0.887 0.342
vt 0.875 0.347
vt 0.873 0.3
vt 0.884 0.24
vt 0.872 0.241
vt 0.884 0.18
vt 0.872 0.179
vt 0.885 0.123
vt 0.873 0.12
vt 0.887 0.076
vt 0.875 0.071
vt 0.9 0.067
vt 0.901 0.01
vt 0.912 0.007
vt 0.912 0.066
vt 0.9 0.127
vt 0.911 0.128
vt 0.9 0.184
vt 0.912 0.187
vt 0.901 0.23
vt 0.912 0.235
vt 0.914 0.398
vt 0.915 0.352
vt 0.926 0.347
vt 0.925 0.394
vt 0.913 0.454
vt 0.925 0.453
vt 0.726 0.179
vt 0.726 0.241
vt 0.697 0.241
vt 0.697 0.179
vt 0.727 0.3
vt 0.698 0.3
vt 0.729 0.347
vt 0.7 0.347
vt 0.792 0.115
vt 0.79 0.171
vt 0.761 0.171
vt 0.762 0.115
vt 0.79 0.233
vt 0.76 0.233
vt 0.79 0.294
vt 0.761 0.294
vt 0.792 0.347
vt 0.762 0.347
vt 0.731 0.347
vt 0.73 0.298
vt 0.759 0.298
vt 0.76 0.347
vt 0.729 0.239
vt 0.759 0.239
vt 0.729 0.176
vt 0.759 0.176
vt 0.73 0.118
vt 0.759 0.118
vt 0.731 0.071
vt 0.76 0.071
vt 0.325 0.589
vt 0.324 0.541
vt 0.354 0.541
vt 0.355 0.589
vt 0.324 0.482
vt 0.354 0.482
vt 0.324 0.419
vt 0.354 0.42
vt 0.325 0.361
vt 0.355 0.361
vt 0.729 0.071
vt 0.727 0.12
vt 0.698 0.12
vt 0.7 0.071
vt 0.021 0.27
vt 0 0.212
vt 0.023 0.207
vt 0.042 0.259
vt 0.062 0.318
vt 0.077 0.3
vt 0.116 0.35
vt 0.124 0.327
vt 0.178 0.361
vt 0.178 0.337
vt 0.239 0.35
vt 0.231 0.327
vt 0.293 0.318
vt 0.278 0.3
vt 0.334 0.27
vt 0.313 0.259
vt 0.355 0.212
vt 0.332 0.207
vt 0.355 0.149
vt 0.332 0.153
vt 0.334 0.09
vt 0.313 0.102
vt 0.293 0.042
vt 0.278 0.06
vt 0.239 0.011
vt 0.231 0.033
vt 0.178 0
vt 0.178 0.024
vt 0.116 0.011
vt 0.124 0.033
vt 0.062 0.042
vt 0.077 0.06
vt 0.021 0.09
vt 0.042 0.102
vt 0 0.149
vt 0.023 0.153
vt 0.871 0.201
vt 0.87 0.255
vt 0.845 0.253
vt 0.846 0.202
vt 0.871 0.306
vt 0.846 0.301
vt 0.872 0.347
vt 0.847 0.34
vt 0.845 0.146
vt 0.844 0.194
vt 0.819 0.197
vt 0.82 0.152
vt 0.844 0.248
vt 0.819 0.247
vt 0.844 0.301
vt 0.819 0.297
vt 0.845 0.347
vt 0.82 0.341
vt 0.793 0.347
vt 0.792 0.305
vt 0.818 0.3
vt 0.819 0.34
vt 0.792 0.253
vt 0.792 0.199
vt 0.817 0.201
vt 0.817 0.252
vt 0.792 0.148
vt 0.818 0.153
vt 0.793 0.107
vt 0.819 0.115
vt 0.329 0.829
vt 0.328 0.787
vt 0.354 0.783
vt 0.355 0.822
vt 0.328 0.736
vt 0.354 0.735
vt 0.328 0.682
vt 0.354 0.683
vt 0.328 0.631
vt 0.354 0.635
vt 0.329 0.589
vt 0.355 0.596
vt 0.697 0
vt 0.713 0
vt 0.713 0.019
vt 0.697 0.019
vt 0.697 0.038
vt 0.713 0.038
vt 0.713 0.057
vt 0.697 0.057
vt 0.713 0.071
vt 0.697 0.071
vt 0.713 0.033
vt 0.697 0.033
vt 0.906 0.337
vt 0.905 0.254
vt 0.92 0.254
vt 0.92 0.337
vt 0.852 0.129
vt 0.852 0.033
vt 0.869 0.033
vt 0.869 0.129
vt 0.833 0.127
vt 0.819 0.128
vt 0.819 0.036
vt 0.833 0.036
vt 0.777 0.115
vt 0.76 0.115
vt 0.76 0.019
vt 0.777 0.019
vt 0.713 0.038
vt 0.718 0.038
vt 0.718 0.057
vt 0.713 0.057
vt 0.887 0.347
vt 0.887 0.337
vt 0.906 0.347
vt 0.852 0.127
vt 0.852 0.142
vt 0.833 0.142
vt 0.852 0.145
vt 0.833 0.146
vt 0.718 0.033
vt 0.713 0.014
vt 0.718 0.014
vt 0.852 0.024
vt 0.852 0.035
vt 0.833 0.024
vt 0.887 0.253
vt 0.887 0.239
vt 0.906 0.239
vt 0.887 0.235
vt 0.906 0.235
vt 0.92 0.24
vt 0.92 0.235
vt 0.718 0
vt 0.819 0.024
vt 0.819 0.142
vt 0.819 0.146
vt 0.718 0.071
vt 0.713 0.071
vt 0.92 0.347
vt 0.865 0.143
vt 0.861 0.146
vt 0.856 0.143
vt 0.856 0.019
vt 0.861 0.016
vt 0.865 0.019
vt 0.872 0.149
vt 0.846 0.186
vt 0.847 0.17
vt 0.847 0.154
vt 0.826 0.611
vt 0.779 0.62
vt 0.733 0.611
vt 0.692 0.588
vt 0.661 0.552
vt 0.645 0.507
vt 0.645 0.46
vt 0.661 0.415
vt 0.692 0.379
vt 0.733 0.355
vt 0.779 0.347
vt 0.826 0.355
vt 0.867 0.379
vt 0.897 0.415
vt 0.913 0.46
vt 0.913 0.507
vt 0.897 0.552
vt 0.867 0.588
vt 0.45 0.356
vt 0.5 0.347
vt 0.517 0.35
vt 0.534 0.353
vt 0.55 0.356
vt 0.595 0.382
vt 0.628 0.421
vt 0.645 0.469
vt 0.645 0.52
vt 0.628 0.568
vt 0.595 0.607
vt 0.55 0.633
vt 0.5 0.642
vt 0.483 0.639
vt 0.467 0.636
vt 0.45 0.633
vt 0.405 0.607
vt 0.373 0.568
vt 0.355 0.52
vt 0.355 0.469
vt 0.373 0.421
vt 0.405 0.382
vt 0.818 0.268
vt 0.818 0.284
vn -0.312 -0.697 0.645
vn -0.355 -0.578 0.735
vn -0.585 -0.578 0.569
vn -0.514 -0.697 0.5
vn -0.744 -0.578 0.335
vn -0.653 -0.697 0.294
vn -0.813 -0.578 0.06
vn -0.715 -0.697 0.053
vn -0.785 -0.578 -0.222
vn -0.689 -0.697 -0.195
vn -0.662 -0.578 -0.477
vn -0.581 -0.697 -0.419
vn -0.459 -0.578 -0.675
vn -0.403 -0.697 -0.593
vn -0.2 -0.578 -0.791
vn -0.176 -0.697 -0.695
vn 0.082 -0.578 -0.811
vn 0.072 -0.697 -0.713
vn 0.355 -0.578 -0.734
vn 0.312 -0.697 -0.645
vn 0.585 -0.578 -0.569
vn 0.514 -0.697 -0.5
vn 0.744 -0.578 -0.334
vn 0.654 -0.697 -0.294
vn 0.814 -0.578 -0.06
vn 0.715 -0.697 -0.053
vn 0.785 -0.578 0.222
vn 0.69 -0.697 0.195
vn 0.662 -0.578 0.477
vn 0.581 -0.697 0.419
vn 0.459 -0.578 0.675
vn 0.403 -0.697 0.593
vn 0.2 -0.578 0.791
vn 0.176 -0.697 0.695
vn -0.082 -0.578 0.812
vn -0.072 -0.697 0.713
vn 0.035 -0.938 -0.343
vn 0.15 -0.938 -0.311
vn -0.085 -0.938 -0.335
vn -0.194 -0.938 -0.285
vn -0.28 -0.938 -0.202
vn -0.332 -0.938 -0.094
vn -0.344 -0.938 0.025
vn -0.315 -0.938 0.142
vn -0.247 -0.938 0.241
vn -0.15 -0.938 0.311
vn -0.035 -0.938 0.343
vn 0.085 -0.938 0.335
vn 0.194 -0.938 0.285
vn 0.28 -0.938 0.202
vn 0.332 -0.938 0.094
vn 0.344 -0.938 -0.025
vn 0.315 -0.938 -0.141
vn 0.247 -0.938 -0.241
vn -0.155 -0.934 0.321
vn -0.255 -0.934 0.248
vn -0.325 -0.934 0.146
vn -0.355 -0.934 0.026
vn -0.343 -0.934 -0.097
vn -0.289 -0.934 -0.208
vn -0.2 -0.934 -0.294
vn -0.087 -0.934 -0.345
vn 0.036 -0.934 -0.354
vn 0.155 -0.934 -0.321
vn 0.255 -0.934 -0.248
vn 0.325 -0.934 -0.146
vn 0.355 -0.934 -0.026
vn 0.343 -0.934 0.097
vn 0.289 -0.934 0.208
vn 0.2 -0.934 0.295
vn 0.087 -0.934 0.345
vn -0.036 -0.934 0.354
vn -0.075 0.67 0.739
vn -0.323 0.67 0.668
vn 0.182 0.67 0.72
vn 0.417 0.67 0.614
vn 0.602 0.67 0.434
vn 0.714 0.67 0.202
vn 0.74 0.67 -0.054
vn 0.677 0.67 -0.304
vn 0.532 0.67 -0.518
vn 0.323 0.67 -0.668
vn 0.075 0.67 -0.738
vn -0.182 0.67 -0.72
vn -0.417 0.67 -0.614
vn -0.602 0.67 -0.434
vn -0.714 0.67 -0.202
vn -0.74 0.67 0.055
vn -0.677 0.67 0.304
vn -0.532 0.67 0.518
vn -0.229 0.851 0.473
vn -0.377 0.851 0.367
vn -0.479 0.851 0.216
vn -0.524 0.851 0.039
vn -0.506 0.851 -0.143
vn -0.426 0.851 -0.307
vn -0.295 0.851 -0.435
vn -0.129 0.851 -0.51
vn 0.053 0.851 -0.523
vn 0.229 0.851 -0.473
vn 0.377 0.851 -0.367
vn 0.479 0.851 -0.216
vn 0.524 0.851 -0.039
vn 0.506 0.851 0.143
vn 0.426 0.851 0.307
vn 0.296 0.851 0.435
vn 0.129 0.851 0.51
vn -0.053 0.851 0.523
vn -0.062 0.791 0.608
vn -0.266 0.791 0.55
vn 0.15 0.791 0.593
vn 0.344 0.791 0.505
vn 0.496 0.791 0.358
vn 0.588 0.791 0.166
vn 0.61 0.791 -0.045
vn 0.558 0.791 -0.251
vn 0.438 0.791 -0.426
vn 0.062 0.791 -0.608
vn 0.266 0.791 -0.55
vn -0.15 0.791 -0.592
vn -0.344 0.791 -0.505
vn -0.496 0.791 -0.357
vn -0.588 0.791 -0.166
vn -0.61 0.791 0.045
vn -0.557 0.791 0.251
vn -0.438 0.791 0.426
vn -1 0 0.011
vn 0.306 0 0.952
vn 0.672 0 0.741
vn -0.916 0 -0.402
vn 1 0 -0.011
vn -0.306 0 -0.952
vn -0.672 0 -0.741
vn 0.916 0 0.402
vn 0.585 0 -0.811
vn -0.585 0 0.811
vn -0.574 -0.707 -0.413
vn -0.574 0.707 -0.413
vn 0.574 0.707 0.414
vn 0.574 -0.707 0.414
vn 0.582 0 -0.813
vn -0.282 0 -0.959
vn -0.282 0 -0.959
vn 0.582 0 -0.813
vn 0.999 0 -0.04
vn -0.582 0 0.813
vn 0.282 0 0.96
vn -0.582 0 0.813
vn -0.999 0 0.04
vn -0.772 0.635 0.031
vn -0.737 0.629 -0.247
vn -0.463 0.607 0.646
vn 0.218 0.636 0.741
vn 0.468 0.629 0.62
vn 0.772 0.635 -0.031
vn 0.738 0.629 0.247
vn 0.463 0.607 -0.646
vn -0.217 0.636 -0.741
vn -0.468 0.629 -0.62
vn -0.335 0.819 0.465
vn 0.335 0.819 -0.465
g 1
s 1
f 1/1/1 2/2/2 3/3/3 4/4/4
f 4/4/4 3/3/3 5/5/5 6/6/6
f 6/7/6 5/8/5 7/9/7 8/10/8
f 8/10/8 7/9/7 9/11/9 10/12/10
f 10/12/10 9/11/9 11/13/11 12/14/12
f 12/14/12 11/13/11 13/15/13 14/16/14
f 14/17/14 13/18/13 15/19/15 16/20/16
f 16/20/16 15/19/15 17/21/17 18/22/18
f 18/22/18 17/21/17 19/23/19 20/24/20
f 20/24/20 19/23/19 21/25/21 22/26/22
f 22/26/22 21/25/21 23/27/23 24/28/24
f 24/29/24 23/30/23 25/31/25 26/32/26
f 26/32/26 25/31/25 27/33/27 28/34/28
f 28/34/28 27/33/27 29/35/29 30/36/30
f 30/36/30 29/35/29 31/37/31 32/38/32
f 32/39/32 31/40/31 33/41/33 34/42/34
f 34/42/34 33/41/33 35/43/35 36/44/36
f 2/2/2 1/1/1 36/44/36 35/43/35
f 2/45/2 35/46/35 37/47/37 38/48/38
f 35/46/35 33/49/33 39/50/39 37/47/37
f 33/49/33 31/51/31 40/52/40 39/50/39
f 31/51/31 29/53/29 41/54/41 40/52/40
f 29/53/29 27/55/27 42/56/42 41/54/41
f 27/55/27 25/57/25 43/58/43 42/56/42
f 25/57/25 23/59/23 44/60/44 43/58/43
f 23/59/23 21/61/21 45/62/45 44/60/44
f 21/61/21 19/63/19 46/64/46 45/62/45
f 19/63/19 17/65/17 47/66/47 46/64/46
f 17/65/17 15/67/15 48/68/48 47/66/47
f 15/67/15 13/69/13 49/70/49 48/68/48
f 13/69/13 11/71/11 50/72/50 49/70/49
f 11/71/11 9/73/9 51/74/51 50/72/50
f 9/73/9 7/75/7 52/76/52 51/74/51
f 7/75/7 5/77/5 53/78/53 52/76/52
f 5/77/5 3/79/3 54/80/54 53/78/53
f 3/79/3 2/45/2 38/48/38 54/80/54
f 54/81/54 38/82/38 55/83/55 56/84/56
f 53/85/53 54/81/54 56/84/56 57/86/57
f 52/87/52 53/88/53 57/89/57 58/90/58
f 51/91/51 52/87/52 58/90/58 59/92/59
f 50/93/50 51/91/51 59/92/59 60/94/60
f 49/95/49 50/93/50 60/94/60 61/96/61
f 48/97/48 49/98/49 61/99/61 62/100/62
f 47/101/47 48/97/48 62/100/62 63/102/63
f 46/103/46 47/101/47 63/102/63 64/104/64
f 45/105/45 46/103/46 64/104/64 65/106/65
f 44/107/44 45/105/45 65/106/65 66/108/66
f 43/109/43 44/110/44 66/111/66 67/112/67
f 42/113/42 43/109/43 67/112/67 68/114/68
f 41/115/41 42/113/42 68/114/68 69/116/69
f 40/117/40 41/115/41 69/116/69 70/118/70
f 39/119/39 40/120/40 70/121/70 71/122/71
f 37/123/37 39/119/39 71/122/71 72/124/72
f 38/82/38 37/123/37 72/124/72 55/83/55
f 55/125/55 72/126/72 73/127/73 74/128/74
f 72/126/72 71/129/71 75/130/75 73/127/73
f 71/129/71 70/131/70 76/132/76 75/130/75
f 70/133/70 69/134/69 77/135/77 76/136/76
f 69/134/69 68/137/68 78/138/78 77/135/77
f 68/137/68 67/139/67 79/140/79 78/138/78
f 67/139/67 66/141/66 80/142/80 79/140/79
f 66/143/66 65/144/65 81/145/81 80/146/80
f 65/144/65 64/147/64 82/148/82 81/145/81
f 64/147/64 63/149/63 83/150/83 82/148/82
f 63/149/63 62/151/62 84/152/84 83/150/83
f 62/151/62 61/153/61 85/154/85 84/152/84
f 61/155/61 60/156/60 86/157/86 85/158/85
f 60/156/60 59/159/59 87/160/87 86/157/86
f 59/159/59 58/161/58 88/162/88 87/160/87
f 58/161/58 57/163/57 89/164/89 88/162/88
f 57/165/57 56/166/56 90/167/90 89/168/89
f 56/166/56 55/125/55 74/128/74 90/167/90
f 90/169/90 74/170/74 91/171/91 92/172/92
f 89/173/89 90/169/90 92/172/92 93/174/93
f 88/175/88 89/173/89 93/174/93 94/176/94
f 87/177/87 88/175/88 94/176/94 95/178/95
f 86/179/86 87/177/87 95/178/95 96/180/96
f 85/181/85 86/179/86 96/180/96 97/182/97
f 84/183/84 85/181/85 97/182/97 98/184/98
f 83/185/83 84/183/84 98/184/98 99/186/99
f 82/187/82 83/185/83 99/186/99 100/188/100
f 81/189/81 82/187/82 100/188/100 101/190/101
f 80/191/80 81/189/81 101/190/101 102/192/102
f 79/193/79 80/191/80 102/192/102 103/194/103
f 78/195/78 79/193/79 103/194/103 104/196/104
f 77/197/77 78/195/78 104/196/104 105/198/105
f 76/199/76 77/197/77 105/198/105 106/200/106
f 75/201/75 76/199/76 106/200/106 107/202/107
f 73/203/73 75/201/75 107/202/107 108/204/108
f 74/170/74 73/203/73 108/204/108 91/171/91
f 91/205/91 108/206/108 109/207/109 110/208/110
f 108/206/108 107/209/107 111/210/111 109/207/109
f 107/209/107 106/211/106 112/212/112 111/210/111
f 106/213/106 105/214/105 113/215/113 112/216/112
f 105/214/105 104/217/104 114/218/114 113/215/113
f 104/217/104 103/219/103 115/220/115 114/218/114
f 103/219/103 102/221/102 116/222/116 115/220/115
f 102/223/102 101/224/101 117/225/117 116/226/116
f 100/227/100 99/228/99 118/229/118 119/230/119
f 99/228/99 98/231/98 120/232/120 118/229/118
f 98/231/98 97/233/97 121/234/121 120/232/120
f 97/235/97 96/236/96 122/237/122 121/238/121
f 96/236/96 95/239/95 123/240/123 122/237/122
f 95/239/95 94/241/94 124/242/124 123/240/123
f 94/241/94 93/243/93 125/244/125 124/242/124
f 93/243/93 92/245/92 126/246/126 125/244/125
f 127/247/127 128/248/128 129/249/129 130/250/130
f 131/251/131 132/252/132 133/253/133 134/254/134
f 134/254/135 133/253/135 135/255/135 136/256/135
f 130/250/136 129/249/136 137/257/136 138/258/136
f 130/259/137 133/260/137 135/261/138 138/262/138
f 136/263/139 137/264/139 138/265/138 135/266/138
f 129/267/140 137/268/139 136/269/139 134/270/140
f 130/271/137 129/272/140 134/273/140 133/274/137
f 143/275/141 144/276/142 145/277/143 146/278/144
f 144/279/142 127/280/127 130/259/130 145/281/143
f 128/282/128 147/283/145 148/284/145 129/267/129
f 147/283/145 143/285/141 146/286/144 148/284/145
f 149/287/146 150/257/147 151/288/147 152/289/148
f 150/290/147 131/291/131 134/270/134 151/292/147
f 132/293/132 153/294/149 154/295/149 133/260/133
f 153/294/149 149/296/146 152/297/148 154/295/149
f 133/260/133 154/295/149 155/298/150 135/261/151
f 154/295/149 152/297/148 156/299/152 155/298/150
f 152/289/148 151/288/147 157/248/153 156/300/152
f 151/292/147 134/270/134 136/269/154 157/301/153
f 129/267/129 148/284/145 158/302/155 137/268/156
f 148/284/145 146/286/144 159/303/157 158/302/155
f 146/278/144 145/277/143 160/304/158 159/305/157
f 145/281/143 130/259/130 138/262/159 160/306/158
f 155/307/150 156/308/152 157/309/153
f 135/266/151 155/307/150 157/309/153 136/263/154
f 158/310/155 159/311/157 160/312/158
f 137/264/156 158/310/155 160/312/158 138/265/159
f 92/313/92 91/205/91 110/208/110 142/314/160 141/315/160 126/316/126
f 36/317/36 1/318/1 4/319/4 6/320/6 8/321/8 10/322/10 12/323/12 14/324/14 16/325/16 18/326/18 20/327/20 22/328/22 24/329/24 26/330/26 28/331/28 30/332/30 32/333/32 34/334/34
f 125/335/125 126/336/126 141/337/160 142/338/160 110/339/110 109/340/109 111/341/111 112/342/112 113/343/113 114/344/114 115/345/115 116/346/116 117/347/117 140/348/161 139/349/161 119/350/119 118/351/118 120/352/120 121/353/121 122/354/122 123/355/123 124/356/124
f 139/357/161 140/358/161 117/225/117 101/224/101 100/227/100 119/230/119
