# Blender v2.78 (sub 0) OBJ File: 'book-open.blend'
# www.blender.org
o Cube.002_Cube.001
v -0.012428 -0.485966 0.216625
v 0.000000 -0.486750 -0.220555
v -0.321341 -0.485966 -0.220555
v 0.000001 -0.462863 0.208120
v -0.310920 -0.485966 0.208120
v -0.306022 -0.464409 0.208120
v -0.306022 -0.464409 -0.212051
v -0.310921 -0.485966 -0.212051
v 0.000000 -0.462862 -0.212050
v -0.016802 -0.500002 -0.212050
v -0.016801 -0.500002 0.208120
v -0.046213 -0.500002 0.208120
v -0.046214 -0.500002 -0.212050
v -0.046213 -0.500002 0.216625
v -0.020445 -0.500002 0.216625
v -0.012429 -0.485966 -0.220555
v -0.020446 -0.500002 -0.220555
v -0.321340 -0.500002 -0.220555
v -0.321341 -0.500002 0.216624
v -0.046214 -0.500002 -0.220555
v -0.321341 -0.485966 0.216624
v -0.238235 -0.450057 0.208120
v 0.000001 -0.486750 0.216625
v -0.238236 -0.450057 -0.212051
v 0.306023 -0.464409 0.208120
v 0.306023 -0.464409 -0.212051
v 0.238237 -0.450057 0.208120
v 0.238236 -0.450057 -0.212051
v 0.046214 -0.500003 -0.212050
v 0.046215 -0.500003 0.208120
v 0.016803 -0.500003 0.208120
v 0.016802 -0.500003 -0.212050
v 0.000001 -0.481442 0.216625
v 0.000000 -0.481442 -0.220555
v 0.310922 -0.485967 -0.212051
v 0.310922 -0.485967 0.208120
v 0.321342 -0.485967 -0.220555
v 0.012430 -0.485967 0.216625
v 0.046215 -0.500003 0.216625
v 0.020447 -0.500003 0.216625
v 0.012429 -0.485967 -0.220555
v 0.020446 -0.500003 -0.220555
v 0.321341 -0.500003 -0.220555
v 0.321343 -0.500003 0.216624
v 0.046214 -0.500003 -0.220555
v 0.321343 -0.485967 0.216624
v 0.000001 -0.486750 0.208120
v 0.000000 -0.486750 -0.212050
v 0.086920 -0.442244 -0.212051
v 0.086920 -0.442244 0.208120
v -0.086847 -0.442244 -0.212050
v -0.086847 -0.442244 0.208120
v -0.043405 -0.447755 -0.212050
v -0.043405 -0.447755 0.208120
v 0.043478 -0.447755 -0.212050
v 0.043478 -0.447755 0.208120
v 0.010224 -0.490836 0.216625
v -0.006214 -0.482857 0.216625
v -0.006214 -0.482857 -0.220555
v -0.008400 -0.490836 0.208120
v -0.008401 -0.490836 -0.212050
v -0.010223 -0.490836 -0.220555
v -0.010222 -0.490836 0.216625
v 0.010223 -0.490836 -0.220555
v 0.008401 -0.490836 -0.212050
v 0.008402 -0.490836 0.208120
v 0.006215 -0.482858 -0.220555
v 0.006215 -0.482858 0.216625
v -0.012429 -0.485966 -0.212050
v 0.000000 -0.481442 -0.212050
v 0.012429 -0.485967 -0.212050
v -0.006214 -0.482857 -0.212050
v 0.006215 -0.482858 -0.212050
v -0.012428 -0.485966 0.208120
v 0.000001 -0.481442 0.208120
v 0.012430 -0.485967 0.208120
v -0.006214 -0.482857 0.208120
v 0.006215 -0.482858 0.208120
vt 0.9657 0.8392
vt 0.7118 0.8392
vt 0.7118 0.8325
vt 0.7118 0.5038
vt 0.7118 0.4971
vt 0.9657 0.4971
vt 0.3957 0.4947
vt 0.3957 0.2612
vt 0.4035 0.2612
vt 0.4035 0.5029
vt 0.6880 0.8392
vt 0.6846 0.8325
vt 0.9870 0.7388
vt 0.9870 0.4971
vt 1.0000 0.4971
vt 1.0000 0.7124
vt 1.0000 0.7326
vt 0.9921 0.0000
vt 0.9921 0.3421
vt 0.9791 0.3421
vt 0.9791 0.0000
vt 0.9699 1.0000
vt 0.9699 0.7583
vt 0.9829 0.7646
vt 0.9829 0.7847
vt 0.9829 1.0000
vt 0.4035 0.2417
vt 0.3957 0.2417
vt 0.3957 0.0082
vt 0.4035 0.0000
vt 0.6846 0.5038
vt 0.0078 0.0082
vt 0.0000 0.0000
vt 0.6575 0.8325
vt 0.6575 0.5038
vt 0.6846 0.5038
vt 0.6846 0.8325
vt 0.6575 0.4971
vt 0.6813 0.4971
vt 0.9699 0.4971
vt 0.9829 0.4971
vt 0.9829 0.7124
vt 0.9829 0.7326
vt 0.9699 0.7388
vt 0.9662 0.0000
vt 0.9791 0.0000
vt 0.9791 0.3421
vt 0.9662 0.3421
vt 0.9870 0.7583
vt 1.0000 0.7646
vt 1.0000 0.7847
vt 1.0000 1.0000
vt 0.9870 1.0000
vt 0.6813 0.8392
vt 0.6575 0.8392
vt 0.0000 0.2612
vt 0.0079 0.2612
vt 0.0078 0.4947
vt 0.0000 0.5029
vt 0.4035 0.8392
vt 0.4035 0.4971
vt 0.6880 0.4971
vt 0.9744 0.7406
vt 0.9706 0.7486
vt 0.9670 0.7437
vt 0.9657 0.7486
vt 0.9670 0.7534
vt 0.9744 0.7566
vt 0.9915 0.7406
vt 0.9878 0.7486
vt 0.9842 0.7437
vt 0.9829 0.7486
vt 0.9842 0.7534
vt 0.9915 0.7566
vt 0.0448 0.8450
vt 0.0356 0.8450
vt 0.0354 0.8383
vt 0.0446 0.8383
vt 0.9662 0.3421
vt 0.9568 0.3421
vt 0.9568 0.3354
vt 0.9646 0.3354
vt 0.9474 0.3421
vt 0.9490 0.3354
vt 0.0448 0.8450
vt 0.0451 0.8383
vt 0.0543 0.8383
vt 0.0541 0.8450
vt 0.0446 0.5095
vt 0.0354 0.5095
vt 0.0356 0.5029
vt 0.0448 0.5029
vt 0.9662 0.0000
vt 0.9646 0.0067
vt 0.9568 0.0067
vt 0.9568 0.0000
vt 0.9490 0.0067
vt 0.9474 0.0000
vt 0.0448 0.5029
vt 0.0541 0.5029
vt 0.0543 0.5095
vt 0.0451 0.5095
vt 0.0000 0.2563
vt 0.0000 0.2514
vt 0.0079 0.2514
vt 0.0079 0.2563
vt 0.0000 0.2466
vt 0.0000 0.2417
vt 0.0079 0.2417
vt 0.0079 0.2466
vt 0.4035 0.2514
vt 0.4035 0.2563
vt 0.3957 0.2563
vt 0.3957 0.2514
vt 0.4035 0.2466
vt 0.3957 0.2466
vt 0.7799 0.0000
vt 0.7799 1.0000
vt 0.7250 1.0000
vt 0.7250 0.0000
vt 0.7174 1.0000
vt 0.6624 1.0000
vt 0.6624 0.0000
vt 0.7174 0.0000
vt 0.1844 1.0000
vt 0.1270 0.9704
vt 0.2220 0.8967
vt 0.4857 0.7931
vt 0.4720 0.8965
vt 0.3770 0.9704
vt 0.2162 0.4330
vt 0.1270 0.2600
vt 0.0594 0.0000
vt 0.0020 0.0296
vt 0.0097 0.0148
vt 0.2357 0.7933
vt 0.0132 0.0000
vt 0.0912 0.5670
vt 0.0556 0.7283
vt 0.0020 0.7400
vt 0.1107 0.2069
vt 0.1347 0.9852
vt 0.0970 0.1035
vt 0.1806 0.2717
vt 0.1382 1.0000
vt 0.3412 0.5670
vt 0.3056 0.7283
vt 0.2520 0.7400
vt 0.2520 0.0296
vt 0.3607 0.2067
vt 0.3882 1.0000
vt 0.3847 0.9852
vt 0.4344 1.0000
vt 0.3470 0.1033
vt 0.4662 0.4330
vt 0.3770 0.2600
vt 0.3094 0.0000
vt 0.2597 0.0148
vt 0.2632 0.0000
vt 0.4306 0.2717
vt 0.6368 0.1563
vt 0.8750 0.1563
vt 0.8750 0.9843
vt 0.6368 0.9843
vt 0.0000 0.1563
vt 0.1250 0.1563
vt 0.1250 0.9843
vt 0.0000 0.9843
vt 1.0000 0.1563
vt 1.0000 0.9843
vt 0.3633 0.1563
vt 0.4317 0.1563
vt 0.4317 0.9843
vt 0.3633 0.9843
vt 0.5000 0.1563
vt 0.5684 0.1563
vt 0.5684 0.9843
vt 0.5000 0.9843
vn -0.5773 -0.5773 -0.5773
vn 0.0000 -0.7071 -0.7071
vn 0.0000 -1.0000 0.0000
vn 0.0000 -0.7071 0.7071
vn -0.5773 -0.5773 0.5773
vn 0.2807 0.9275 0.2469
vn 0.1729 0.7321 0.6588
vn 0.1487 0.6294 0.7627
vn 0.5773 0.5773 0.5773
vn 0.2166 -0.7111 -0.6688
vn 0.4287 -0.9005 -0.0717
vn -0.1487 0.6294 0.7627
vn -0.5773 0.5773 0.5773
vn 0.2166 -0.7111 0.6688
vn -0.5773 0.5773 -0.5773
vn -0.1487 0.6294 -0.7627
vn -0.1729 0.7321 0.6588
vn -0.2807 0.9275 0.2469
vn 0.4287 -0.9005 0.0717
vn -0.2807 0.9275 -0.2469
vn -0.4288 -0.9005 0.0717
vn -0.4288 -0.9005 -0.0717
vn -0.2166 -0.7111 0.6688
vn 0.5773 0.5773 -0.5773
vn 0.5773 -0.5773 -0.5773
vn -0.2166 -0.7111 -0.6688
vn 0.1487 0.6294 -0.7627
vn 0.5773 -0.5773 0.5773
vn 0.1729 0.7321 -0.6588
vn 0.2807 0.9275 -0.2469
vn -0.3503 -0.4967 -0.7941
vn 0.0000 -0.5800 -0.8146
vn 0.2469 0.6893 -0.6811
vn 0.0000 0.7509 -0.6604
vn -0.2468 0.6893 -0.6811
vn 0.3503 -0.4967 -0.7941
vn 0.3503 -0.4967 0.7941
vn 0.0000 -0.5800 0.8146
vn -0.2468 0.6893 0.6811
vn 0.0000 0.7509 0.6604
vn 0.2469 0.6893 0.6811
vn -0.3503 -0.4967 0.7941
vn -0.5696 -0.8195 0.0629
vn 0.0000 -0.9997 0.0237
vn 0.5696 -0.8195 0.0629
vn -0.5696 -0.8195 -0.0629
vn 0.0000 -0.9997 -0.0237
vn 0.5696 -0.8195 -0.0629
vn 0.0000 0.6491 -0.7606
vn 0.2286 0.6383 -0.7350
vn -0.1729 0.7321 -0.6588
vn -0.2286 0.6383 -0.7350
vn 0.2286 0.6383 0.7350
vn 0.0000 0.6491 0.7606
vn -0.2286 0.6383 0.7350
vn -0.5596 0.5679 0.6035
vn -0.5596 0.5679 -0.6035
vn 0.5596 0.5679 -0.6035
vn 0.5596 0.5679 0.6035
vn 0.0002 0.6143 -0.7890
vn 0.1666 0.7098 -0.6844
vn -0.0271 0.7255 0.6876
vn -0.1664 0.7098 0.6844
vn -0.0939 0.7178 -0.6898
vn 0.0271 0.7255 -0.6876
vn 0.0939 0.7178 -0.6898
vn -0.0271 0.7255 -0.6876
vn -0.1664 0.7098 -0.6844
vn -0.0939 0.7178 0.6898
vn 0.0271 0.7255 0.6876
vn 0.0002 0.6143 0.7890
vn 0.1666 0.7098 0.6844
vn 0.0939 0.7178 0.6898
g Cube.002_Cube.001_Cube.002_Cube.001_cover
s 1
f 18/1/1 20/2/2 13/3/3 12/4/3 14/5/4 19/6/5
f 36/7/6 76/8/7 38/9/8 46/10/9
f 13/3/3 20/2/2 17/11/10 10/12/11
f 1/13/12 21/14/13 19/15/5 14/16/4 15/17/14
f 18/18/1 19/19/5 21/20/13 3/21/15
f 3/22/15 16/23/16 17/24/10 20/25/2 18/26/1
f 1/27/12 74/28/17 5/29/18 21/30/13
f 13/3/3 10/12/11 11/31/19 12/4/3
f 21/30/13 5/29/18 8/32/20 3/33/15
f 29/34/3 30/35/3 31/36/21 32/37/22
f 31/36/21 30/35/3 39/38/4 40/39/23
f 37/40/24 43/41/25 45/42/2 42/43/26 41/44/27
f 43/45/25 37/46/24 46/47/9 44/48/28
f 38/49/8 40/50/23 39/51/4 44/52/28 46/53/9
f 29/34/3 32/37/22 42/54/26 45/55/2
f 41/56/27 71/57/29 35/58/30 37/59/24
f 35/58/30 36/7/6 46/10/9 37/59/24
f 43/60/25 44/61/28 39/38/4 30/35/3 29/34/3 45/55/2
f 15/62/14 14/5/4 12/4/3 11/31/19
f 42/43/26 64/63/31 41/44/27
f 41/44/27 64/63/31 2/64/32 67/65/33
f 67/65/33 2/64/32 34/66/34
f 34/66/34 2/64/32 59/67/35
f 2/64/32 62/68/36 16/23/16 59/67/35
f 16/23/16 62/68/36 17/24/10
f 15/17/14 63/69/37 1/13/12
f 23/70/38 58/71/39 1/13/12 63/69/37
f 58/71/39 23/70/38 33/72/40
f 68/73/41 33/72/40 23/70/38
f 38/49/8 68/73/41 23/70/38 57/74/42
f 57/74/42 40/50/23 38/49/8
f 40/75/23 57/76/42 66/77/43 31/78/21
f 57/79/42 23/80/38 47/81/44 66/82/43
f 47/81/44 23/80/38 63/83/37 60/84/45
f 15/85/14 11/86/19 60/87/45 63/88/37
f 32/89/22 65/90/46 64/91/31 42/92/26
f 64/93/31 65/94/46 48/95/47 2/96/32
f 48/95/47 61/97/48 62/98/36 2/96/32
f 17/99/10 62/100/36 61/101/48 10/102/11
f 67/103/33 34/104/34 70/105/49 73/106/50
f 59/107/35 16/108/16 69/109/51 72/110/52
f 41/56/27 67/103/33 73/106/50 71/57/29
f 34/104/34 59/107/35 72/110/52 70/105/49
f 33/111/40 68/112/41 78/113/53 75/114/54
f 1/27/12 58/115/39 77/116/55 74/28/17
f 68/112/41 38/9/8 76/8/7 78/113/53
f 58/115/39 33/111/40 75/114/54 77/116/55
f 8/32/20 69/109/51 16/108/16 3/33/15
f 10/102/11 61/101/48 60/87/45 11/86/19
f 47/81/44 60/84/45 61/97/48 48/95/47
f 65/94/46 66/82/43 47/81/44 48/95/47
f 31/78/21 66/77/43 65/90/46 32/89/22
g Cube.002_Cube.001_Cube.002_Cube.001_edges
f 8/117/20 5/118/18 6/119/56 7/120/57
f 35/121/30 26/122/58 25/123/59 36/124/6
f 9/125/60 69/126/51 53/127/61
f 50/128/62 56/129/63 76/130/7
f 24/131/64 69/126/51 8/132/20
f 9/133/60 71/134/29 73/135/50
f 51/136/65 53/127/61 69/126/51
f 9/133/60 73/135/50 70/137/49
f 28/138/66 26/139/58 35/140/30
f 71/134/29 49/141/67 28/138/66
f 72/142/52 69/126/51 9/125/60
f 71/134/29 55/143/68 49/141/67
f 28/138/66 35/140/30 71/134/29
f 24/131/64 8/132/20 7/144/57
f 69/126/51 24/131/64 51/136/65
f 9/133/60 55/143/68 71/134/29
f 70/145/49 72/142/52 9/125/60
f 22/146/69 6/147/56 5/148/18
f 74/149/17 52/150/70 22/146/69
f 75/151/54 78/152/53 4/153/71
f 74/149/17 54/154/72 52/150/70
f 22/146/69 5/148/18 74/149/17
f 27/155/73 76/130/7 36/156/6
f 4/157/71 74/149/17 77/158/55
f 27/155/73 50/128/62 76/130/7
f 4/157/71 77/158/55 75/159/54
f 4/153/71 78/152/53 76/130/7
f 4/157/71 54/154/72 74/149/17
f 27/155/73 36/156/6 25/160/59
f 56/129/63 4/153/71 76/130/7
g Cube.002_Cube.001_Cube.002_Cube.001_pages
f 50/161/62 27/162/73 28/163/66 49/164/67
f 6/165/56 22/166/69 24/167/64 7/168/57
f 27/162/73 25/169/59 26/170/58 28/163/66
f 52/171/70 54/172/72 53/173/61 51/174/65
f 22/166/69 52/171/70 51/174/65 24/167/64
f 4/175/71 56/176/63 55/177/68 9/178/60
f 54/172/72 4/175/71 9/178/60 53/173/61
f 56/176/63 50/161/62 49/164/67 55/177/68
