# Blender v2.73 (sub 0) OBJ File: 'six-twelve_allslopes.blend'
# www.blender.org
v -0.500000 -0.500000 0.500000
v -0.500000 -0.500000 -0.500000
v 0.500000 -0.500000 -0.500000
v 0.500000 -0.500000 0.500000
v -0.500000 0.500000 0.500000
v -0.500000 0.000000 -0.500000
v 0.500000 0.000000 -0.500000
v 0.500000 0.500000 0.500000
v -0.500000 -0.500000 -1.500000
v 0.500000 -0.500000 -1.500000
vt 0.999900 0.999900
vt 0.000100 0.500000
vt 0.000100 0.000100
vt 0.999900 0.000100
vt 0.999900 0.500000
vt 0.000100 0.999900
vt 1.000000 0.000095
vt 1.000000 0.999905
vt 1.000000 0.000000
vt 1.000000 0.500000
vt 0.000000 0.000000
vn -1.000000 0.000000 0.000000
vn 1.000000 0.000000 0.000000
vn 0.000000 0.000000 1.000000
vn 0.000000 -1.000000 0.000000
vn 0.000000 0.894400 -0.447200
s off
f 5/1/1 6/2/1 2/3/1 1/4/1
f 7/5/2 8/6/2 4/3/2 3/4/2
f 8/1/3 5/6/3 1/3/3 4/4/3
f 1/6/4 2/3/4 3/4/4 4/1/4
f 8/6/5 7/3/5 6/7/5 5/8/5
f 6/8/5 7/6/5 10/3/5 9/7/5
f 7/2/2 3/3/2 10/4/2
f 3/1/4 2/6/4 9/3/4 10/4/4
f 2/9/1 6/10/1 9/11/1
