# Blender v2.73 (sub 0) OBJ File: 'six-twelve_allslopes.blend'
# www.blender.org
v -1.500000 -0.500000 0.500000
v -1.500000 -0.500000 -0.500000
v -0.500000 -0.500000 -0.500000
v -0.500000 -0.500000 0.500000
v -0.500000 0.000000 -0.500000
v -0.500000 0.000000 0.500000
v -1.500000 -0.500000 -1.500000
v -0.500000 -0.500000 -1.500000
v 0.500000 -0.500000 -0.500000
v 0.500000 -0.500000 0.500000
v 0.500000 0.000000 -0.500000
v 0.500000 0.500000 0.500000
v 0.500000 -0.500000 -1.500000
vt 0.000000 0.000000
vt 1.000000 0.000000
vt 1.000000 1.000000
vt 0.000047 0.999952
vt 0.000047 0.000142
vt 0.999953 0.000142
vt 0.000100 0.999900
vt 0.000100 0.000100
vt 0.999900 0.000100
vt 0.999900 0.999900
vt 0.999900 0.500000
vt 1.000000 0.999905
vt 0.000100 0.500000
vt 1.000000 0.500000
vn -0.447200 0.894400 0.000000
vn 0.000000 -1.000000 0.000000
vn 0.000000 0.894400 -0.447200
vn 1.000000 0.000000 0.000000
vn 0.000000 0.000000 1.000000
s off
f 5/1/1 6/2/1 12/3/1
f 6/3/1 5/4/1 2/5/1 1/6/1
f 1/7/2 2/8/2 3/9/2 4/10/2
f 2/2/1 5/3/1 7/1/1
f 11/1/3 5/2/3 12/4/3
f 3/10/2 2/7/2 7/8/2 8/9/2
f 11/11/4 12/7/4 10/8/4 9/9/4
f 8/6/3 5/12/3 11/7/3 13/8/3
f 3/7/2 8/8/2 13/9/2 9/10/2
f 5/7/3 8/8/3 7/6/3
f 4/7/2 3/8/2 9/9/2 10/10/2
f 6/13/5 4/8/5 10/9/5 12/10/5
f 11/13/4 9/8/4 13/9/4
f 6/14/5 1/1/5 4/2/5
