# Blender v2.73 (sub 0) OBJ File: 'twelve-twelve-ic.blend'
# www.blender.org
v -0.500000 -0.500000 0.500000
v -0.500000 -0.500000 -0.500000
v 0.500000 -0.500000 -0.500000
v 0.500000 -0.500000 0.500000
v -0.500000 0.500000 0.500000
v 0.500000 0.500000 -0.500000
v 0.500000 0.500000 0.500000
vt 0.999900 0.999900
vt 0.000100 0.999900
vt 0.000100 0.000100
vt 0.999900 0.000100
vt 1.000000 1.000000
vt 0.000000 1.000000
vt 1.000000 0.000000
vt 0.000000 0.000000
vn 1.000000 0.000000 0.000000
vn 0.000000 0.000000 1.000000
vn 0.000000 -1.000000 0.000000
vn 0.000000 0.707100 -0.707100
vn -1.000000 0.000000 0.000000
vn 0.000000 0.000000 -1.000000
vn -0.707100 0.707100 0.000000
s off
f 6/1/1 7/2/1 4/3/1 3/4/1
f 7/1/2 5/2/2 1/3/2 4/4/2
f 1/2/3 2/3/3 3/4/3 4/1/3
f 5/5/4 7/6/4 2/7/4
f 5/1/5 2/3/5 1/4/5
f 2/7/6 6/6/6 3/8/6
f 7/5/7 6/2/7 2/3/7
