# Blender v2.78 (sub 0) OBJ File: 'book.blend'
# www.blender.org
o Cube.002_Cube.001
v 0.161995 -0.448008 0.216625
v 0.149566 -0.485966 0.216625
v 0.113157 -0.485966 0.216625
v 0.142021 -0.448008 0.216625
v 0.115781 -0.485966 0.208120
v 0.142021 -0.448008 0.208120
v 0.113157 -0.485966 -0.220555
v -0.159347 -0.485966 -0.220555
v 0.115781 -0.485966 -0.212050
v 0.161995 -0.448008 0.208120
v -0.148926 -0.485966 0.208120
v -0.155653 -0.448008 0.208120
v -0.155653 -0.448008 -0.212051
v -0.148926 -0.485966 -0.212051
v 0.152482 -0.485966 0.208120
v 0.152482 -0.485966 -0.212050
v 0.161995 -0.448008 -0.220555
v 0.161995 -0.448008 -0.212050
v 0.145193 -0.500002 -0.212050
v 0.145193 -0.500002 0.208120
v 0.115781 -0.500002 0.208120
v 0.115781 -0.500002 -0.212050
v 0.115781 -0.396013 -0.212050
v 0.115781 -0.396013 0.208120
v 0.145193 -0.396013 0.208120
v 0.145193 -0.396013 -0.212050
v 0.152482 -0.410049 -0.212050
v 0.152482 -0.410049 0.208120
v -0.148926 -0.410049 -0.212051
v -0.148926 -0.410049 0.208120
v 0.115781 -0.410049 -0.212050
v -0.159347 -0.410049 -0.220555
v 0.113157 -0.410049 -0.220555
v 0.115781 -0.410049 0.208120
v 0.113157 -0.410049 0.216625
v 0.149566 -0.410049 0.216625
v 0.115781 -0.396013 0.216625
v 0.141549 -0.396013 0.216625
v 0.149566 -0.410049 -0.220555
v 0.141549 -0.396013 -0.220555
v -0.159346 -0.396013 -0.220555
v -0.159347 -0.396013 0.216624
v 0.115781 -0.396013 -0.220555
v -0.159347 -0.410049 0.216624
v 0.115781 -0.500002 0.216625
v 0.141549 -0.500002 0.216625
v 0.142021 -0.448008 -0.212050
v 0.149566 -0.485966 -0.220555
v 0.141549 -0.500002 -0.220555
v -0.159346 -0.500002 -0.220555
v -0.159347 -0.500002 0.216624
v 0.142021 -0.448008 -0.220555
v 0.115781 -0.500002 -0.220555
v -0.159347 -0.485966 0.216624
vt 0.9220 0.3839
vt 0.9220 0.3404
vt 0.9318 0.3404
vt 0.9318 0.3839
vt 0.9318 0.4273
vt 0.9220 0.4273
vt 0.7681 0.4903
vt 0.7230 0.4903
vt 0.7230 0.0097
vt 0.7681 0.0097
vt 0.7681 0.5000
vt 0.7224 0.5000
vt 0.8096 0.4903
vt 0.8091 0.5000
vt 0.3524 0.0000
vt 0.6708 0.0000
vt 0.6708 0.0097
vt 0.6708 0.4903
vt 0.6708 0.5000
vt 0.3524 0.5000
vt 0.8096 0.0097
vt 0.8091 0.0000
vt 0.8236 0.0000
vt 0.8243 0.0097
vt 0.0121 0.5097
vt 0.0000 0.5000
vt 0.3154 0.5000
vt 0.3184 0.5097
vt 0.7006 0.0000
vt 0.7049 0.0097
vt 0.7310 0.8675
vt 0.7310 0.8447
vt 0.7749 0.8117
vt 0.7749 0.8533
vt 0.6871 0.8533
vt 0.6871 0.8117
vt 0.7749 0.5000
vt 0.7912 0.5000
vt 0.7912 0.8147
vt 0.7912 0.8441
vt 0.8513 0.5228
vt 0.8513 0.5000
vt 0.8953 0.5142
vt 0.8953 0.5559
vt 0.9220 0.3404
vt 0.9220 0.3839
vt 0.9121 0.3839
vt 0.9121 0.3404
vt 0.3346 0.5000
vt 0.3346 1.0000
vt 0.3184 1.0000
vt 0.3184 0.5000
vt 0.8953 0.8675
vt 0.9115 0.5234
vt 0.9115 0.5529
vt 0.9115 0.8675
vt 0.8243 0.4903
vt 0.8236 0.5000
vt 0.8074 0.5559
vt 0.8074 0.5142
vt 0.7681 0.0000
vt 0.7224 0.0000
vt 0.9220 0.4273
vt 0.9121 0.4273
vt 0.3184 0.9903
vt 0.3154 1.0000
vt 0.0000 1.0000
vt 0.0121 0.9903
vt 0.7049 0.4903
vt 0.3184 0.4903
vt 0.3184 0.0097
vt 0.3524 0.0097
vt 0.3524 0.4903
vt 0.7056 0.4903
vt 0.7056 0.0097
vt 0.6708 0.5097
vt 0.3645 0.5097
vt 0.3524 0.5000
vt 0.6678 0.5000
vt 0.3184 0.0000
vt 0.3482 0.0000
vt 0.7049 0.5000
vt 0.8074 0.8675
vt 0.7912 0.8675
vt 0.7912 0.5529
vt 0.7912 0.5234
vt 0.3362 0.5000
vt 0.3524 1.0000
vt 0.3362 1.0000
vt 0.6708 0.8441
vt 0.6708 0.8147
vt 0.6708 0.5000
vt 0.6871 0.5000
vt 0.3482 0.5000
vt 0.3184 0.5000
vt 0.3645 0.9903
vt 0.6708 0.9903
vt 0.6678 1.0000
vt 0.7049 0.0000
vt 0.0000 0.5000
vt 0.0000 0.0000
vt 0.6685 0.6398
vt 0.6407 0.6398
vt 0.6407 0.6306
vt 0.6725 0.6306
vt 0.4393 1.0000
vt 0.4393 0.3191
vt 0.5272 0.3791
vt 0.5272 0.9846
vt 0.0879 1.0000
vt 0.0879 0.3191
vt 0.1757 0.3345
vt 0.1757 0.9400
vt 0.3514 0.9846
vt 0.3514 0.3791
vt 0.0000 0.9400
vt 0.0000 0.3345
vt 0.3514 0.0000
vt 0.3514 0.9611
vt 0.2636 0.9611
vt 0.2636 0.0000
vt 0.1757 0.0000
vt 0.1757 0.9611
vn -0.8031 -0.5829 0.1239
vn -0.8030 0.5829 0.1239
vn 0.9700 0.2431 -0.0000
vn 0.9479 0.2740 -0.1625
vn 0.9479 -0.2740 -0.1625
vn -0.0000 -1.0000 -0.0000
vn 0.8316 -0.4534 0.3207
vn 0.0000 1.0000 -0.0000
vn 0.0000 0.0000 1.0000
vn 0.0000 0.0000 -1.0000
vn -0.8031 -0.5829 -0.1239
vn -1.0000 -0.0000 -0.0000
vn 0.8316 -0.4534 -0.3207
vn 0.9479 -0.2740 0.1625
vn 0.9700 -0.2431 -0.0000
vn 0.9479 0.2740 0.1625
vn -0.8030 0.5829 -0.1239
vn 0.8875 -0.4609 -0.0000
vn 0.8875 0.4609 -0.0000
vn 0.8316 0.4534 -0.3207
vn 0.8316 0.4534 0.3207
vn -0.9847 -0.1745 0.0000
vn -0.9847 0.1745 0.0000
g Cube.002_Cube.001_Cube.002_Cube.001_cover
s off
f 47/1/1 31/2/1 33/3/1 52/4/1
f 47/1/2 52/4/2 7/5/2 9/6/2
f 18/7/3 27/8/3 28/9/3 10/10/3
f 27/8/4 18/7/4 17/11/4 39/12/4
f 16/13/5 48/14/5 17/11/5 18/7/5
f 50/15/6 53/16/6 22/17/6 21/18/6 45/19/6 51/20/6
f 15/21/7 2/22/7 46/23/7 20/24/7
f 11/25/8 54/26/8 3/27/8 5/28/8
f 22/17/6 53/16/6 49/29/6 19/30/6
f 1/31/9 4/32/9 3/33/9 2/34/9
f 1/31/9 36/35/9 35/36/9 4/32/9
f 2/34/9 3/33/9 54/37/9 51/38/9 45/39/9 46/40/9
f 52/41/10 17/42/10 48/43/10 7/44/10
f 34/45/11 6/46/11 4/47/11 35/48/11
f 50/49/12 51/50/12 54/51/12 8/52/12
f 8/53/10 7/44/10 48/43/10 49/54/10 53/55/10 50/56/10
f 19/57/13 49/58/13 48/14/13 16/13/13
f 52/41/10 33/59/10 39/60/10 17/42/10
f 10/10/14 1/61/14 2/22/14 15/21/14
f 18/7/15 10/10/15 15/21/15 16/13/15
f 10/10/16 28/9/16 36/62/16 1/61/16
f 5/63/17 3/64/17 4/47/17 6/46/17
f 9/65/8 7/66/8 8/67/8 14/68/8
f 16/13/18 15/21/18 20/24/18 19/57/18
f 22/17/6 19/30/6 20/69/6 21/18/6
f 23/70/8 24/71/8 25/72/8 26/73/8
f 27/8/19 26/74/19 25/75/19 28/9/19
f 31/76/6 29/77/6 32/78/6 33/79/6
f 25/72/8 24/71/8 37/80/8 38/81/8
f 26/74/20 27/8/20 39/12/20 40/82/20
f 32/83/10 41/84/10 43/85/10 40/86/10 39/60/10 33/59/10
f 41/87/12 32/78/12 44/88/12 42/89/12
f 36/35/9 38/90/9 37/91/9 42/92/9 44/93/9 35/36/9
f 23/70/8 26/73/8 40/94/8 43/95/8
f 30/96/6 34/97/6 35/98/6 44/88/6
f 28/9/21 25/75/21 38/99/21 36/62/21
f 29/77/6 30/96/6 44/88/6 32/78/6
f 41/100/8 42/101/8 37/80/8 24/71/8 23/70/8 43/95/8
f 54/26/8 11/25/8 14/68/8 8/67/8
f 46/102/6 45/103/6 21/104/6 20/105/6
g Cube.002_Cube.001_Cube.002_Cube.001_edges
f 13/106/10 47/107/10 9/108/10 14/109/10
f 6/110/9 12/111/9 11/112/9 5/113/9
f 13/106/10 29/114/10 31/115/10 47/107/10
f 6/110/9 34/116/9 30/117/9 12/111/9
f 14/118/22 11/119/22 12/120/22 13/121/22
f 29/122/23 13/121/23 12/120/23 30/123/23
