v -0.312 -0.187 0.5
v -0.312 -0.187 0.313
v 0.313 -0.187 0.313
v 0.313 -0.187 0.5
v -0.312 0.5 0.5
v -0.312 0.5 0.313
v 0.313 0.5 0.313
v 0.313 0.5 0.5
v -0.312 0.438 0.313
v 0.313 0.438 0.313
v -0.312 -0.125 0.313
v 0.313 -0.125 0.313
v -0.25 0.438 0.313
v -0.25 -0.125 0.313
v 0.25 0.438 0.313
v 0.25 -0.125 0.313
vt 0.875 0.563
vt 0.875 0.75
vt 0.188 0.75
vt 0.188 0.563
vt 0.813 1
vt 0.188 1
vt 0.188 0.938
vt 0.813 0.938
vt 0.875 0.813
vt 0.875 1
vt 0.188 0.813
vt 0.188 0.313
vt 0.813 0.313
vt 0.25 0.25
vt 0.25 0.063
vt 0.875 0.063
vt 0.875 0.25
vt 0.813 0.813
vt 0.813 0.375
vt 0.188 0.375
vt 0.75 0.938
vt 0.75 0.375
vt 0.25 0.938
vt 0.25 0.375
vn -1 0 0
vn 0 0 -1
vn 1 0 0
vn 0 0 1
vn 0 -1 0
vn 0 1 0
g 1
s off
f 5/1/1 6/2/1 2/3/1 1/4/1
f 6/5/2 7/6/2 10/7/2 9/8/2
f 7/9/3 8/10/3 4/6/3 3/11/3
f 8/5/4 5/6/4 1/12/4 4/13/4
f 1/14/5 2/15/5 3/16/5 4/17/5
f 8/18/6 7/5/6 6/6/6 5/11/6
f 3/12/2 2/13/2 11/19/2 12/20/2
f 13/21/2 14/22/2 11/19/2 9/8/2
f 15/23/2 10/7/2 12/20/2 16/24/2
g 2
f 14/22/2 13/21/2 15/23/2 16/24/2
